<?xml version="1.0" encoding="UTF-8"?>
<svg width="107px" height="23px" viewBox="0 0 107 23" version="1.1" xmlns="http://www.w3.org/2000/svg" xmlns:xlink="http://www.w3.org/1999/xlink">
    <!-- Generator: Sketch 55.2 (78181) - https://sketchapp.com -->
    <title>SmartCity</title>
    <desc>Created with Sketch.</desc>
    <g id="Page-1" stroke="none" stroke-width="1" fill="none" fill-rule="evenodd">
        <g id="Artboard" transform="translate(-552.000000, -432.000000)" fill="#2554A4" fill-rule="nonzero" stroke="#2554A4">
            <path d="M558.16,440.02 L559.64,440.32 C562.76,440.98 564.46,442.04 564.46,444.94 C564.46,447.52 562.48,449.46 558.9,449.46 C554.34,449.46 553.4,447.1 552.92,445.48 C552.9,445.38 552.88,445.3 552.88,445.22 C552.88,444.78 553.22,444.48 553.64,444.38 C553.76,444.36 553.86,444.34 553.98,444.34 C554.36,444.34 554.74,444.52 554.86,444.94 C555.22,446.28 555.88,447.78 558.8,447.78 C561.08,447.78 562.5,446.68 562.5,444.96 C562.5,443.32 561.6,442.6 559.24,442.12 L557.64,441.78 C554.64,441.16 553.28,440.02 553.28,437.4 C553.28,435.3 554.84,433.26 558.6,433.26 C562.2,433.26 563.44,435.18 563.88,436.62 C563.92,436.72 563.94,436.82 563.94,436.92 C563.94,437.34 563.6,437.64 563.2,437.72 C563.1,437.74 562.98,437.76 562.86,437.76 C562.5,437.76 562.14,437.6 561.98,437.18 C561.66,436.04 560.82,434.92 558.6,434.92 C556.28,434.92 555.22,436.08 555.22,437.4 C555.22,438.84 555.92,439.58 558.16,440.02 Z M581.8,441.66 L581.8,448.46 C581.8,449 581.4,449.26 580.88,449.26 C580.32,449.26 579.98,449 579.98,448.46 L579.98,442.06 C579.98,440.36 579.5,439.4 578.06,439.4 C577,439.4 576.3,440.04 575.82,440.76 C575.52,441.18 575.28,441.96 575.28,442.56 L575.28,448.46 C575.28,449 574.9,449.26 574.38,449.26 C573.82,449.26 573.48,449 573.48,448.46 L573.48,442.06 C573.48,440.36 572.98,439.4 571.56,439.4 C570.5,439.4 569.86,440.02 569.38,440.74 C569.02,441.28 568.84,442 568.84,442.66 L568.84,448.46 C568.84,449 568.48,449.26 567.96,449.26 C567.4,449.26 567.04,449 567.04,448.46 L567.04,438.72 C567.04,438.2 567.42,437.94 567.98,437.94 C568.48,437.94 568.84,438.2 568.84,438.72 L568.84,439.14 C568.84,439.4 568.76,439.8 568.7,440.1 C569.2,438.92 570.04,437.8 572,437.8 C573.76,437.8 574.72,438.6 574.98,439.98 C575.56,438.94 576.28,437.8 578.5,437.8 C580.86,437.8 581.8,439.22 581.8,441.66 Z M591.54,442.06 L591.54,441.2 C591.54,439.88 590.82,439.3 589.24,439.3 C587.78,439.3 587.06,439.86 586.72,440.78 C586.58,441.16 586.28,441.3 585.94,441.3 C585.78,441.3 585.62,441.28 585.48,441.22 C585.1,441.1 584.82,440.82 584.82,440.46 C584.82,440.38 584.84,440.3 584.86,440.22 C585.06,439.6 585.58,439.02 586.04,438.66 C586.74,438.12 587.64,437.78 589.26,437.78 C591.94,437.78 593.26,438.84 593.26,441.2 L593.26,446.66 C593.26,447.36 593.36,448.04 593.48,448.42 C593.5,448.48 593.52,448.56 593.52,448.62 C593.52,448.94 593.22,449.22 592.72,449.26 L592.54,449.26 C592.14,449.26 591.78,449.14 591.7,448.78 C591.64,448.54 591.6,448.18 591.58,447.78 C590.82,448.64 589.76,449.42 587.78,449.42 C585.58,449.42 584.24,448.18 584.24,446.12 C584.24,444.24 585.36,443.04 587.26,442.52 C588.36,442.22 589.4,442.1 591.54,442.06 Z M591.54,444.84 L591.54,443.5 C589.2,443.56 588.1,443.76 587.3,444.16 C586.5,444.56 586.08,445.18 586.08,446.14 C586.08,447.18 586.88,447.88 588.08,447.88 C589.34,447.88 590.38,447.26 591.02,446.46 C591.4,445.98 591.54,445.6 591.54,444.84 Z M596.72,448.46 L596.72,438.72 C596.72,438.2 597.1,437.94 597.66,437.94 C598.16,437.94 598.56,438.2 598.56,438.72 L598.56,439.16 C598.56,439.44 598.48,439.78 598.44,440.1 C598.76,439.14 599.78,437.9 601.5,437.84 C601.66,437.82 601.8,437.82 601.94,437.82 C602.24,437.82 602.46,437.86 602.74,437.92 C603.2,437.98 603.38,438.26 603.38,438.64 C603.38,438.74 603.36,438.86 603.34,438.98 C603.26,439.4 602.98,439.76 602.56,439.76 C602.5,439.76 602.44,439.76 602.38,439.74 C602.1,439.68 601.84,439.62 601.42,439.62 C600.56,439.64 599.9,440.08 599.4,440.72 C598.88,441.36 598.58,442.1 598.56,442.94 L598.56,448.46 C598.56,449 598.16,449.26 597.66,449.26 C597.1,449.26 596.72,449 596.72,448.46 Z M606.46,438.06 L606.46,435.64 C606.46,435.12 606.8,434.84 607.36,434.84 C607.88,434.84 608.26,435.12 608.26,435.64 L608.26,438.06 L610.82,438.06 C611.32,438.06 611.56,438.38 611.56,438.86 C611.56,439.32 611.3,439.64 610.82,439.64 L608.26,439.64 L608.26,446.34 C608.26,447.32 608.68,447.74 609.42,447.74 C609.92,447.74 610.26,447.6 610.6,447.4 C610.72,447.34 610.84,447.3 610.96,447.3 C611.26,447.3 611.5,447.52 611.62,447.82 C611.68,447.96 611.7,448.12 611.7,448.26 C611.7,448.54 611.58,448.82 611.28,448.98 C610.7,449.26 610.16,449.42 609.3,449.42 C607.66,449.42 606.46,448.6 606.46,446.5 L606.46,439.64 L604.9,439.64 C604.42,439.64 604.2,439.32 604.2,438.86 C604.2,438.4 604.42,438.06 604.92,438.06 L606.46,438.06 Z M626.94,433.26 C630.46,433.26 632.04,435.1 632.76,436.86 C632.82,437 632.84,437.14 632.84,437.26 C632.84,437.68 632.52,437.96 632.22,438.06 C632.06,438.12 631.9,438.14 631.74,438.14 C631.4,438.14 631.08,438 630.9,437.62 C630.3,436.18 629.3,435 627.02,435 C624.02,435 622.04,437.42 622.04,441.36 C622.04,445.22 624.02,447.7 627.02,447.7 C629.42,447.7 630.56,446.26 631.08,444.66 C631.24,444.22 631.6,444.04 631.98,444.04 C632.1,444.04 632.24,444.06 632.38,444.1 C632.72,444.18 633.08,444.48 633.08,444.9 C633.08,445.02 633.06,445.12 633.02,445.24 C632.32,447.22 630.64,449.46 627.08,449.46 C622.78,449.46 620.04,446.32 620.04,441.34 C620.04,436.48 622.78,433.26 626.94,433.26 Z M635.44,448.46 L635.44,438.72 C635.44,438.2 635.78,437.94 636.34,437.94 C636.88,437.94 637.26,438.2 637.26,438.72 L637.26,448.46 C637.26,449 636.88,449.26 636.34,449.26 C635.78,449.26 635.44,449 635.44,448.46 Z M636.36,433.42 C637.1,433.42 637.7,434 637.7,434.76 C637.7,435.54 637.1,436.12 636.36,436.12 C635.6,436.12 635,435.54 635,434.76 C635,434 635.6,433.42 636.36,433.42 Z M641.5,438.06 L641.5,435.64 C641.5,435.12 641.84,434.84 642.4,434.84 C642.92,434.84 643.3,435.12 643.3,435.64 L643.3,438.06 L645.86,438.06 C646.36,438.06 646.6,438.38 646.6,438.86 C646.6,439.32 646.34,439.64 645.86,439.64 L643.3,439.64 L643.3,446.34 C643.3,447.32 643.72,447.74 644.46,447.74 C644.96,447.74 645.3,447.6 645.64,447.4 C645.76,447.34 645.88,447.3 646,447.3 C646.3,447.3 646.54,447.52 646.66,447.82 C646.72,447.96 646.74,448.12 646.74,448.26 C646.74,448.54 646.62,448.82 646.32,448.98 C645.74,449.26 645.2,449.42 644.34,449.42 C642.7,449.42 641.5,448.6 641.5,446.5 L641.5,439.64 L639.94,439.64 C639.46,439.64 639.24,439.32 639.24,438.86 C639.24,438.4 639.46,438.06 639.96,438.06 L641.5,438.06 Z M653.3,445.12 L655.82,438.48 C655.96,438.1 656.26,437.96 656.6,437.96 C656.72,437.96 656.84,437.98 656.96,438 C657.34,438.1 657.62,438.38 657.62,438.74 C657.62,438.84 657.6,438.96 657.56,439.08 L652.84,450.78 C652.14,452.5 651.32,453.64 649.36,453.64 C648.86,453.64 648.38,453.56 647.92,453.38 C647.52,453.24 647.36,452.96 647.36,452.66 C647.36,452.5 647.4,452.36 647.46,452.2 C647.6,451.86 647.86,451.64 648.2,451.64 C648.32,451.64 648.44,451.66 648.58,451.72 C648.86,451.84 649.22,451.98 649.58,451.98 C650.44,451.98 650.86,451.22 651.22,450.3 L651.78,448.9 L647.74,439.1 C647.7,439 647.68,438.88 647.68,438.78 C647.68,438.42 647.98,438.12 648.34,438 C648.48,437.96 648.62,437.94 648.76,437.94 C649.08,437.94 649.38,438.08 649.52,438.44 L652.04,445.08 C652.28,445.72 652.46,446.46 652.64,447.08 C652.8,446.46 653.08,445.7 653.3,445.12 Z" id="SmartCity"></path>
        </g>
    </g>
</svg>