<?xml version="1.0" encoding="UTF-8"?>
<svg width="360px" height="180px" viewBox="0 0 360 180" version="1.1" xmlns="http://www.w3.org/2000/svg" xmlns:xlink="http://www.w3.org/1999/xlink">
    <!-- Generator: Sketch 55.2 (78181) - https://sketchapp.com -->
    <title>img_atm</title>
    <desc>Created with Sketch.</desc>
    <g id="img_atm" stroke="none" stroke-width="1" fill="none" fill-rule="evenodd">
        <g id="Group-35" transform="translate(0.000000, 34.000000)">
            <g id="Group-34" transform="translate(265.259595, 4.000000)">
                <g id="Group-32" transform="translate(5.740405, 68.000000)">
                    <path d="M6.53397714,0 C4.8941083,0.318581742 1.8711671,2.68220785 1.17335057,4.63126034 C0.475534039,6.57892164 1.17335057,8.49875921 1.17335057,8.49875921 C1.17335057,8.49875921 2.10284218,10.024891 1.17335057,15.1416754 C0.242463318,20.2584599 -0.920099018,28.286998 1.17335057,31.8080914 C3.26680015,35.3291848 8.05661281,37 8.05661281,37 C8.05661281,37 11.8778561,33.9060009 13.8205773,27.9238983 C14.9147536,24.5558355 10.6469078,11.0780193 10.6469078,8.41807039 C10.6469078,5.75812152 6.53397714,0 6.53397714,0" id="Fill-287" fill="#372D27" transform="translate(7.000000, 18.500000) scale(-1, 1) translate(-7.000000, -18.500000) "></path>
                    <path d="M3.50281105,4.67125246 C3.63115914,6.65899879 5.03076456,7.34966811 6.68706617,7.69500278 C8.34183982,8.04033744 11.6666667,7.69500278 11.6666667,7.69500278 L7.58244693,1.12121212 C7.58244693,1.12121212 3.37599091,2.68350614 3.50281105,4.67125246" id="Fill-288" fill="#473831" transform="translate(7.583333, 4.484848) scale(-1, 1) translate(-7.583333, -4.484848) "></path>
                    <path d="M2.7256894,23.5454545 C2.7256894,23.5454545 1.49005588,26.6698712 3.40434151,29.4605735 C5.31997905,32.2512759 9.24183119,31.8244939 10.4923356,29.4339828 C11.7414881,27.0434716 11.6657819,24.3059509 11.6657819,24.3059509 C11.6657819,24.3059509 7.34376831,27.6922867 2.7256894,23.5454545" id="Fill-299" fill="#473831" transform="translate(7.000000, 27.469697) scale(-1, 1) translate(-7.000000, -27.469697) "></path>
                    <path d="M1.33366468,22.4242424 C1.33366468,22.4242424 3.7148774,23.8523117 7.20394301,24.1260552 C10.6930086,24.3997988 11.6666667,23.4332176 11.6666667,23.4332176 L11.1388337,25.2961273 C11.1388337,25.2961273 8.43108019,26.2203146 5.31925116,25.5347444 C2.20742213,24.8491743 1.16666667,23.8801705 1.16666667,23.8801705 L1.33366468,22.4242424" id="Fill-300" fill="#FFFFFE" transform="translate(6.416667, 24.106061) scale(-1, 1) translate(-6.416667, -24.106061) "></path>
                    <path d="M8.66257143,9.06509599 C5.92219923,8.28804086 5.92219923,4.48484848 5.92219923,4.48484848 C5.92219923,4.48484848 4.91030268,8.06094376 4.70473858,10.4550397 C4.50062211,12.8491356 5.1332384,15.1830371 6.21896431,15.5975577 C7.30469022,16.0134464 9.20543438,15.0694886 10.561868,13.7889893 C11.9197492,12.5071219 14,9.06509599 14,9.06509599 C14,9.06509599 11.3189808,9.81889419 8.66257143,9.06509599" id="Fill-301" fill="#231C18" transform="translate(9.333333, 10.090909) scale(-1, 1) translate(-9.333333, -10.090909) "></path>
                </g>
                <g id="Group-31" transform="translate(40.240405, 70.500000) scale(-1, 1) translate(-40.240405, -70.500000) translate(11.740405, 0.000000)">
                    <path d="M50.16,65.1571476 C50.16,65.1571476 51.5498654,68.684369 51.9198015,69.1662691 C52.2910402,69.6481692 54.1498386,70.8780935 54.2957289,70.7960985 C54.4416192,70.7126651 54.4911177,70.5429212 54.3048471,70.2206954 C54.119879,69.8984696 53.3279032,68.9835786 53.4816091,68.956247 C53.6353149,68.9303538 56.0959108,71.420411 56.6469071,71.0205058 C57.199206,70.6206006 57.1210505,68.2240464 56.2886943,66.8229398 C55.4550356,65.4203946 52.2688961,63.9243464 52.0995592,63.7128857 C50.6628004,61.9104353 50.16,65.1571476 50.16,65.1571476" id="Fill-83" fill="#FCBF90"></path>
                    <path d="M46.3881532,70.7907484 C46.3881532,70.7907484 47.7527132,74.3457795 48.1175402,74.8308451 C48.4836577,75.315906 50.3210252,76.550688 50.4658689,76.467419 C50.6107176,76.3826981 50.6603662,76.211206 50.4769513,75.8866485 C50.2948272,75.5620865 49.5133736,74.6415017 49.6657665,74.6133753 C49.8181543,74.5867008 52.247313,77.0911803 52.7946776,76.6856267 C53.3433328,76.2800685 53.2744242,73.8615686 52.4546912,72.4504021 C51.6336728,71.0377884 48.4820891,69.5390895 48.3150584,69.3262646 C46.8978964,67.5121617 46.3881532,70.7907484 46.3881532,70.7907484" id="Fill-83" fill="#FCBF90" transform="translate(49.768747, 72.754618) scale(-1, 1) rotate(69.000000) translate(-49.768747, -72.754618) "></path>
                    <path d="M37.1836089,21.4437709 C37.1836089,21.4437709 39.2627382,37.7370415 41.3155669,45.3849343 C41.3155669,45.3849343 53.6117758,62.9054859 53.58,63.7989829 C53.58,63.7989829 52.2109244,66.3441376 49.0050232,65.0639648 C49.0050232,65.0639648 34.3639108,54.1597104 32.4979546,50.9461593 C30.630614,47.7326081 26.1166056,31.1494688 26.2218079,29.1899898 C26.3283944,27.2303726 33.3977109,16.9108271 37.1836089,21.4437709" id="Fill-84" fill="#3662C1"></path>
                    <path d="M31.4375187,140.973899 C31.4577674,140.983035 31.4809087,140.990865 31.508389,141 L45.6,141 C45.4683838,140.547154 45.0070039,139.723679 43.3957903,139.487468 C41.2089366,139.16643 37.4195472,138.020612 36.573443,135.496679 C36.5474091,135.415767 36.5228214,135.332245 36.5011264,135.248723 C35.8300285,132.551222 30.9501049,136.074808 30.9501049,136.074808 C30.9501049,136.074808 30.9341952,136.181821 30.9139466,136.364526 C30.7996864,137.35374 30.51042,140.554984 31.4375187,140.973899" id="Fill-86" fill="#0B0B36"></path>
                    <path d="M18.8975187,140.973899 C18.9177674,140.983035 18.9409087,140.990865 18.968389,141 L33.06,141 C32.9283838,140.547154 32.4670039,139.723679 30.8557903,139.487468 C28.6689366,139.16643 24.8795472,138.020612 24.033443,135.496679 C24.0074091,135.415767 23.9828214,135.332245 23.9611264,135.248723 C23.2900285,132.551222 18.4101049,136.074808 18.4101049,136.074808 C18.4101049,136.074808 18.3941952,136.181821 18.3739466,136.364526 C18.2596864,137.35374 17.97042,140.554984 18.8975187,140.973899" id="Fill-86" fill="#0B0B36"></path>
                    <path d="M42.18,65.5281211 C42.18,65.5281211 41.4857304,74.4199744 40.6710126,85.1085551 C39.5626173,99.6283926 38.2295656,117.463554 38.0982905,120.842847 C37.8709274,126.710024 36.9560615,136.09556 36.9560615,136.09556 C36.9560615,136.09556 34.7879916,138.324782 30.4477919,137.384698 C30.4477919,137.384698 26.5812654,123.98712 25.4769302,109.812165 C25.4593366,109.579926 25.441743,109.346296 25.4255028,109.112665 C24.3983087,94.6818299 22.8,64.296 22.8,64.296 L42.18,65.5281211" id="Fill-87" fill="#A83F3F"></path>
                    <path d="M42.18,63.2919318 C42.18,63.2919318 41.4857304,72.3267534 40.6710126,83.1871912 L25.4769302,108.288 C25.4593366,108.052026 25.441743,107.81464 25.4255028,107.577253 C24.3983087,92.9143905 22.8,62.04 22.8,62.04 L42.18,63.2919318" id="Fill-88" fill="#9E332E"></path>
                    <path d="M26.0925085,115.015112 C17.6895756,130.109158 16.6551283,133.227284 15.7133411,134.929333 C13.5034678,135.118058 9.57197332,134.137827 8.78314348,133.201441 C8.50880926,135.446396 12.5494596,101.914602 18.3493225,94.8335926 C21.6278806,90.8319464 25.4600181,78.808008 25.6297512,74.6005433 C25.8009148,70.3930822 26.7757111,62.0670126 26.7757111,62.0670126 L47.8775919,67.9051996 C47.8775919,67.9051996 34.4954414,99.9210657 26.0925085,115.015112 Z" id="Fill-89" fill="#A83F3F" transform="translate(28.323786, 98.509940) rotate(-14.000000) translate(-28.323786, -98.509940) "></path>
                    <path d="M31.92,17.9289276 C31.92,17.9289276 32.5198464,23.6686733 37.6280271,24.816 C37.6280271,24.816 39.9296274,23.3566276 40.9994264,21.8652867 C41.1307797,21.6813976 41.2592139,21.5042982 41.3818103,21.3361104 C42.5946383,19.662012 43.32,18.7534582 43.32,18.7534582 C43.32,18.7534582 43.32,18.7521851 43.317081,18.7497804 C43.1857278,18.5540092 38.8817207,12.2116731 38.745989,12.412678 C35.6299987,17.0475329 31.92,17.9289276 31.92,17.9289276" id="Fill-90" fill="#FCBF90"></path>
                    <path d="M38.7827028,13.5618413 C38.6360229,15.0628795 39.1626735,18.5962399 41.4648489,21.432 C42.6257153,19.6603049 43.32,18.6987842 43.32,18.6987842 C43.32,18.6987842 43.32,18.6974369 43.3172061,18.694892 C43.1872896,18.5332164 38.8246113,13.1181316 38.7827028,13.5618413" id="Fill-91" fill="#F0A76F"></path>
                    <path d="M44.834392,19.1374602 C44.834392,19.1374602 37.1461703,16.2055666 39.068585,11.5048012 C40.9909996,6.80403575 41.2927238,3.25976394 46.2826685,4.93298267 C51.2726132,6.60591757 51.4866937,8.7778378 51.2309465,10.5010118 C50.976636,12.2243278 46.8832435,19.7789317 44.834392,19.1374602" id="Fill-92" fill="#FCBF90"></path>
                    <path d="M19.0756127,65.2949522 C22.8163378,68.4461477 44.5063391,68.3488457 43.5574103,65.7439315 C43.1090309,64.515146 42.296872,62.110396 41.8978425,58.6116932 C41.538293,55.4716179 41.512913,51.4474842 42.3814719,46.5990633 C42.5943816,45.4091986 42.8608713,44.1706828 43.1908108,42.883516 C43.6335502,41.1431998 43.9663098,39.3639628 44.1792195,37.6194766 C44.2497194,37.0453946 44.3061194,36.4768728 44.3512393,35.9139111 C44.6924588,31.5383781 44.2398494,27.5553892 42.8651013,25.2293148 C40.774074,21.6939153 34.2514226,16.92 34.2514226,16.92 C34.2514226,16.92 20.7069805,20.0959381 17.5683247,44.7169642 C17.5683247,44.7169642 15.821337,62.5524252 19.0756127,65.2949522" id="Fill-93" fill="#6D89CF"></path>
                    <path d="M38.7709666,13.0144659 C38.6444897,13.010328 36.9567265,12.4388321 37.910924,4.73612813 C38.0598856,3.52692928 38.9986249,1.36876219 41.0419286,0.367686539 C43.0866376,-0.633542373 47.3601497,0.56554151 50.5740669,2.09704014 C53.7893894,3.62869202 53.3790423,5.88417739 52.9490211,8.13874321 C52.4979203,10.50534 53.58,13.536 53.58,13.536 C50.1890152,13.202819 48.5729222,8.86181041 47.3278279,8.45077475 C46.0841389,8.03927932 44.6198181,9.52985829 44.1897968,10.0366797 C43.7597755,10.5436543 43.3480231,10.9244983 42.3755567,9.46119909 C41.4030903,7.9978999 40.5458583,11.0173721 40.4545139,11.6480253 C40.4545139,11.6480253 39.8333721,13.0486423 38.7709666,13.0144659" id="Fill-95" fill="#A83F3F"></path>
                    <path d="M27.1966757,31.7072691 C30.8945354,30.5570567 34.5256534,37.4562391 38.0900297,52.4048163 L49.7693957,68.3161432 C49.4514317,70.2302271 48.4032227,71.1872691 46.6247686,71.1872691 C41.5100297,67.8032691 34.1000297,59.3432691 31.2500297,55.9592691 C28.4000297,52.5752691 21.6498861,33.4325876 27.1966757,31.7072691 Z" id="Path-7" fill="#6D89CF"></path>
                </g>
                <path d="M11.7404046,72.6366532 C9.75826668,70.6624275 7.87607245,70.4742707 6.09382191,72.0721828 C3.42044608,74.4690509 -0.282836849,82.2326509 1.00397859,91.8286486 C2.29079402,101.424646 3.83518883,103.681181 6.09382191,104.811469 C7.59957729,105.564994 9.10533267,104.05974 10.6110881,100.295705 L9.48177152,98.4310415 C8.49699544,100.050464 7.4165398,100.860176 6.2404046,100.860176 C4.4762018,100.860176 3.08953528,94.5283562 3.08953528,91.2641781 C3.08953528,88 4.96450537,76.5439275 7.22313844,74.3080551 C8.72889383,72.8174735 10.2346492,73.2011237 11.7404046,75.4590055 L11.7404046,72.6366532 Z" id="Path-9" stroke="#231C18" fill="#231C18"></path>
            </g>
            <polygon id="Fill-309" fill="#91993B" transform="translate(13.500000, 69.000000) scale(-1, 1) translate(-13.500000, -69.000000) " points="0 138 27 138 27 0 0 0"></polygon>
            <polygon id="Fill-310" fill="#AAB647" transform="translate(40.000000, 69.000000) scale(-1, 1) translate(-40.000000, -69.000000) " points="15 138 65 138 65 0 15 0"></polygon>
            <polygon id="Fill-311" fill="#91993B" transform="translate(40.500000, 42.000000) scale(-1, 1) translate(-40.500000, -42.000000) " points="20 67 61 67 61 17 20 17"></polygon>
            <polyline id="Fill-312" fill="#372D27" transform="translate(40.500000, 42.000000) scale(-1, 1) translate(-40.500000, -42.000000) " points="29.1273984 17 29.1273984 58.5649633 20 67 61 67 61 17 29.1273984 17"></polyline>
            <polygon id="Fill-313" fill="#231C18" transform="translate(33.500000, 32.500000) scale(-1, 1) translate(-33.500000, -32.500000) " points="20 43 47 43 47 22 20 22"></polygon>
            <path d="M48.0072551,24 L44,24 L44,26 L48.0072551,26 C48.5538089,26 49,25.5496044 49,24.9993914 C49,24.4503956 48.5538089,24 48.0072551,24" id="Fill-314" fill="#FFFFFE" transform="translate(46.500000, 25.000000) scale(-1, 1) translate(-46.500000, -25.000000) "></path>
            <path d="M48.0072551,28 L44,28 L44,30 L48.0072551,30 C48.5538089,30 49,29.5496044 49,29.0006086 C49,28.4503956 48.5538089,28 48.0072551,28" id="Fill-315" fill="#FFFFFE" transform="translate(46.500000, 29.000000) scale(-1, 1) translate(-46.500000, -29.000000) "></path>
            <g id="Group-27" transform="translate(40.000000, 13.000000)">
                <rect id="Rectangle" fill="#8AD7D8" transform="translate(6.000000, 33.500000) rotate(-17.000000) translate(-6.000000, -33.500000) " x="3" y="29" width="6" height="9" rx="1"></rect>
                <path d="M50.4375,16.9419072 C50.4375,16.9419072 43.4811321,23.5429933 38.75,23.2205613 C38.75,23.2205613 39.7536114,20.591005 41.3899617,19.0852284 C41.1093013,18.4262304 40.8699882,17.8265446 40.6657577,17.2933645 C39.9929245,15.5158869 39.7323113,14.474892 39.7323113,14.474892 L44.3243662,8.448 C44.5398732,9.49202357 44.8455926,10.4194416 45.2076946,11.2438833 C47.0770932,15.4878713 50.4375,16.9419072 50.4375,16.9419072" id="Fill-4" fill="#EE9E71"></path>
                <path d="M40.9005756,17.86276 C40.2757913,16.3890739 39.8125,15.1656371 39.8125,15.1656371 L42.4675343,11.616 C44.1706951,11.6204913 45.125,11.9714378 45.125,11.9714378 C45.125,11.9714378 44.6436391,16.0098424 40.9005756,17.86276 Z" id="Fill-5" fill="#DE8C5D"></path>
                <path d="M45.0353412,10.0502558 C44.0663536,5.67953345 44.3435545,2.55358367 39.7028698,3.27053373 C35.0609693,3.98736499 34.5406096,5.84383203 34.5004884,7.37954262 C34.4603672,8.91537201 36.9004652,16.088199 38.7995351,15.8333758 C38.7995351,15.8333758 46.0043288,14.4212158 45.0353412,10.0502558 Z" id="Fill-6" fill="#EE9E71"></path>
                <path d="M46.6633713,2.37261788 C46.7282749,2.28253582 46.8867895,2.20250584 47.25,2.15611164 C47.25,2.15611164 46.9467005,1.9859996 46.5572789,2.0030108 C46.4461939,1.47824092 46.1154351,0.558604906 45.2304995,0.391585809 C45.2304995,0.391585809 45.7147802,0.620077213 45.8133838,1.17951386 C44.7337373,0.164640878 42.5220223,-0.473923648 36.5746058,0.44017084 C28.7362479,1.6448734 31.6806247,6.7544206 32.7427971,7.31372838 C33.8049695,7.87290728 36.260073,5.96352847 38.1709848,5.98852978 C40.0831447,6.0135311 40.6335772,8.86883597 41.3038316,9.21898326 C41.9753343,9.56900168 41.6757792,8.88790914 42.5207742,8.41301302 C43.3670173,7.93837465 43.5492466,9.4487634 43.3620247,10.4521667 C43.1748028,11.4556989 44.4591452,12.672 44.4591452,12.672 C44.4591452,12.672 44.4591452,12.672 45.5812286,11.2187019 C46.7020638,9.76566151 47.463433,3.88996576 46.831871,2.69325331 C46.7757045,2.58757764 46.720786,2.48035551 46.6633713,2.37261788" id="Fill-7" fill="#0B0754"></path>
                <path d="M75.2174963,121.36997 C75.2174963,121.36997 77.3643578,123.452328 76.9459122,124.931933 C76.526225,126.411537 74.5879655,127.397507 74.3259714,129.205769 C74.065219,131.01403 73.0172427,132 72.0735673,132 C71.1311336,132 67.5799342,132 67.5799342,132 C67.5799342,132 66.8858361,130.728242 68.5621015,130.345025 C70.2371253,129.96051 70.8691395,127.836582 70.7648385,125.863343 C70.6605376,123.890104 70.9225317,121.260851 70.9225317,121.260851 L74.4836645,120.384 L75.2174963,121.36997" id="Fill-9" fill="#0B0B36"></path>
                <path d="M48.809321,130.919565 C48.7919006,130.928117 48.7719915,130.935448 48.7483496,130.944 L36.625,130.944 C36.7394769,130.520059 37.1351687,129.749146 38.5225786,129.528012 C40.4039811,129.227466 43.6640833,128.154785 44.3907626,125.791955 C44.4144045,125.716208 44.4343136,125.638017 44.4529783,125.559826 C45.0303399,123.034505 49.229899,126.333182 49.229899,126.333182 C49.229899,126.333182 49.2423422,126.433364 49.2597626,126.604407 C49.3580633,127.53048 49.6069261,130.527389 48.809321,130.919565" id="Fill-10" fill="#0B0B36"></path>
                <path d="M38.75,63.4042377 C38.75,63.4042377 39.3578637,71.3443281 40.0737656,80.8888283 C41.0449228,93.8544966 42.2143481,109.780624 42.3295097,112.798206 C42.5301522,118.037374 43.331535,126.418305 43.331535,126.418305 C43.331535,126.418305 45.2334835,128.408915 49.0409421,127.569456 C49.0409421,127.569456 52.4328689,115.605923 53.4028389,102.948222 C53.4170857,102.740841 53.4325197,102.532218 53.4479538,102.323595 C54.3490642,89.4374022 55.75,62.304 55.75,62.304 L38.75,63.4042377" id="Fill-11" fill="#100C57"></path>
                <path d="M38.75,62.3628495 C38.75,62.3628495 39.3578637,70.4083886 40.0737656,80.0796451 L53.4028389,102.432 C53.4170857,102.221865 53.4325197,102.010471 53.4479538,101.799078 C54.3490642,88.7417489 55.75,61.248 55.75,61.248 L38.75,62.3628495" id="Fill-12" fill="#0B0B36"></path>
                <path d="M40.875,64.295606 C40.875,64.295606 52.4732423,92.9069553 60.0991055,106.353313 C67.7249686,119.799672 70.1078939,123.552 70.1078939,123.552 C70.1078939,123.552 74.4770088,121.832131 74.875,120.659606 C74.875,120.659606 71.9584903,94.7009563 66.8511456,88.3737671 C63.9647677,84.7981206 60.5761927,74.0674746 60.4167451,70.3151462 C60.2572976,66.5628179 59.3847301,59.136 59.3847301,59.136 L40.875,64.295606" id="Fill-13" fill="#100C57"></path>
                <path d="M67.272921,57.457501 C67.272921,57.457501 66.8824381,61.9997197 67.0356179,62.7336373 C67.1900532,63.468816 68.6289388,65.9089029 68.8423861,65.9139471 C69.0558333,65.9189912 69.2090131,65.772712 69.1776238,65.3200034 C69.1449789,64.8685558 68.7519849,63.420897 68.9428318,63.4889924 C69.1336788,63.5583489 70.5537308,67.6869508 71.4112865,67.6150723 C72.2688422,67.5431937 73.5269254,64.9946585 73.3599344,63.0148463 C73.1929433,61.0350342 70.382973,57.4890267 70.3088942,57.1611597 C69.6748303,54.3856396 67.272921,57.457501 67.272921,57.457501" id="Fill-14" fill="#EE9E71"></path>
                <path d="M4.27292099,33.457501 C4.27292099,33.457501 3.88243807,37.9997197 4.03561787,38.7336373 C4.19005323,39.468816 5.62893882,41.9089029 5.84238607,41.9139471 C6.05583332,41.9189912 6.20901311,41.772712 6.17762381,41.3200034 C6.14497893,40.8685558 5.75198488,39.420897 5.94283183,39.4889924 C6.13367879,39.5583489 7.55373079,43.6869508 8.41128651,43.6150723 C9.26884223,43.5431937 10.5269254,40.9946585 10.3599344,39.0148463 C10.1929433,37.0350342 7.38297299,33.4890267 7.30889424,33.1611597 C6.67483035,30.3856396 4.27292099,33.457501 4.27292099,33.457501" id="Fill-14" fill="#EE9E71" transform="translate(7.187500, 37.808000) rotate(130.000000) translate(-7.187500, -37.808000) "></path>
                <path d="M68.8307692,57.7004231 C67.3836858,58.1719472 67.149711,58.0709063 67.149711,58.0709063 C67.149711,58.0709063 59.9473557,45.5193839 59.2199992,44.3705117 C58.4913711,43.2228869 44.0625,30.3681171 44.0625,30.3681171 L47.5924679,16.896 C47.5924679,16.896 64.0660754,37.3783582 65.8526766,40.3238869 C68.8053371,45.1900655 70.625,56.5440664 70.625,56.5440664 C70.625,56.5440664 69.9675816,57.3286925 68.8307692,57.7004231" id="Fill-15" fill="#ED6966"></path>
                <path d="M62.2437075,61.2943943 C61.8722586,62.8854298 61.359659,64.1074751 60.6638112,64.6615857 C56.787122,67.7298325 39.777235,66.5715787 38.0078997,64.3651428 C37.3751983,63.5758791 37.2427148,61.283137 37.7800776,58.7439845 C37.9051321,58.148597 38.0190432,57.5106818 38.1255252,56.8352423 C38.1676228,56.5588124 38.2084821,56.2748776 38.245627,55.9859395 C38.7136528,52.3798426 38.791657,47.7255636 37.7763632,42.0543728 C37.6946444,41.5940732 37.6054966,41.1300212 37.5089199,40.6584643 C37.3801509,40.0305556 37.2650017,39.3976437 37.1634723,38.763481 C36.8799329,36.9828222 36.7065901,35.1929073 36.6483964,33.4664086 C36.4923878,28.9677309 37.1139458,24.90221 38.5923128,22.5790731 C38.5985036,22.5655643 38.6059325,22.5565584 38.6145997,22.5474275 C43.4124824,21.8888739 47.3572705,14.784 47.3572705,14.784 C47.3572705,14.784 60.9015386,21.8358394 63.0559426,43.6329001 C63.0559426,43.6329001 63.1822353,45.9919354 63.187188,49.1427359 C63.1958551,52.9639728 63.0274649,57.9472159 62.2437075,61.2943943" id="Fill-16" fill="#ED6966"></path>
                <path d="M38.4635962,54.4 C38.7208862,50.8051836 38.5741003,46.5089084 37.6477861,40.9521849 C37.5717908,40.4963085 37.4671912,40.05993 37.3651158,39.6047472 C37.2290153,38.9986417 37.10731,38.3877067 37,37.7755642 C39.3856848,33.3503903 42.9962742,29.4172244 47.625004,28 C47.625004,28 47.4383776,51.0410647 38.4635962,54.4 Z" id="Fill-17" fill="#E75755"></path>
                <path d="M28.6299601,38.3302705 C21.5817331,36.9684914 13.4190156,37.0091439 11.9245762,37.315753 C11.1226866,38.5274142 10.7583735,39.4456357 10.7311488,41.0178578 C11.8483279,41.6840117 14.1580755,42.4132228 19.5556533,44.180849 C22.8105475,45.2467783 25.1989386,45.6064451 26.6815434,45.9902012 C26.9862734,46.1289809 27.4054326,46.1772522 27.9191203,46.1482894 C28.2238503,46.1446691 28.5173862,46.1108792 28.7922651,46.040886 C34.8383573,44.9680583 49.1532051,36.704268 50.5363062,32.8531907 C52.1383154,28.3913618 51.7415445,21.6294097 45.5051515,23.2472194 C45.5051515,23.2472194 36.9385172,29.3284134 28.6299601,38.3302705 Z" id="Fill-19" fill="#ED6966" transform="translate(31.033331, 34.579348) rotate(-1.000000) translate(-31.033331, -34.579348) "></path>
            </g>
            <path d="M48.0072551,33 L44,33 L44,35 L48.0072551,35 C48.5538089,35 49,34.5505481 49,34 C49,33.4506699 48.5538089,33 48.0072551,33" id="Fill-316" fill="#FFFFFE" transform="translate(46.500000, 34.000000) scale(-1, 1) translate(-46.500000, -34.000000) "></path>
            <path d="M48.0072551,37 L44,37 L44,39 L48.0072551,39 C48.5538089,39 49,38.5505481 49,38 C49,37.4506699 48.5538089,37 48.0072551,37" id="Fill-317" fill="#FFFFFE" transform="translate(46.500000, 38.000000) scale(-1, 1) translate(-46.500000, -38.000000) "></path>
            <polygon id="Fill-318" fill="#878A38" transform="translate(36.000000, 53.000000) scale(-1, 1) translate(-36.000000, -53.000000) " points="20 58 52 58 52 48 20 48"></polygon>
            <path d="M50,53 C50,54.1046771 49.1046771,55 48,55 C46.8953229,55 46,54.1046771 46,53 C46,51.8964365 46.8953229,51 48,51 C49.1046771,51 50,51.8964365 50,53" id="Fill-319" fill="#FFFFFE" transform="translate(48.000000, 53.000000) scale(-1, 1) translate(-48.000000, -53.000000) "></path>
            <polygon id="Fill-320" fill="#372D27" transform="translate(27.000000, 53.000000) scale(-1, 1) translate(-27.000000, -53.000000) " points="20 56 34 56 34 50 20 50"></polygon>
            <polygon id="Fill-321" fill="#878A38" transform="translate(26.000000, 53.000000) scale(-1, 1) translate(-26.000000, -53.000000) " points="20 54 32 54 32 52 20 52"></polygon>
            <polygon id="Fill-322" fill="#E05957" transform="translate(40.500000, 53.000000) scale(-1, 1) translate(-40.500000, -53.000000) " points="36 55 45 55 45 51 36 51"></polygon>
            <polygon id="Fill-323" fill="#FFFFFE" transform="translate(33.000000, 46.000000) scale(-1, 1) translate(-33.000000, -46.000000) " points="29 47 37 47 37 45 29 45"></polygon>
            <polygon id="Fill-324" fill="#91993B" transform="translate(40.500000, 74.000000) scale(-1, 1) translate(-40.500000, -74.000000) " points="20 79 61 79 61 69 20 69"></polygon>
            <polygon id="Fill-325" fill="#372D27" transform="translate(41.000000, 74.500000) scale(-1, 1) translate(-41.000000, -74.500000) " points="28 77 54 77 54 72 28 72"></polygon>
            <polygon id="Fill-326" fill="#FFFFFE" transform="translate(41.000000, 74.000000) scale(-1, 1) translate(-41.000000, -74.000000) " points="30 75 52 75 52 73 30 73"></polygon>
            <path d="M40.153626,87.9024488 C40.153626,87.9024488 38.138015,88.4476015 38.0016687,91.7921871 C37.9103423,94.0317335 41.5981258,96.7464467 41.5981258,96.7464467 L39.6275348,97.5641758 C39.6275348,97.5641758 41.5080857,98.7011385 43.4297978,98.9393358 C44.8177009,99.1112308 46.9452188,98.8632109 46.9452188,98.8632109 C46.9452188,98.8632109 47.4224311,93.388355 45.5598883,91.4115625 C44.6350483,92.8444301 43.6446076,94.6579224 43.6446076,94.6579224 C43.6446076,94.6579224 41.3781708,91.3919173 41.473356,89.5784251 C41.5981258,87.2124131 42.9435815,87 42.9435815,87 L40.153626,87.9024488" id="Fill-330" fill="#AAB647" transform="translate(42.500000, 93.000000) scale(-1, 1) translate(-42.500000, -93.000000) "></path>
            <polygon id="Fill-331" fill="#FFFFFE" transform="translate(40.000000, 109.000000) scale(-1, 1) translate(-40.000000, -109.000000) " points="26 110 54 110 54 108 26 108"></polygon>
            <polygon id="Fill-332" fill="#FFFFFE" transform="translate(40.000000, 114.000000) scale(-1, 1) translate(-40.000000, -114.000000) " points="26 115 54 115 54 113 26 113"></polygon>
            <polygon id="Fill-333" fill="#FFFFFE" transform="translate(40.500000, 8.500000) scale(-1, 1) translate(-40.500000, -8.500000) " points="20 13 61 13 61 4 20 4"></polygon>
            <g id="Group-30" transform="translate(206.000000, 20.000000)">
                <path d="M13.6222856,25.9686888 C13.6222856,25.9686888 8.63283286,29.1297193 8,46.5955169 C8,46.5955169 9.82901104,48.5008675 13.2128056,44.0408708 C16.5966001,39.5808741 18,25 18,25 L13.6222856,25.9686888" id="Fill-21" fill="#FFCBAF"></path>
                <path d="M8,121.194541 L10.0679193,122 C10.0679193,122 19.0482255,108.972853 20.1543493,97.5108443 C20.3519137,95.4656477 20.2856646,93.4823144 19.8585943,91.6524017 C19.8585943,91.6524017 19.9461378,91.127802 20.0999304,90.1998544 C20.1709116,89.7680495 20.2584551,89.2471616 20.3578288,88.6508006 C20.6500348,86.90131 21.0522617,84.5072052 21.5112735,81.7815138 C22.5677105,75.5085881 23.9364649,67.4898836 25,61.5943231 L24.4427975,61.4074964 L18.4153097,59.3734352 L17.1695894,55.2347889 L12.6812109,54 C12.6812109,54 11.6780097,56.0513828 10.7812804,65.7416303 C10.6168406,67.0122999 10.4665971,68.4141194 10.3530271,69.9347162 C10.0040362,74.5744541 9.97800974,80.3302038 10.7800974,86.9099709 C10.9859429,88.5938865 11.2462074,90.3334789 11.5679889,92.1200873 C11.8045929,93.4291121 11.8400835,95.2144833 11.7407098,97.2646288 C11.2876131,106.633188 8,121.194541 8,121.194541" id="Fill-22" fill="#0B0754"></path>
                <path d="M10.5321864,70.543606 L19.6472821,90 C19.7248203,89.5586506 19.8204507,89.0262492 19.9290041,88.4167065 C20.2482029,86.628546 20.6875858,84.181523 21.1889993,81.3955841 C22.3430256,74.9840044 23.8382199,66.788058 25,60.7621847 L24.3913254,60.5712284 L17.807043,58.4922073 L16.4462483,54.2620822 L11.5432518,53 C11.5432518,53 11.9795655,56.3534017 11,66.2578381 C10.8802466,67.1236753 10.7243088,68.5522647 10.5321864,70.543606 Z" id="Fill-23" fill="#060632"></path>
                <path d="M14,55.9536237 L14.2333228,53.9323672 C18.1375087,54.9819371 28.5661806,51 28.5661806,51 C28.5661806,51 32.348208,54.3638159 31.8510229,62.4278258 C31.6091491,66.3640219 31.1669353,83.0879106 30.7039545,88.0365893 C30.5365974,89.8303772 30.3912287,91.1074157 30.3313711,91.6167477 C30.3301495,91.6192201 30.3301495,91.6204564 30.3301495,91.6216926 C30.3118257,91.7774592 30.3655754,91.924572 30.4437569,92.0605587 C31.1241798,93.2288079 31.6873305,94.4465068 32.1503113,95.691403 C36.6872783,107.928968 31.450343,123 31.450343,123 L30.0919404,122.444927 C30.0919404,122.444927 27.1112728,105.674061 24.6900911,98.2640236 C24.2796385,97.0080012 23.8850665,96.0202435 23.5246989,95.4305558 C22.4716926,93.7109425 21.4944245,90.9009632 20.6075537,87.5593997 C18.931539,81.2409643 17.5829091,73.0224241 16.685044,66.6780275 C16.5616639,66.6842087 14,55.9536237 14,55.9536237" id="Fill-24" fill="#0B0754"></path>
                <path d="M29,26.2564124 C28.9950397,26.2704286 28.9900794,26.2857425 28.983879,26.2997586 C27.9546131,29.2998606 25.8960813,33.254098 22.0902778,33.9068866 C20.9320437,34.1054485 19.6113591,33.9990297 18.1083829,33.4656378 C16.3846726,32.8543786 15.0429067,32.0367707 14,31.1054763 C15.4496528,27.854771 17.2105655,25.4105127 17.2924107,25.298124 C17.296131,25.29462 17.296131,25.2921542 17.296131,25.2921542 C17.296131,25.2921542 17.546627,25.2582819 17.9608135,25.2079276 C18.2224702,24.9329258 18.3253968,23.7054757 18.3576389,22.412617 C18.3973214,20.7615681 18.3241567,19.0017644 18.3241567,19.0017644 L23.6800595,18.0551561 L23.9987599,18 C23.9466766,19.7084112 24.094246,21.1653107 24.3348214,22.3119084 C24.5047123,23.1251039 24.7217262,23.7815262 24.9474206,24.2636553 C25.1111111,24.6182117 25.2822421,24.8767315 25.4422123,25.0348024 C25.8836806,25.3052619 26.3363095,25.3218736 26.827381,25.3004601 C27.3209325,25.278787 28.1381448,25.6186783 28.9813988,26.2423963 C28.9875992,26.2470683 28.9937996,26.2517404 29,26.2564124" id="Fill-25" fill="#FFCBAF"></path>
                <path d="M33,54.9369204 C33.0061597,55.7419944 32.8636272,56.4632323 32.5072959,57.0315924 C31.7577274,59.4295543 9.83571443,56.9243314 11.0485136,54.3944508 C11.0485136,54.3944508 12.1353242,38.8009178 11.4544768,34.7804789 C11.4302972,34.6337656 11.411208,34.4919838 11.3984819,34.3477362 C11.0485136,30.5336823 14.6270983,27.5200175 13.2043182,25.9594313 C13.2043182,25.9594313 14.4998371,25.3179611 17.6979109,25 C17.6979109,25 17.6979109,25.0023425 17.6940931,25.0056713 C17.602465,25.1555901 15.1374157,29.1262205 15.3206718,30.165666 C15.5064732,31.222372 22.3823954,31.0337406 23.0517893,30.4735175 C23.5862863,30.0221582 26.7792696,27.3276874 27.3544902,25.4657841 C27.4410278,25.1834533 27.4792062,25.0078905 27.4792062,25.0078905 C27.4792062,25.0078905 30.814722,25.4548114 32.418213,26.6507101 C32.418213,26.6507101 31.2715897,27.9591712 30.5322022,29.5442919 C30.4622085,29.6954436 30.3960327,29.8477049 30.3349473,30.0000895 C30.2038683,30.3245849 30.0982415,30.6557379 30.0231574,30.985658 C29.9251663,31.4245652 30.0447918,31.867171 30.303132,32.3393661 C30.5372926,32.7708759 30.8910787,33.2307421 31.2983145,33.7288278 C31.4306662,33.8915686 31.5057503,33.9186921 31.5833796,33.9507471 C31.6622816,33.9828021 31.7437287,34.0210216 31.8900791,34.2034886 C31.3593999,36.1600775 30.552564,39.8870897 29.939165,43.409443 C29.785179,44.3020519 29.8424465,45.2131542 30.0995141,46.074941 C30.2013231,46.4176831 30.3336747,46.7542608 30.496569,47.0772767 C31.4866611,49.0313999 32.9845253,52.3984096 33,54.9369204" id="Fill-27" fill="#ED6966"></path>
                <g id="Group-33" transform="translate(24.391578, 12.612764) rotate(-21.000000) translate(-24.391578, -12.612764) translate(13.391578, 4.112764)">
                    <path d="M15.0841152,1.73685619 C15.2611437,1.48759112 17.2709377,-1.13421386 21.6445826,1.4169002 C21.6445826,1.4169002 19.3783577,0.337303477 18.4203212,1.01364357 C18.4203212,1.01364357 20.5889201,0.797494955 21.5183196,1.89186672 C22.4490209,2.98636585 21.8190077,5.41826064 21.3920567,6.08058992 C20.9664073,6.74266446 18.9240713,8.45529513 18.0649625,8.1693472 C17.7395425,8.06095447 17.428441,7.83920153 17.1668033,7.60560309 C17.1655016,8.03064016 17.1407697,8.48446309 17.0808924,8.97140248 C16.5328851,13.4762605 12.5679677,15.7191368 11.3652154,14.4385486 C10.5946208,13.6171329 9.31376764,15 9.31376764,15 L5,2.19322654 C5,2.19322654 12.7137559,-2.42155271 15.0841152,1.73685619" id="Fill-28" fill="#0B0754"></path>
                    <path d="M10.2725879,12.4624573 C9.23905709,15.4289648 6.1718441,16.1177226 4.60048241,16.0122884 C2.95097712,15.8188255 2.06270972,15.7620284 1.45553077,15.5289542 C-0.326689254,14.7781343 1.71557991,6.06024398 2.57141137,4.74566848 C3.42724283,3.42981172 4.86974349,2.0829484 9.27433564,3.83648449 C11.8287639,4.85316642 12.2599462,6.14698546 11.8797218,7.89232147 C11.6027199,9.15615897 10.9010687,10.6569019 10.2725879,12.4624573 Z" id="Fill-29" fill="#FFCBAF"></path>
                    <path d="M6.76689583,2.66470306 C11.4600186,1.87913051 12.9146986,5.74866121 12.9146986,5.74866121 C12.2981721,8.97080778 14,11.4792143 14,11.4792143 C14,11.4792143 12.4042845,11.82615 9.63058721,10.104335 C8.78303127,9.57832741 8.1785936,8.68513345 7.74608486,7.69883743 C8.27530362,10.05097 9.44388313,12 9.44388313,12 C6.3840853,9.23686826 6.6433219,3.97793889 6.68093136,3.4248031 C6.10335758,3.65838612 4.97390148,3.89990467 4.08261473,4.62825816 C3.08299616,5.44513968 2.14436346,6.86769323 1.15414965,8.81786946 C1.45229734,6.06337063 2.10590159,4.36067334 4.10871325,2.4953108 C5.68831038,1.570913 6.43109712,2.12557715 6.76689583,2.66470306 Z" id="Fill-36" fill="#0B0754"></path>
                </g>
                <path d="M22,125 L33.9345146,125 C33.9345146,125 34.2205742,123.37815 33.5969372,122.146946 C32.9990591,120.96533 32.0636036,120.428341 32.2886552,119 C31.5294449,119.696634 30.2943724,120.475509 28.5685248,120.268696 C28.3570305,120.574683 27.203302,122.211046 26.498321,122.663374 C25.717419,123.16408 22.2399647,122.985084 22,125" id="Fill-30" fill="#060632"></path>
                <path d="M0,124 L11.8742276,124 C11.8742276,124 12.3180105,122.462886 11.5383554,121.417342 C10.8490756,120.491132 11.1134569,119.964528 11.6233351,119.199256 C11.0864792,119.37771 10.390455,119.539742 9.62428874,119.504708 C9.03212858,119.477337 8.40624631,119.25947 7.85859933,119 C7.34737222,119.472958 5.15948205,121.486315 4.47559776,121.884826 C3.69864047,122.338078 0.238752503,122.176046 0,124" id="Fill-31" fill="#060632"></path>
                <path d="M33,54.9900835 C25.6079692,55.4293597 21,41.1284774 21,41.1284774 C21,41.1284774 28.4164524,34.3807061 31.281491,34 C31.4151671,34.161068 31.4910026,34.1879126 31.5694087,34.2196381 C31.6491003,34.2513636 31.7313625,34.2891902 31.8791774,34.4697815 C31.3431877,36.4062577 30.5282776,40.094958 29.9087404,43.5811031 C29.7532134,44.4645364 29.811054,45.366273 30.0706941,46.219201 C30.1735219,46.5584199 30.3071979,46.8915377 30.4717224,47.2112332 C31.4717224,49.1452689 32.9845758,52.4776674 33,54.9900835" id="Fill-33" fill="#E75755"></path>
                <path d="M27,34 C29,34.7792205 31.4974902,36 34,36 C34.7191471,32 35.7478333,29.7533562 33,26.3830315 C31.924937,25.6917136 29.9026691,24.9986812 27.2132139,24.9999229 L28.1263981,29 L27,34 Z" id="Fill-41" fill="#ED6966"></path>
                <path d="M13.4458772,26 C13.4458772,26 11.4755739,26.9337633 10,30.0436183 C10,30.0436183 10.8540853,31.7826443 12.5179517,31.9942786 C14.1830488,32.2047436 14.3738028,26.5420644 13.4458772,26" id="Fill-42" fill="#ED6966"></path>
                <path d="M10.2201778,43.3791068 C9.8233462,43.2198246 10.9806262,40.2859675 11.6816253,39.0517321 C11.6816253,41.7332256 11.6276066,43.6460466 11.6276066,43.6460466 C11.3339785,43.5847473 10.8648356,43.4957673 10.2201778,43.3791068 Z" id="Fill-43" fill="#F2A57C"></path>
                <path d="M28.5,33.6273299 C28.5,40.0702636 28.5,43.6944869 28.5,44.5 C26.1651264,44.5 16,44.5 14,44.5 C12,44.5 11,43.6237075 10,42.5618538 C9,41.5 8.69805239,40.2768845 8,40.8128869 C7.30194761,41.3488894 8.46379621,44.0805677 9,44.9268229 C9.53620379,45.7730781 10.8630593,47 12.4315297,47 C14,47 20,47.3633782 22,47.7549145 C24,48.1464507 29.5195257,49.0738409 30.9000699,48.2209625 C31.8204328,47.6523768 32.8537428,43.3826926 34,35.4119097 L28.5,33.6273299 Z" id="Path-10" fill="#FFCBAF"></path>
            </g>
            <path d="M153.359262,41.1838088 C152.863149,39.649331 152.625105,38.1071637 152.52673,36.687194 C152.511205,36.4658266 152.498902,36.2462267 152.490727,36.032195 C152.437087,34.6805938 152.496902,33.4807966 152.564149,32.5679829 C152.574703,32.420083 152.584355,32.2797943 152.595469,32.1478442 C152.646543,31.4376167 156.060206,30.7597208 157.975562,30.4933384 C158.122455,32.1724037 158.22917,34.3068865 158.434173,35.3505561 C158.96527,38.0561404 156.767588,39.8238191 159.470004,39.2383577 L153.359262,41.1838088 Z" id="Fill-45" fill="#EE9E71"></path>
            <path d="M152.602209,35.9096148 C152.600582,35.7010727 152.601334,35.4939726 152.60498,35.2918489 C152.626467,34.0155917 152.399161,32.9721244 152.492688,32.1027436 C153.011338,31.5433047 156.049135,30.0828672 157.355142,29.7383074 C157.441025,30.5821828 157.470004,31.0272451 157.470004,31.17292 C157.413781,31.4321274 155.025545,35.7266305 152.602209,35.9096148 Z" id="Fill-46" fill="#DC8757"></path>
            <g id="Group-29" transform="translate(154.521848, 24.353814) rotate(17.000000) translate(-154.521848, -24.353814) translate(145.021848, 14.853814)">
                <path d="M11.2066232,17.9527838 C12.2887409,17.0360623 15.2169576,15.5758979 15.0131786,12.7986677 C14.8093996,10.0214375 13.3496786,7.04791911 8.76611324,8.0435229 C4.18254791,9.03921949 3.89646043,10.5288209 4.05430179,11.7241022 C4.21214316,12.9193835 7.36967859,19.2083024 9.25021051,18.8307524 L11.2066232,17.9527838 Z" id="Fill-47" fill="#EE9E71"></path>
                <path d="M17.7731935,11.5724257 C18.1815022,10.5838759 18.4134025,7.73052099 17.2937831,5.68574518 C16.1741637,3.64120965 14.9823602,1.81647639 12.795687,1.02184658 C10.6090137,0.227216765 8.24634213,0.45805651 6.6743392,0.959788915 C5.10114264,1.46140117 3.03863589,3.70964973 1.44705596,5.49798754 C-0.144523965,7.28632535 -0.326395114,11.6694805 4.05430179,11.7241022 C4.22488229,11.1127653 4.10664755,10.7260369 5.18826997,9.79810436 C6.26989239,8.87017179 7.53203032,8.38579699 9.214777,8.56707762 C9.71245437,8.62069191 10.9149126,9.25672679 11.3743548,9.77187159 C11.5729257,8.50298902 12.4304096,8.82755504 12.8568892,9.31861535 C13.2833688,9.80967566 13.4578131,10.5575879 13.1572192,11.3786338 C14.1229111,12.5947766 14.4082551,13.5280947 14.7504721,14.6474361 C15.6961471,14.0256976 17.1690334,13.0351483 17.7731935,11.5724257 Z" id="Fill-48" fill="#060632"></path>
            </g>
            <path d="M158.024768,143.456058 C157.952796,144.171759 157.777806,144.77745 157.417947,144.929189 C157.355853,144.955743 157.251424,144.979768 157.110302,145 L144.949883,145 C144.623893,144.991149 144.439024,144.986091 144.439024,144.986091 C144.439024,144.986091 144.470071,143.639409 146.537498,143.377659 C148.208373,143.167754 150.909434,142.454581 152.237385,140.903052 C152.552086,140.535085 152.790581,140.120332 152.919001,139.655 C153.587916,137.222121 157.966908,140.498415 157.966908,140.498415 C157.966908,140.498415 158.017712,140.922019 158.047347,141.510007 C158.078394,142.084086 158.092506,142.814961 158.024768,143.456058" id="Fill-50" fill="#060632"></path>
            <path d="M169.055311,145 L155.97561,145 C156.121744,144.6902 156.655749,143.778502 158.020124,143.456058 C158.151235,143.421916 158.290541,143.397891 158.438041,143.377659 C159.848851,143.194308 162.017648,142.629081 163.401143,141.458163 C163.981583,140.968805 164.422717,140.37323 164.613921,139.655 C165.261282,137.222121 169.500542,140.498415 169.500542,140.498415 C169.500542,140.498415 169.544246,140.886613 169.577024,141.439196 C169.645311,142.632874 169.6617,144.59157 169.055311,145" id="Fill-51" fill="#060632"></path>
            <path d="M164.365854,78.398374 C164.365854,78.398374 164.355179,78.8448142 164.337833,79.6466105 C164.221746,84.8165932 163.761404,104.807621 163.326413,115.951948 C163.307733,116.357337 163.293055,116.749896 163.277043,117.13091 C163.269037,117.332321 163.259697,117.536298 163.251691,117.736426 C162.990163,123.123215 162.230932,128.399676 161.46236,132.619049 C160.482964,138.000706 159.487557,141.664594 159.487557,141.664594 C155.754112,142.391984 153.334978,141.027006 153.334978,141.027006 C153.334978,141.027006 152.327562,132.675495 151.94461,127.620971 C151.819183,125.980175 151.204059,120.384278 150.432818,113.577348 C149.83504,108.312433 149.143859,102.323976 148.510054,96.8768929 C148.475362,96.5856805 148.443338,96.2957509 148.408645,96.00967 C147.385217,87.204022 146.536585,80.0301899 146.536585,80.0301899 L153.137498,79.4259562 L164.365854,78.398374" id="Fill-52" fill="#0B0754"></path>
            <path d="M161.485854,133.552846 L150.438951,114.181549 C149.840232,108.825502 149.147963,102.73339 148.51316,97.1920224 C148.478413,96.8957693 148.446339,96.6008213 148.411592,96.3097886 C147.386553,87.3517221 146.536585,80.0537169 146.536585,80.0537169 L153.147888,79.4390244 L164.365854,79.6634981 L161.485854,133.552846" id="Fill-53" fill="#060632"></path>
            <path d="M157.696224,123.475721 C162.707624,137.57701 162.770117,141.494389 162.770117,141.494389 C162.770117,141.494389 167.36667,142.452965 169.393036,141.339739 C169.393036,141.339739 170.54982,114.606977 167.518249,107.507126 C165.513157,102.811382 163.978757,92.8166321 164.499974,89.2174995 C165.021192,85.6170888 165.594549,81.4033696 164.499974,77.2208503 L146.536585,80.155763 C146.536585,80.155763 152.686154,109.373153 157.696224,123.475721 Z" id="Fill-54" fill="#0B0754"></path>
            <path d="M162.938172,81.2457054 C161.571051,82.2378989 159.41593,82.5955501 157.043169,82.5583749 C154.272656,82.5122264 151.205704,81.9263963 148.754143,81.1739188 C147.434553,80.7701191 146.295078,80.3201708 145.473305,79.8804778 C141.808472,77.9230107 142.328803,75.3169003 142.416359,65.5628942 C142.506416,55.6076292 148.483971,42.7396223 149.560907,40.5852548 C151.477126,36.7503113 162.328828,37.8130081 160.717868,37.8130081 C162.268293,40.2015249 162.95193,42.1200782 164.015107,46.0093744 C164.446632,47.5829113 164.698042,49.785222 164.841883,52.2580145 C165.282164,59.8148375 164.713051,69.8931652 165.143325,72.2454587 C165.472285,74.0503793 165.499802,75.7181362 165.238386,77.1538684 C164.913179,78.9472519 164.137685,80.3752927 162.938172,81.2457054 Z" id="Fill-55" fill="#93B3F4"></path>
            <path d="M159.991683,34.6910569 C159.991683,34.6910569 161.48015,37.7083259 161.179379,38.2452193 C161.179379,38.2452193 153.009596,38.9056701 149.682927,40.9349593 C149.682927,40.9349593 150.776894,38.0051752 152.107282,37.2772532 C153.436271,36.5494511 159.991683,34.6910569 159.991683,34.6910569" id="Fill-56" fill="#6D89CF"></path>
            <path d="M165.252549,76.3170732 C151.337613,70.5583938 159.282596,49.2601626 159.282596,49.2601626 C161.22887,49.4102911 163.136034,50.4386714 164.887911,52.020025 C165.292809,59.395088 164.769432,69.2310075 165.165128,71.5267227 C165.467652,73.2882305 165.492958,74.9158738 165.252549,76.3170732" id="Fill-57" fill="#6D89CF"></path>
            <path d="M150.310226,83.0419151 L149.682927,85.2808997 L152.863015,88.5262527 C153.663897,87.0150799 153.898559,85.5668108 153.567001,84.1814454 C152.51761,83.9107589 151.432019,83.5309155 150.310226,83.0419151 Z" id="Path-8" fill="#EE9E71"></path>
            <path d="M158.073171,45 C151.780488,43.8617653 153.878049,56.1886179 153.878049,67.4 C152.618837,71.5409214 151.220463,76.8536466 149.682927,83.3381755 C150.410897,84.2911285 151.809271,84.7676049 153.878049,84.7676049 C155.932435,79.7208223 159.470004,73.0737433 160.287078,69 C161.104151,64.9262567 164.365854,46.1382347 158.073171,45 Z" id="Path-6" fill="#93B3F4"></path>
            <path d="M215.446223,67.9927947 C215.001983,76.6786705 214.597489,81.8771051 214.232741,83.5880985 C213.685619,86.1545885 214.971163,88.5129226 216.188286,88.5129226 C216.959396,88.5129226 216.255145,87.2675635 215.950604,85.7354599 C215.774456,84.8492854 215.952596,83.905424 216.056681,82.9521897 C216.723347,80.9521897 217.853195,76.3186126 219.446223,69.0514583 L215.446223,67.9927947 Z" id="Path-11" fill="#FFCBAF" transform="translate(216.774632, 78.252859) rotate(-8.000000) translate(-216.774632, -78.252859) "></path>
            <path d="M215.015202,90 L220.441329,90 C220.986332,89.9999649 221.43098,90.4363613 221.441189,90.9812684 C221.533884,95.9291764 220.356067,98.4031305 217.907737,98.4031305 C215.467691,98.4031305 214.170344,95.9458897 214.015697,91.0314082 C213.998371,90.4794196 214.431764,90.0178645 214.983751,90.0004947 C214.994232,90.0001649 215.004717,90 215.015202,90 Z" id="Path-14" fill="#FCF3DB"></path>
            <path d="M215.953419,90.5731505 C215.606961,87.7475445 215.730676,86.2627993 216.324565,86.1189149 C217.215399,85.9030884 217.908818,86.0731373 218.39884,87.0605266 C218.725521,87.7187862 219.02506,88.8896608 219.297457,90.5731505" id="Path-15" stroke="#FCF3DB"></path>
        </g>
    </g>
</svg>