<?xml version="1.0" encoding="UTF-8"?>
<svg width="360px" height="180px" viewBox="0 0 360 180" version="1.1" xmlns="http://www.w3.org/2000/svg" xmlns:xlink="http://www.w3.org/1999/xlink">
    <!-- Generator: Sketch 55.2 (78181) - https://sketchapp.com -->
    <title>img_ok</title>
    <desc>Created with Sketch.</desc>
    <g id="img_ok" stroke="none" stroke-width="1" fill="none" fill-rule="evenodd">
        <g transform="translate(0.000000, 14.000000)">
            <path d="M355.779996,85.98597 C355.779996,85.98597 357.926858,88.0683283 357.508412,89.5479329 C357.088725,91.0275375 355.150465,92.0135075 354.888471,93.8217687 C354.627719,95.63003 353.579743,96.616 352.636067,96.616 C351.693634,96.616 348.142434,96.616 348.142434,96.616 C348.142434,96.616 347.448336,95.3442416 349.124602,94.9610253 C350.799625,94.57651 351.43164,92.4525824 351.327339,90.4793433 C351.223038,88.5061042 351.485032,85.8768508 351.485032,85.8768508 L355.046165,85 L355.779996,85.98597" id="Fill-9" fill="#0B0B36" transform="translate(352.781250, 90.808000) rotate(-117.000000) translate(-352.781250, -90.808000) "></path>
            <g id="Group-46" transform="translate(272.000000, 67.000000)">
                <path d="M39,21.682692 L14.0171338,38.7793109 L31.7501976,49.6796873 C31.2551547,50.4933633 30.7696318,51.312582 30.2975491,52.1390064 C29.3830637,53.741416 28.5021786,55.3648881 27.6453736,57 C18.2821188,54.9857639 3.16987037,50.2062487 0.329533756,40.0158989 C-3.84137065,25.0443712 32.9586847,0 32.9586847,0 L39,21.682692" id="Fill-96" fill="#0B0B36"></path>
                <path d="M47.680626,7 L57.6708552,35.538733 L72.9731095,21.4393461 C73.6326412,22.1315252 74.299439,22.8170165 74.9779742,23.4908044 C76.2931252,24.7965818 77.6373403,26.0756084 79,27.3345718 C74.5576625,35.7789337 65.9010288,49 55.2406484,49 C39.580123,49 25,7 25,7 L47.680626,7" id="Fill-105" fill="#100C57"></path>
            </g>
            <path d="M307.184321,127.311565 C307.166901,127.320117 307.146992,127.327448 307.12335,127.336 L295,127.336 C295.114477,126.912059 295.510169,126.141146 296.897579,125.920012 C298.778981,125.619466 302.039083,124.546785 302.765763,122.183955 C302.789405,122.108208 302.809314,122.030017 302.827978,121.951826 C303.40534,119.426505 307.604899,122.725182 307.604899,122.725182 C307.604899,122.725182 307.617342,122.825364 307.634763,122.996407 C307.733063,123.92248 307.981926,126.919389 307.184321,127.311565" id="Fill-10" fill="#0B0B36" transform="translate(301.375000, 124.168000) rotate(-67.000000) translate(-301.375000, -124.168000) "></path>
            <g id="Group-48" transform="translate(309.518088, 40.028588) rotate(28.000000) translate(-309.518088, -40.028588) translate(303.518088, 32.528588)">
                <path d="M3.50032753,13.9719002 C3.21966715,13.3129021 2.11998821,9.37854464 1.91575767,8.84536446 C1.24292453,7.06788688 0.982311321,6.02689203 0.982311321,6.02689203 L5.57436616,-1.74971149e-13 C5.78987323,1.04402357 6.09559257,1.97144159 6.45769458,2.79588326 C8.32709316,7.03987126 11.6875,8.49390724 11.6875,8.49390724 C11.6875,8.49390724 1.86397729,15.4776767 3.50032753,13.9719002 Z" id="Fill-4" fill="#EE9E71"></path>
                <path d="M2.11762105,9.38701343 C1.46480355,7.62978585 1.0625,6.71763714 1.0625,6.71763714 L3.71753432,3.168 C5.42069508,3.17249132 6.375,3.5234378 6.375,3.5234378 C6.375,3.5234378 5.86068455,7.53409586 2.11762105,9.38701343 Z" id="Fill-5" fill="#DE8C5D"></path>
            </g>
            <g id="Group-47" transform="translate(307.080588, 30.080588) rotate(18.000000) translate(-307.080588, -30.080588) translate(299.080588, 22.080588)">
                <path d="M7.48703506,15.8333758 C7.48703506,15.8333758 14.6918288,14.4212158 13.7228412,10.0502558 C12.7538536,5.67953345 13.0310545,2.55358367 8.39036982,3.27053373 C3.74846929,3.98736499 3.22810957,5.84383203 3.18798838,7.37954262 C3.14786718,8.91537201 5.58796523,16.088199 7.48703506,15.8333758" id="Fill-6" fill="#EE9E71"></path>
                <path d="M15.3508713,2.37261788 C15.4157749,2.28253582 15.5742895,2.20250584 15.9375,2.15611164 C15.9375,2.15611164 15.6342005,1.9859996 15.2447789,2.0030108 C15.1336939,1.47824092 14.8029351,0.558604906 13.9179995,0.391585809 C13.9179995,0.391585809 14.4022802,0.620077213 14.5008838,1.17951386 C13.4212373,0.164640878 11.2095223,-0.473923648 5.26210581,0.44017084 C-2.57625214,1.6448734 0.368124679,6.7544206 1.43029707,7.31372838 C2.49246946,7.87290728 4.94757298,5.96352847 6.85848476,5.98852978 C8.77064469,6.0135311 9.32107715,8.86883597 9.99133165,9.21898326 C10.6628343,9.56900168 10.3632792,8.88790914 11.2082742,8.41301302 C12.0545173,7.93837465 12.2367466,9.4487634 12.0495247,10.4521667 C11.8623028,11.4556989 13.1466452,12.672 13.1466452,12.672 C13.1466452,12.672 13.1466452,12.672 14.2687286,11.2187019 C15.3895638,9.76566151 16.150933,3.88996576 15.519371,2.69325331 C15.4632045,2.58757764 15.408286,2.48035551 15.3508713,2.37261788" id="Fill-7" fill="#0B0754"></path>
            </g>
            <path d="M320,74 L297,74 C297.056692,73.1224454 297.107715,72.2337118 297.158738,71.3505677 C297.175746,71.0375546 297.198422,70.730131 297.21543,70.4227074 C297.260784,69.5619214 297.311807,68.7011354 297.36283,67.8403493 C297.379837,67.5273362 297.396845,67.2255022 297.413853,66.9180786 C297.50456,65.4480349 297.589598,63.9891703 297.697313,62.5526638 C297.697313,62.5191266 297.702982,62.48 297.702982,62.4464629 C297.725659,62.1334498 297.748336,61.8204367 297.771013,61.5186026 C297.856051,60.3559825 297.946759,59.2157205 298.060143,58.1034061 C298.088489,57.790393 298.116835,57.4773799 298.15085,57.1755459 C298.179196,56.9016594 298.207543,56.6221834 298.241558,56.3538865 C298.332265,55.5769432 298.422973,54.8167686 298.525018,54.0733624 C298.570372,53.7603493 298.615726,53.4529258 298.666749,53.1455022 C298.859502,51.8822707 299.080601,50.6749345 299.335716,49.551441 C299.409416,49.2328384 299.483116,48.9254148 299.556815,48.6235808 C299.823268,47.6118777 300.112398,46.6728384 300.446882,45.8176419 C300.571605,45.4934498 300.701997,45.1804367 300.843727,44.8786026 C301.382302,43.7048035 302.011585,42.7322271 302.748583,42 L313.979295,42 C314.965738,42.5421834 315.787774,43.3414847 316.456741,44.3531878 C316.649495,44.6382533 316.83091,44.9344978 316.995317,45.25869 C317.465861,46.1362445 317.845699,47.131179 318.168844,48.2323144 C318.253882,48.528559 318.33892,48.8415721 318.41262,49.1545852 C318.645058,50.0880349 318.837811,51.0829694 318.99088,52.1282096 C319.036234,52.4300437 319.081587,52.7374672 319.121272,53.0504803 C319.263002,54.1572052 319.376386,55.3198253 319.455755,56.5215721 C319.478432,56.7563319 319.489771,56.9910917 319.506778,57.231441 C319.529455,57.5332751 319.552132,57.8462882 319.563471,58.1593013 C319.631501,59.2995633 319.671186,60.4677729 319.705201,61.6527511 C319.722209,61.9545852 319.722209,62.2675983 319.733547,62.5806114 C319.739216,62.8433188 319.744885,63.1116157 319.750555,63.3799127 C319.778901,64.5928384 319.801578,65.8169432 319.824254,67.041048 C319.829924,67.3484716 319.835593,67.6614847 319.841262,67.9689083 C319.85827,68.88 319.869608,69.7855022 319.892285,70.6854148 C319.903623,70.9984279 319.909293,71.3058515 319.914962,71.6188646 C319.943308,72.4181659 319.971654,73.2118777 320,74" id="Fill-102" fill="#498C9E"></path>
            <g id="Group-49" transform="translate(334.500000, 23.000000) rotate(-10.000000) translate(-334.500000, -23.000000) translate(326.000000, 10.000000)" fill="#EE9E71">
                <polyline id="Fill-103" points="3.12055974 26 13 7.09570396 10.6603875 6 0 19.424642 3.12055974 26"></polyline>
                <path d="M10.5623598,6.20978861 L9,2.1135422 C9,2.1135422 9.56253234,1.53873482 10.3745041,2.97575327 C11.1875108,4.41277173 12,7 12,7 L10.5623598,6.20978861" id="Fill-107"></path>
                <path d="M12.8557933,7.73522664 L16.9661514,5.2527486 C16.9661514,5.2527486 17.2453282,4.35636163 16.2001459,4.70121369 C15.1555404,5.04606574 14.1795755,5.59760065 14.1795755,5.59760065 C14.1795755,5.59760065 17.3145455,2.35690484 16.8271399,2.01205279 C16.3391574,1.66720073 13.9707698,4.56361543 13.9707698,4.56361543 C13.9707698,4.56361543 15.8517518,0.288363452 15.294552,0.0125959967 C14.7373521,-0.263171459 12.7865759,4.08059417 12.7865759,4.08059417 C12.7865759,4.08059417 13.5525815,0.219278852 12.9255875,0.150194251 C12.2991703,0.0816805974 10,7.73522664 10,7.9419095 C10,8.1491633 12.8557933,7.73522664 12.8557933,7.73522664" id="Fill-108"></path>
            </g>
            <polyline id="Fill-104" fill="#EE9E71" points="288 29.7018342 282.184192 15.1327009 279 15 283.569645 35 288 29.7018342"></polyline>
            <path d="M281.597875,14.6264065 L284,11.2013242 C284,11.2013242 283.55591,10.5225818 282.449402,11.6576216 C281.342364,12.792091 280,15 280,15 L281.597875,14.6264065" id="Fill-109" fill="#EE9E71"></path>
            <path d="M279.335608,15.118839 L276.000858,11.7490317 C276.000858,11.7490317 275.939613,10.8081264 276.852104,11.3844955 C277.764595,11.9608646 278.56471,12.7238073 278.56471,12.7238073 C278.56471,12.7238073 276.325624,8.83561227 276.866151,8.60942759 C277.406116,8.38381698 278.996233,11.7599391 278.996233,11.7599391 C278.996233,11.7599391 278.180947,7.14554196 278.771482,7.00317191 C279.362578,6.86080186 280.228433,11.5584395 280.228433,11.5584395 C280.228433,11.5584395 280.375645,7.60422613 280.985284,7.68057781 C281.595484,7.75635542 282.043301,15.7721339 281.996665,15.9742075 C281.949468,16.1768552 279.335608,15.118839 279.335608,15.118839" id="Fill-110" fill="#EE9E71"></path>
            <g id="Group" transform="translate(91.000000, 20.000000)">
                <path d="M30,78 L41.9345146,78 C41.9345146,78 42.2205742,76.3781496 41.5969372,75.1469462 C40.9990591,73.9653296 40.0636036,73.4283411 40.2886552,72 C39.5294449,72.6966337 38.2943724,73.475509 36.5685248,73.2686958 C36.3570305,73.5746825 35.203302,75.2110462 34.498321,75.6633743 C33.717419,76.1640798 30.2399647,75.9850837 30,78" id="Fill-30" fill="#060632" transform="translate(36.000000, 75.000000) scale(-1, 1) rotate(-134.000000) translate(-36.000000, -75.000000) "></path>
                <path d="M15,72 L26.8742276,72 C26.8742276,72 27.3180105,70.4628859 26.5383554,69.4173418 C25.8490756,68.491132 26.1134569,67.9645281 26.6233351,67.1992555 C26.0864792,67.3777097 25.390455,67.5397416 24.6242887,67.5047077 C24.0321286,67.4773374 23.4062463,67.2594701 22.8585993,67 C22.3473722,67.4729582 20.1594821,69.4863149 19.4755978,69.8848259 C18.6986405,70.3380775 15.2387525,70.1760455 15,72" id="Fill-31" fill="#060632" transform="translate(21.000000, 69.500000) scale(-1, 1) rotate(-169.000000) translate(-21.000000, -69.500000) "></path>
                <path d="M45,49 C46,56.1113998 46,60.222995 45,61.3347856 C44,62.4465763 49.3823939,62.6683144 61.1471817,62 L62.3793654,49 L45,49 Z" id="Path-18" fill="#FFCBAF"></path>
                <path d="M63.5835673,62.3929111 C63.5835673,62.3929111 79.5154244,87.8720298 71.9724363,93.1852347 C64.4294482,98.4978831 37,76.091374 37,76.091374 L39.5145129,71.7020112 L55.7431993,79.3248212 L49.343472,62 L63.5835673,62.3929111" id="Fill-72" fill="#0B0754"></path>
                <path d="M41.4784987,99.9945644 C28.9123129,100.456058 21,71.3775021 21,71.3775021 L26.5850961,69.530971 L38.9186163,84.7630457 L41,64.377527 L58,63.0689461 C58,63.7611867 54.0441239,99.5330706 41.4784987,99.9945644 Z" id="Fill-87" fill="#0B0754"></path>
                <polygon id="Fill-89" fill="#0B0754" points="41.7173846 60.9037573 44.8824892 57 62.3793654 57.9292262 65.9775533 66.8310156 55.87175 68 41 64.377527"></polygon>
                <g id="Group-39">
                    <path d="M60,25.2564124 C59.9950397,25.2704286 59.9900794,25.2857425 59.983879,25.2997586 C58.9546131,28.2998606 56.8960813,32.254098 53.0902778,32.9068866 C51.9320437,33.1054485 50.6113591,32.9990297 49.1083829,32.4656378 C47.3846726,31.8543786 46.0429067,31.0367707 45,30.1054763 C46.4496528,26.854771 48.2105655,24.4105127 48.2924107,24.298124 C48.296131,24.29462 48.296131,24.2921542 48.296131,24.2921542 C48.296131,24.2921542 48.546627,24.2582819 48.9608135,24.2079276 C49.2224702,23.9329258 49.3253968,22.7054757 49.3576389,21.412617 C49.3973214,19.7615681 49.3241567,18.0017644 49.3241567,18.0017644 L54.6800595,17.0551561 L54.9987599,17 C54.9466766,18.7084112 55.094246,20.1653107 55.3348214,21.3119084 C55.5047123,22.1251039 55.7217262,22.7815262 55.9474206,23.2636553 C56.1111111,23.6182117 56.2822421,23.8767315 56.4422123,24.0348024 C56.8836806,24.3052619 57.3363095,24.3218736 57.827381,24.3004601 C58.3209325,24.278787 59.1381448,24.6186783 59.9813988,25.2423963 C59.9875992,25.2470683 59.9937996,25.2517404 60,25.2564124" id="Fill-25" fill="#FFCBAF" transform="translate(52.500000, 25.000000) scale(-1, 1) translate(-52.500000, -25.000000) "></path>
                    <path d="M57.9975088,24.9183584 C57.150505,24.2606936 56.328413,23.9625139 55.8339123,23.9251559 C55.3780249,23.8905347 54.8835241,23.8160924 54.4425839,23.6450394 C54.4214088,23.6230077 54.4002337,23.5985129 54.377813,23.5726497 C54.3666027,23.5597865 54.3566379,23.5455549 54.3454276,23.5318707 C54.3342173,23.5173654 54.3230069,23.5028601 54.3117966,23.4875337 C54.2993406,23.4722074 54.2881303,23.4557863 54.2769199,23.4396388 C54.2657096,23.4230809 54.2544992,23.4061124 54.2420433,23.3885966 C54.230833,23.3720387 54.2208682,23.3550702 54.2096579,23.3378281 C54.1972019,23.3174385 54.1835004,23.296228 54.1710445,23.2747437 C54.1610797,23.2580489 54.151115,23.2413541 54.1411502,23.2238383 C54.1274487,23.1992067 54.1125015,23.1732066 54.0988,23.1472065 C54.0900809,23.1299644 54.0801161,23.1136801 54.0713969,23.0957538 C54.0626778,23.0781011 54.052713,23.0586695 54.0427483,23.039922 C54.0103628,22.9742377 53.9779774,22.9055428 53.945592,22.8319215 L53.9443464,22.8319215 C53.7188939,22.3235518 53.500915,21.6314027 53.3302686,20.7739479 C51.4332291,20.1287357 49.0915127,19.7561137 47.854638,20.1818306 C47.854638,20.1818306 49.5150146,20.5840105 49.5847678,22.311236 C49.6570123,24.0879984 48.5608897,30.1161821 45.5465525,30.2038982 C43.5448832,30.2619194 47.4174345,32.5319988 51.0757437,33 C54.8984713,32.3116825 56.9661571,28.1422298 58,24.9788428 C58,24.9590006 57.9987544,24.9380637 57.9975088,24.9183584" id="Fill-26" fill="#F2A57C" transform="translate(51.500000, 26.500000) scale(-1, 1) translate(-51.500000, -26.500000) "></path>
                    <path d="M64.0622051,53.5568697 C64.0685599,54.3619437 60.3939847,53 57.8106051,53 C55.2424743,53 38.3493977,56.5298806 39.5621968,54 C39.5621968,54 41.697521,37.8009178 41.0166736,33.7804789 C40.992494,33.6337656 40.9734048,33.4919838 40.9606787,33.3477362 C40.6107104,29.5336823 44.1892952,26.5200175 42.766515,24.9594313 C42.766515,24.9594313 44.062034,24.3179611 47.2601077,24 C47.2601077,24 47.2601077,24.0023425 47.2562899,24.0056713 C47.1646618,24.1555901 44.6996125,28.1262205 44.8828687,29.165666 C45.06867,30.222372 51.9445922,30.0337406 52.6139861,29.4735175 C53.1484831,29.0221582 56.3414664,26.3276874 56.916687,24.4657841 C57.0032246,24.1834533 57.041403,24.0078905 57.041403,24.0078905 C57.041403,24.0078905 60.3769188,24.4548114 61.9804099,25.6507101 C61.9804099,25.6507101 60.8337865,26.9591712 60.094399,28.5442919 C60.0244053,28.6954436 59.9582295,28.8477049 59.8971441,29.0000895 C59.7660651,29.3245849 59.6604383,29.6557379 59.5853542,29.985658 C59.4873631,30.4245652 59.6069886,30.867171 59.8653288,31.3393661 C60.0994894,31.7708759 60.4532756,32.2307421 60.8605114,32.7288278 C60.992863,32.8915686 61.0679471,32.9186921 61.1455764,32.9507471 C61.2244784,32.9828021 61.3059255,33.0210216 61.4522759,33.2034886 C60.9215967,35.1600775 60.1147608,38.8870897 59.5013618,42.409443 C59.3473758,43.3020519 59.4046433,44.2131542 59.6617109,45.074941 C59.7635199,45.4176831 59.8958715,45.7542608 60.0587659,46.0772767 C61.0488579,48.0313999 61.9804099,50.6458027 62.5621968,51.7858128 L64.0622051,53.5568697 Z" id="Fill-27" fill="#ED6966" transform="translate(51.781098, 39.456545) scale(-1, 1) translate(-51.781098, -39.456545) "></path>
                    <path d="M47.0841152,7.73685619 C47.2611437,7.48759112 49.2709377,4.86578614 53.6445826,7.4169002 C53.6445826,7.4169002 51.3783577,6.33730348 50.4203212,7.01364357 C50.4203212,7.01364357 52.5889201,6.79749495 53.5183196,7.89186672 C54.4490209,8.98636585 53.8190077,11.4182606 53.3920567,12.0805899 C52.9664073,12.7426645 50.9240713,14.4552951 50.0649625,14.1693472 C49.7395425,14.0609545 49.428441,13.8392015 49.1668033,13.6056031 C49.1655016,14.0306402 49.1407697,14.4844631 49.0808924,14.9714025 C48.5328851,19.4762605 44.5679677,21.7191368 43.3652154,20.4385486 C42.5946208,19.6171329 41.3137676,21 41.3137676,21 L37,8.19322654 C37,8.19322654 44.7137559,3.57844729 47.0841152,7.73685619" id="Fill-28" fill="#0B0754" transform="translate(45.500000, 13.500000) scale(-1, 1) translate(-45.500000, -13.500000) "></path>
                    <path d="M57.8797218,13.8923215 C57.6027199,15.156159 56.9010687,16.6569019 56.2725879,18.4624573 C55.2390571,21.4289648 51.5844608,21.1747622 49.4207098,20.7324704 C49.4194032,20.7324704 49.4194032,20.7324704 49.4180965,20.7324704 C48.4485898,20.5337465 47.7782973,20.2979942 47.7782973,20.2979942 C45.9960773,19.5471743 47.7155799,12.060244 48.5714114,10.7456685 C49.4272428,9.42981172 50.8697435,8.0829484 55.2743356,9.83648449 C57.8287639,10.8531664 58.2599462,12.1469855 57.8797218,13.8923215" id="Fill-29" fill="#FFCBAF" transform="translate(52.500000, 15.000000) scale(-1, 1) translate(-52.500000, -15.000000) "></path>
                    <path d="M51.62348,14 C51.4268345,15.0987275 52.7077093,17.3773963 52.029637,18.7939275 C51.6146183,19.6609247 48.5349913,21.3847328 47,21 C50.1243493,20.4387178 49.354102,13.0936661 49.354102,13.0936661 C50.5779308,12.7239705 52.0053455,13.4791786 53.1701807,14.8209539" id="Fill-32" fill="#F2A57C" transform="translate(50.085090, 17.027576) scale(-1, 1) translate(-50.085090, -17.027576) "></path>
                    <path d="M53,53 C45.6079692,53.4392763 41,40.1284774 41,40.1284774 C41,40.1284774 48.4164524,33.3807061 51.281491,33 C51.4151671,33.161068 51.4910026,33.1879126 51.5694087,33.2196381 C51.6491003,33.2513636 51.7313625,33.2891902 51.8791774,33.4697815 C51.3431877,35.4062577 50.5282776,39.094958 49.9087404,42.5811031 C49.7532134,43.4645364 49.811054,44.366273 50.0706941,45.219201 C50.1735219,45.5584199 50.3071979,45.8915377 50.4717224,46.2112332 C51.4717224,48.1452689 52.9845758,51.4776674 53,53.9900835 L53,53 Z" id="Fill-33" fill="#E75755" transform="translate(47.000000, 43.495042) scale(-1, 1) translate(-47.000000, -43.495042) "></path>
                    <path d="M50.2748509,8.66470306 C54.9679736,7.87913051 56.4226536,11.7486612 56.4226536,11.7486612 C55.8061272,14.9708078 57.5079551,17.4792143 57.5079551,17.4792143 C57.5079551,17.4792143 55.9122396,17.82615 53.1385423,16.104335 C52.2909863,15.5783274 51.6865487,14.6851335 51.2540399,13.6988374 C51.7832587,16.05097 52.9518382,18 52.9518382,18 C49.8920404,15.2368683 50.151277,9.97793889 50.1888864,9.4248031 C49.6113126,9.65838612 48.5079551,9.65838612 47.6166683,10.3867396 C46.6170497,11.2036211 46.0598346,11.7486612 45.0696208,13.6988374 C44.7996387,13.4281675 45.2472726,9.88203485 47.6166683,8.4953108 C49.1962654,7.570913 49.9390522,8.12557715 50.2748509,8.66470306 Z" id="Fill-36" fill="#0B0754" transform="translate(51.253978, 13.000000) scale(-1, 1) translate(-51.253978, -13.000000) "></path>
                    <g id="Group-41" transform="translate(0.000000, 27.000000)" fill="#FFCBAF">
                        <path d="M40.1847688,0 L44,7 C39.7869658,10.0423938 28.2107817,19.3276243 25.2828543,19.94457 C22.3554837,20.5615158 20,15.8249103 20,15.8249103 L40.1847688,0 Z" id="Fill-69"></path>
                        <polygon id="Fill-78" points="7.45217995 26.5568697 7 24.4376583 21.1174548 15 25.1269768 20"></polygon>
                        <path d="M7.49230357,24.2714222 L4.14015877,22 C4.14015877,22 3.57386204,22.5682995 4.71786442,23.665828 C5.86134822,24.7627645 8,26 8,26 L7.49230357,24.2714222" id="Fill-81"></path>
                        <path d="M7.45217995,26.5568697 L4.68256203,29.9906 C4.68256203,29.9906 3.81899239,30.1412621 4.25691886,29.2362397 C4.69537939,28.3312174 5.31755542,27.5122877 5.31755542,27.5122877 C5.31755542,27.5122877 1.95406647,29.9795759 1.68970842,29.500817 C1.42481631,29.0210082 4.38135407,27.2072888 4.38135407,27.2072888 C4.38135407,27.2072888 0.199156236,28.4262342 0.00636177599,27.8918301 C-0.186432684,27.357426 4.06679468,26.0833603 4.06679468,26.0833603 C4.06679468,26.0833603 0.395155036,26.3416381 0.40263183,25.7678624 C0.40904051,25.1935616 7.77528424,23.9767161 7.96701059,24.000339 C8.15873694,24.0234371 7.45217995,26.5568697 7.45217995,26.5568697" id="Fill-82"></path>
                    </g>
                    <path d="M37,30.6092621 C38.5,32.3652071 43,35.0954079 45.0263466,36.4450748 C46.4785139,34.5719947 48.1947206,31.4941226 50,27.8189808 C48.924937,27.127663 42.9026691,23.9986812 40.2132139,23.9998981 L39,27.8189808 L37,30.6092621 Z" id="Fill-41" fill="#ED6966" transform="translate(43.500000, 30.222486) scale(-1, 1) translate(-43.500000, -30.222486) "></path>
                    <path d="M63.1908935,6.45950238 L59.1070569,8 C59.1070569,8 58.5478129,7.41662255 59.9857005,6.60561143 C61.4229989,5.79460032 64,5 64,5 L63.1908935,6.45950238" id="Fill-83" fill="#FFCBAF"></path>
                    <path d="M63.7727416,4.15934655 L61.331073,0.0373363158 C61.331073,0.0373363158 60.4305095,-0.253777433 60.7620229,0.789762207 C61.0935364,1.83330185 61.6354888,2.81036669 61.6354888,2.81036669 C61.6354888,2.81036669 58.4126015,-0.35463574 58.0568731,0.124441217 C57.7011448,0.602945116 60.5879063,3.00176825 60.5879063,3.00176825 C60.5879063,3.00176825 56.3007166,1.06540337 56.0135971,1.61496654 C55.7264777,2.16395664 60.0816997,4.17080772 60.0816997,4.17080772 C60.0816997,4.17080772 56.1952089,3.34846868 56.1156456,3.97023722 C56.0360824,4.59200576 63.7277711,6.99655948 63.9364805,7 C64.1451898,7.00286313 63.7727416,4.15934655 63.7727416,4.15934655" id="Fill-84" fill="#FFCBAF"></path>
                    <path d="M65.9081648,29.6957561 C74.7181923,21.2319187 79.4883836,16.3333333 80.2187389,15 C80.9490941,13.6666667 75.467095,10.0531155 63.7727416,4.15934655 L62.6995298,6.5 L74.4638022,15 L63.4112144,23.4234918 L65.9081648,29.6957561 Z" id="Path-17" fill="#FFCBAF"></path>
                    <path d="M58,24.43919 C60.8172607,23.3278607 62.9839047,22.6022984 64.4999319,22.2625029 C65.5522703,24.087501 66.3052033,27.1585015 66.7587309,31.4755045 L61.1869687,31.9869485 L58,24.43919 Z" id="Path-16" fill="#ED6966"></path>
                </g>
            </g>
            <g id="Group-45" transform="translate(237.500000, 39.000000) rotate(37.000000) translate(-237.500000, -39.000000) translate(228.000000, 27.000000)">
                <path d="M13.939518,24 C12.7463318,22.9806428 11.8012861,21.8142163 11.0489453,20.6743945 C10.9314745,20.4968038 10.8179635,20.318943 10.7110519,20.1435131 C10.0339451,19.0367786 9.53766415,17.9958135 9.18129218,17.191996 C9.12321675,17.0619429 9.06778111,16.9387773 9.01762505,16.8218241 C8.73912695,16.1970829 11.8276841,14.1964527 13.5725868,12.9290087 C14.6954416,14.3456322 15.5101945,15.5669398 16.1925808,16.332403 C17.9612417,18.3169623 19,19.0355632 19,19.0355632 L13.939518,24 Z" id="Fill-45" fill="#EE9E71"></path>
                <path d="M14,12 C14,12 13.1628112,17.3445526 10.5587134,19 C10.4606742,18.8260418 10.3659396,18.651819 10.2767129,18.4799773 C9.71161049,17.3958802 9.29742234,16.3762071 9,15.5888311 C9.3172505,14.7980157 11.487332,13.1343664 12.7772637,12.0358499 C13.5053977,12.0177265 14,12 14,12" id="Fill-46" fill="#DC8757"></path>
                <path d="M7.83666797,18.9753694 C7.83666797,18.9753694 15.4131389,16.6813253 13.7655634,12.4246177 C12.1166678,8.16779043 11.9846505,5.00471047 7.07756868,6.28928895 C2.17048688,7.57398714 1.86420682,9.4959464 2.03318892,11.0381589 C2.20217102,12.5803714 5.82340465,19.4625035 7.83666797,18.9753694" id="Fill-47" fill="#EE9E71"></path>
                <path d="M14.1244605,12.9998146 C14.1244605,12.9998146 13.3957566,12.5005098 14.9991547,9.88608588 C15.8251854,8.5381564 16.5626238,7.27075994 15.3922056,5.07781359 C14.2217874,2.88512494 14.2954064,1.1180372 11.0686458,1.11855261 C7.84313294,1.11919687 7.51870998,-0.424202355 5.87538293,0.113887073 C4.23080809,0.651847648 2.77090479,3.14553651 1.36465605,3.61365885 C-0.0428404681,4.0820389 -1.10969288,11.6949219 2.10958107,11.484763 C2.10958107,11.484763 3.31992825,10.8629192 3.86146504,9.85722284 C4.40175404,8.85139763 7.14687136,6.56000772 8.02031778,7.30709644 C8.89251642,8.05444287 12.3937888,13.0349914 14.1244605,12.9998146" id="Fill-48" fill="#060632"></path>
            </g>
            <g id="Group-44" transform="translate(194.000000, 39.000000)" fill="#EE9E71">
                <polyline id="Fill-44" points="20 13.2854299 6.57436543 5 4 6.69574661 19.7577792 20 20 13.2854299"></polyline>
                <path d="M6.98090704,4.58833432 L7,0.0163864764 C7,0.0163864764 6.35689337,-0.260959302 6.13150335,1.46636967 C5.90657902,3.19369864 6.03836698,6 6.03836698,6 L6.98090704,4.58833432" id="Fill-45"></path>
                <path d="M5.5001026,7 L1.09612376,6.32921677 C1.09612376,6.32921677 0.528710562,5.61010953 1.54206258,5.51633794 C2.55594737,5.42141579 3.58688121,5.54625281 3.58688121,5.54625281 C3.58688121,5.54625281 -0.270462952,3.78817943 0.0151083834,3.27617507 C0.301212501,2.76474601 3.38122722,4.50671138 3.38122722,4.50671138 C3.38122722,4.50671138 0.204778897,1.29604138 0.575062625,0.820280032 C0.945346353,0.345093969 4.20650707,3.59200697 4.20650707,3.59200697 C4.20650707,3.59200697 2.12812315,0.323233109 2.63426638,0.0114282097 C3.1404096,-0.300376689 7.92213113,5.87013871 7.998319,6.06170887 C8.07503966,6.25270376 5.5001026,7 5.5001026,7" id="Fill-46"></path>
            </g>
            <g id="Group-43" transform="translate(252.000000, 61.000000)" fill="#EE9E71">
                <polygon id="Fill-52" points="2.55522142 12.1049335 21 6.47273693 19.7596811 4 2.55522142 7.58003716 0.513563429 12.1049335"></polygon>
                <path d="M19,4.34224676 L20.2379273,0.000114391633 C20.2379273,0.000114391633 21.1583077,-0.0452217891 20.9761293,1.66920168 C20.7945835,3.38302862 19.8457378,6 19.8457378,6 L19,4.34224676" id="Fill-53"></path>
                <path d="M20.3223766,6.44481296 L25.0138431,7 C25.0138431,7 25.7848184,6.5135554 24.7694841,6.16669469 C23.7547155,5.81930922 22.6641503,5.66083428 22.6641503,5.66083428 C22.6641503,5.66083428 27.0801473,5.11456802 26.9206352,4.58876706 C26.7611231,4.0629661 23.1472118,4.79761814 23.1472118,4.79761814 C23.1472118,4.79761814 27.2441846,2.79306757 26.9885127,2.27723689 C26.7328408,1.76140621 22.5391426,3.77592705 22.5391426,3.77592705 C22.5391426,3.77592705 25.5257526,1.43448605 25.0873771,1.02780368 C24.6501328,0.620596545 18.1327615,4.8186082 18.0049256,4.96711286 C17.8759583,5.11561752 20.3223766,6.44481296 20.3223766,6.44481296" id="Fill-54"></path>
            </g>
            <path d="M79.6655048,132.973005 C79.6859993,132.982453 79.7094217,132.990552 79.7372358,133 L94,133 C93.8667852,132.531631 93.3998016,131.679928 91.7690185,131.43562 C89.5556038,131.103577 85.7201894,129.918481 84.8638087,127.308031 C84.8374586,127.224346 84.8125723,127.13796 84.7906138,127.051575 C84.1113649,124.261606 79.1721709,127.905978 79.1721709,127.905978 C79.1721709,127.905978 79.156068,128.016659 79.1355735,128.205626 C79.0199255,129.22875 78.7271458,132.539729 79.6655048,132.973005" id="Fill-86" fill="#0B0B36"></path>
            <path d="M5.05080868,78.1034444 C5.05080868,78.1034444 2.57975107,80.4339074 3.06253574,82.0898009 C3.54389205,83.7456945 5.77355732,84.8491389 6.07494064,86.8728472 C6.37632397,88.8965556 7.58042892,90 8.66598023,90 C9.75010319,90 13.8366326,90 13.8366326,90 C13.8366326,90 14.6336558,88.5767166 12.7068022,88.1478416 C10.7785202,87.7175129 10.0514865,85.3405278 10.1714685,83.1321852 C10.2928789,80.9238425 9.99149553,77.9813241 9.99149553,77.9813241 L5.8935393,77 L5.05080868,78.1034444" id="Fill-85" fill="#0B0B36" transform="translate(8.500000, 83.500000) rotate(115.000000) translate(-8.500000, -83.500000) "></path>
            <g id="Group-38" transform="translate(9.000000, 67.000000)" fill="#A83F3F">
                <path d="M74.9425622,60.5235906 C75.6293091,60.4737663 76.3149349,60.4060277 77,60.3338106 C76.931045,54.2446151 76.4876027,45.4850637 74.7424245,38.6731368 C71.7633443,27.0444922 53.6180883,0 53.6180883,0 C53.6180883,0 32.2229776,6.49058855 34.1189598,10.5470664 C55.2724477,27.1301451 64.8790565,49.9071061 68.5252623,61 C70.6600643,60.7889467 72.8083209,60.6814607 74.9425622,60.5235906" id="Fill-5"></path>
                <path d="M31.3196088,1 L21.3289241,29.5385544 L6.02738705,15.4389804 C5.36786213,16.1311686 4.70107126,16.8166691 4.02198416,17.4904659 C2.70684676,18.7962607 1.36320447,20.0753042 0,21.3342843 C4.44285049,29.7787582 13.0993945,43 23.7591057,43 C39.419469,43 54,1 54,1 L31.3196088,1" id="Fill-17"></path>
            </g>
            <g id="Group-40" transform="translate(53.000000, 25.000000) rotate(-40.000000) translate(-53.000000, -25.000000) translate(42.000000, 13.000000)">
                <path d="M0,17.3393884 C0,17.3393884 0.578799129,22.8903997 5.50774549,24 C5.50774549,24 7.72858789,22.5886147 8.76085008,21.1463121 C8.88759442,20.9684696 9.01152221,20.7971936 9.12981692,20.6345361 C10.3000896,19.0154855 11,18.1368068 11,18.1368068 C11,18.1368068 11,18.1355756 10.9971835,18.1332499 C10.8704391,17.9439161 6.71744975,11.8101287 6.5864806,12.0045242 C3.57982333,16.4869757 0,17.3393884 0,17.3393884" id="Fill-90" fill="#FCBF90"></path>
                <path d="M9.12981692,20.6345361 C10.154736,19.351155 10.6232121,18.4932275 11.2018802,17.8035977 C11.7805483,17.113968 10.989903,17.1875477 10.9874522,17.1849693 C10.8734904,17.0211642 6.608783,12.0496376 6.57202113,12.4991915 C6.44335458,14.0200002 7.11036479,17.7614256 9.12981692,20.6345361 Z" id="Fill-91" fill="#F0A76F"></path>
                <path d="M12.8128153,18.9605771 C12.8128153,18.9605771 5.4556654,15.9615043 7.29529661,11.153029 C9.13492782,6.34455375 9.42365918,2.71907113 14.1987258,4.43062875 C18.9737925,6.14189604 19.1786543,8.36358203 18.9339201,10.1262396 C18.6905608,11.8890423 14.7734387,19.6167468 12.8128153,18.9605771" id="Fill-92" fill="#FCBF90"></path>
                <path d="M7.1538512,12.4991177 C7.02705737,12.4951436 5.33506413,11.9462779 6.29165315,4.54858641 C6.44098811,3.38726955 7.3820801,1.3145618 9.43050488,0.353126848 C11.4803385,-0.608455293 15.7645612,0.543147136 18.9865333,2.01400131 C22.2099142,3.48500268 21.7985387,5.65117509 21.3674397,7.81646437 C20.9152083,10.0893484 22,13 22,13 C18.6005165,12.6800123 16.9803731,8.51089948 15.7321583,8.11614005 C14.4853523,7.72093907 13.0173615,9.15249393 12.5862625,9.63924613 C12.1551634,10.1261455 11.7423791,10.4919088 10.7674754,9.0865535 C9.79257171,7.68119819 8.9331913,10.581105 8.84161797,11.1867855 C8.84161797,11.1867855 8.21891938,12.5319407 7.1538512,12.4991177" id="Fill-95" fill="#A83F3F"></path>
            </g>
            <g id="Group-21" transform="translate(19.500000, 23.500000) rotate(-13.000000) translate(-19.500000, -23.500000) translate(6.000000, 4.000000)" fill="#FCBF90">
                <polyline id="Fill-15" points="22.1999669 39 7 10.6435559 10.5994038 9 27 29.136963 22.1999669 39"></polyline>
                <path d="M11.3952044,9.73566177 L14,3.18166752 C14,3.18166752 13.0624461,2.2619757 11.7082974,4.56120524 C10.3541487,6.86043477 9,11 9,11 L11.3952044,9.73566177" id="Fill-20"></path>
                <path d="M6.51222164,11.60284 L0.0529389562,7.87912289 C0.0529389562,7.87912289 -0.38487097,6.53454244 1.25759608,7.05182053 C2.8991567,7.56909861 4.43194466,8.39640098 4.43194466,8.39640098 C4.43194466,8.39640098 -0.494550062,3.53535726 0.272297139,3.01807918 C1.0382379,2.50080109 4.7600755,6.84542315 4.7600755,6.84542315 C4.7600755,6.84542315 1.80417866,0.432545178 2.67979852,0.0188939951 C3.55632481,-0.394757188 6.62099429,6.12089126 6.62099429,6.12089126 C6.62099429,6.12089126 5.41724361,0.328918277 6.40254255,0.225291376 C7.3878415,0.122520896 11,11.60284 11,11.9128642 C11,12.2237449 6.51222164,11.60284 6.51222164,11.60284" id="Fill-21"></path>
            </g>
            <g id="Group-37" transform="translate(82.000000, 23.000000) rotate(16.000000) translate(-82.000000, -23.000000) translate(73.000000, 2.000000)" fill="#FCBF90">
                <polyline id="Fill-16" points="0 34.0527514 9.04649682 12.1990514 14 12 6.89210191 42 0 34.0527514"></polyline>
                <path d="M8.60239044,11.4396098 L5,6.30198631 C5,6.30198631 5.66533865,5.28387276 7.32589641,6.9864324 C8.98565737,8.68813649 11,12 11,12 L8.60239044,11.4396098" id="Fill-22"></path>
                <path d="M12.9961695,12.6293051 L17.9986803,7.38738266 C17.9986803,7.38738266 18.0913974,5.92375218 16.7225554,6.82032631 C15.3528705,7.71690045 14.1534479,8.90370027 14.1534479,8.90370027 C14.1534479,8.90370027 17.5114939,2.85539687 16.7006404,2.50355403 C15.8906298,2.1526042 13.5052709,7.4043497 13.5052709,7.4043497 C13.5052709,7.4043497 14.729137,0.226398612 13.843267,0.00493408452 C12.956554,-0.216530443 11.6568284,7.09090596 11.6568284,7.09090596 C11.6568284,7.09090596 11.4359931,0.939907311 10.521465,1.05867659 C9.60609404,1.17655287 8.93431627,13.6455416 9.00511844,13.9598783 C9.07507774,14.2751081 12.9961695,12.6293051 12.9961695,12.6293051" id="Fill-23"></path>
            </g>
            <g id="Group-42" transform="translate(179.000000, 76.000000)" fill="#0B0754">
                <path d="M67.3828629,64.6053447 C66.8888642,65.0797401 66.3843076,65.5423875 65.8753056,66 C61.4376528,61.8686205 55.2840631,55.6695931 51.4287619,49.8123766 C44.8478551,39.8131514 37,8.25634863 37,8.25634863 C37,8.25634863 56.0025561,-3.22927811 57.7284952,0.893150578 C55.8747499,27.6646019 66.2570571,50.0411829 72,60.1746709 C70.4252056,61.6135211 68.9176484,63.1306912 67.3828629,64.6053447" id="Fill-39"></path>
                <path d="M61.1773387,13.9710141 C59.6726682,21.5795698 49.6743232,22.6558856 42.7618941,22.3258379 L12.5348984,19.989033 L19.3539843,39.8273748 C18.4535296,40.1529166 17.5564285,40.4936655 16.6677116,40.8434259 C14.9417003,41.5294293 13.226309,42.2554215 11.5243322,43 C5.54645319,35.4787436 -3.132231,22.1315266 1.14087654,12.2892354 C7.41611241,-2.16696412 51.8514003,1.38583546 51.8514003,1.38583546 L54.5667379,1.60267564 L55.9635327,1.71250378 L61.6636178,2.16082789 C61.6636178,2.16082789 62.6808912,6.36245834 61.1773387,13.9710141" id="Fill-59"></path>
            </g>
            <path d="M199.953849,122.516368 C199.885224,123.204112 199.718373,123.786143 199.375251,123.931955 C199.316046,123.957472 199.216474,123.980558 199.081916,124 L187.487098,124 C187.17627,123.991494 187,123.986634 187,123.986634 C187,123.986634 187.029603,122.692557 189.00087,122.441032 C190.59403,122.239326 193.16946,121.554012 194.435646,120.063089 C194.73571,119.709496 194.963112,119.310944 195.085559,118.863789 C195.723361,116.525944 199.89868,119.674258 199.89868,119.674258 C199.89868,119.674258 199.947121,120.081315 199.975378,120.646335 C200.00498,121.197989 200.018436,121.900314 199.953849,122.516368" id="Fill-50" fill="#060632" transform="translate(193.500000, 121.000000) rotate(-36.000000) translate(-193.500000, -121.000000) "></path>
            <path d="M252.471343,146 L240,146 C240.139337,145.702301 240.648505,144.826217 241.94942,144.516368 C242.074433,144.48356 242.20726,144.460473 242.347899,144.441032 C243.693091,144.264843 245.761013,143.721695 247.08016,142.596516 C247.633602,142.126274 248.054219,141.553964 248.236529,140.863789 C248.853781,138.525944 252.895866,141.674258 252.895866,141.674258 C252.895866,141.674258 252.937537,142.047293 252.96879,142.57829 C253.033901,143.72534 253.049528,145.607524 252.471343,146" id="Fill-51" fill="#060632" transform="translate(246.500000, 143.000000) rotate(-55.000000) translate(-246.500000, -143.000000) "></path>
            <path d="M39,69 L48.7884545,72 L65.5,69 C64.616432,64.8437516 64.2830986,61.5997147 64.5,59.2678891 C65.1015554,52.8007913 66.5187524,45.6455024 64.5,40.3694101 C63.1877847,36.9398815 60.992238,34.6426044 58.4250203,33.3360499 C55.4908398,36.2473296 49.7154258,35.0769004 47.4188788,33.045102 C44.1672822,34.3663286 41.3796852,36.8947956 40,40.3694101 C38.7051669,43.6303321 39.781881,49.9671578 40,58.0517321 C40.1454127,63.4414483 39.8120793,67.0908709 39,69 Z" id="Path-12" fill="#6D89CF"></path>
            <path d="M39.5421388,50.0324859 L25.4135935,37 C28.2228536,32.7772689 30.9428252,29.6592308 33.5735082,27.6458858 C37.2110592,29.6458858 41.8532231,32.4305905 47.5,36 L39.5421388,50.0324859 Z" id="Path-13" fill="#6D89CF"></path>
            <path d="M74.2702243,51.022551 L60.3465719,39.5 C62.1006092,34.513345 64.2929694,31.013345 66.9236525,29 C70.5612035,31 74.3945368,33.3333333 78.4236525,36 L74.2702243,51.022551 Z" id="Path-13" fill="#6D89CF" transform="translate(69.385112, 40.011275) scale(-1, 1) translate(-69.385112, -40.011275) "></path>
            <path d="M247.859829,59.0698328 C247.852546,58.7428658 244.973362,56.7547947 244.949831,56.4451542 C244.877558,55.3016081 244.721248,54.2486067 244.454006,53.2922981 C244.364366,52.9440922 244.254556,52.6126539 244.12962,52.2935118 C243.695423,51.1639386 243.077463,50.2132192 242.239324,49.4754475 L236.102103,49.8039839 L231.395613,47.1145782 C231.381047,47.1268744 231.361438,47.1346992 231.345751,47.1520257 C231.337347,47.1570559 231.328943,47.1648808 231.319979,47.17047 L231.349672,47 C230.493044,47.0245924 229.729419,47.5348845 229.080645,48.0938024 C227.073816,49.8225356 225.681586,52.1504288 224.531385,54.5336548 C223.860761,55.9242427 223.200782,57.4221427 221.927326,58.2985261 C221.787262,58.3946599 221.629831,58.496383 221.582209,58.6590281 C221.542431,58.7942863 221.588372,58.9384871 221.638795,59.0698328 C222.017526,60.0524105 219.245391,76.3208349 219,77.1648009 C221.078155,79.706229 224.919172,81.5137393 230.523051,82.5873318 C234.983623,83.4418893 238.475939,83.8356223 241,83.7685308 C241.135581,82.997783 246.963124,69.0524667 247.859829,59.0698328 Z" id="Fill-48" fill="#93B3F4"></path>
            <path d="M230.766071,48.1204995 C227.521298,47.4977941 224.98132,47.6510961 223.146139,48.5804056 C221.310958,49.5097151 218.262925,50.727626 214.002041,52.2341383 L202.5099,44.3512685 L200.174464,47.052217 C207.053858,55.0460586 211.660222,59.3700966 213.993555,60.0243309 C216.326889,60.6785651 220.417022,60.1022397 226.263955,58.2953545 L230.766071,48.1204995 Z" id="Path-19" fill="#93B3F4" transform="translate(215.470267, 52.318235) rotate(-2.000000) translate(-215.470267, -52.318235) "></path>
            <path d="M242.239324,49.4754475 C245.254981,49.5716283 247.567967,51.0484294 249.178283,53.9058507 C250.788598,56.763272 252.72917,61.4613218 255,68 L270,65 C271.030858,65.9024858 271.697525,67.0447739 272,68.4268644 C268.557323,70.5 255.226922,74.8079311 252.347911,74.2022275 C250.42857,73.798425 247.172379,69.7310159 242.579337,62 L242.239324,49.4754475 Z" id="Path-20" fill="#93B3F4"></path>
            <polygon id="Path-21" fill="#6D89CF" points="232 46 229.890959 47.7448411 234.098535 51.7854747 236.115706 49.8976946"></polygon>
            <polygon id="Path-22" fill="#6D89CF" points="236.102103 49.8004449 237.545431 52.2941455 242.579337 49.3138224 241.170315 47.3138224"></polygon>
            <path d="M233.5,83.0972719 C235.311418,77.6577359 240.688908,67.9625078 246.186545,67.9625078 C245.37906,71.0804991 243.650212,76.3516155 241,83.7758567 C237.860687,83.7069396 235.360687,83.4807447 233.5,83.0972719 Z" id="Path-23" fill="#6D89CF"></path>
            <path d="M304.272635,42 C298.045843,38.1968119 294.360373,35.8634786 293.216224,35 C292.072075,34.1365214 288.833333,27.8031881 283.5,16 L279,18 C281.267773,28.5904288 282.934439,35.2164984 284,37.8782086 C285.065561,40.5399188 290.632016,45.3452311 300.699366,52.2941455 L304.272635,42 Z" id="Path-24" fill="#498C9E"></path>
            <path d="M338.272635,43 C332.045843,39.1968119 328.360373,36.8634786 327.216224,36 C326.072075,35.1365214 322.833333,28.8031881 317.5,17 L313,19 C315.267773,29.5904288 316.934439,36.2164984 318,38.8782086 C319.065561,41.5399188 324.632016,46.3452311 334.699366,53.2941455 L338.272635,43 Z" id="Path-24" fill="#498C9E" transform="translate(325.636318, 35.147073) scale(-1, 1) translate(-325.636318, -35.147073) "></path>
        </g>
    </g>
</svg>