<?xml version="1.0" encoding="UTF-8"?>
<svg width="280px" height="120px" viewBox="0 0 280 120" version="1.1" xmlns="http://www.w3.org/2000/svg" xmlns:xlink="http://www.w3.org/1999/xlink">
    <!-- Generator: Sketch 55.2 (78181) - https://sketchapp.com -->
    <title>img_atm_320</title>
    <desc>Created with Sketch.</desc>
    <g id="img_atm_320" stroke="none" stroke-width="1" fill="none" fill-rule="evenodd">
        <g id="Group-35" transform="translate(29.000000, 11.000000)">
            <g id="Group-34" transform="translate(176.000000, 3.000000)">
                <g id="Group-32" transform="translate(3.826936, 45.333333)">
                    <path d="M4.35598476,0 C3.26273887,0.212387828 1.24744473,1.78813857 0.782233712,3.08750689 C0.317022693,4.38594776 0.782233712,5.66583947 0.782233712,5.66583947 C0.782233712,5.66583947 1.40189479,6.68326064 0.782233712,10.0944503 C0.161642212,13.5056399 -0.613399345,18.8579987 0.782233712,21.2053943 C2.17786677,23.5527899 5.3710752,24.6666667 5.3710752,24.6666667 C5.3710752,24.6666667 7.91857074,22.6040006 9.21371822,18.6159322 C9.9431691,16.370557 7.09793851,7.38534617 7.09793851,5.61204692 C7.09793851,3.83874768 4.35598476,0 4.35598476,0" id="Fill-287" fill="#372D27" transform="translate(4.666667, 12.333333) scale(-1, 1) translate(-4.666667, -12.333333) "></path>
                    <path d="M2.33520737,3.11416831 C2.42077276,4.43933252 3.35384304,4.89977874 4.45804411,5.13000185 C5.56122655,5.36022496 7.77777778,5.13000185 7.77777778,5.13000185 L5.05496462,0.747474747 C5.05496462,0.747474747 2.2506606,1.78900409 2.33520737,3.11416831" id="Fill-288" fill="#473831" transform="translate(5.055556, 2.989899) scale(-1, 1) translate(-5.055556, -2.989899) "></path>
                    <path d="M1.81712627,15.6969697 C1.81712627,15.6969697 0.993370584,17.7799141 2.26956101,19.6403824 C3.5466527,21.5008506 6.16122079,21.2163293 6.99489039,19.6226552 C7.82765871,18.0289811 7.77718791,16.2039672 7.77718791,16.2039672 C7.77718791,16.2039672 4.89584554,18.4615245 1.81712627,15.6969697" id="Fill-299" fill="#473831" transform="translate(4.666667, 18.313131) scale(-1, 1) translate(-4.666667, -18.313131) "></path>
                    <path d="M0.889109786,14.9494949 C0.889109786,14.9494949 2.47658493,15.9015411 4.80262867,16.0840368 C7.12867241,16.2665325 7.77777778,15.622145 7.77777778,15.622145 L7.42588911,16.8640848 C7.42588911,16.8640848 5.62072012,17.4802097 3.54616744,17.023163 C1.47161476,16.5661162 0.777777778,15.9201137 0.777777778,15.9201137 L0.889109786,14.9494949" id="Fill-300" fill="#FFFFFE" transform="translate(4.277778, 16.070707) scale(-1, 1) translate(-4.277778, -16.070707) "></path>
                    <path d="M5.77504762,6.04339733 C3.94813282,5.52536057 3.94813282,2.98989899 3.94813282,2.98989899 C3.94813282,2.98989899 3.27353512,5.37396251 3.13649238,6.97002645 C3.00041474,8.5660904 3.42215893,10.1220247 4.14597621,10.3983718 C4.86979348,10.6756309 6.13695625,10.0463257 7.0412453,9.1926595 C7.94649944,8.33808126 9.33333333,6.04339733 9.33333333,6.04339733 C9.33333333,6.04339733 7.54598721,6.54592946 5.77504762,6.04339733" id="Fill-301" fill="#231C18" transform="translate(6.222222, 6.727273) scale(-1, 1) translate(-6.222222, -6.727273) "></path>
                </g>
                <g id="Group-31" transform="translate(26.826936, 47.000000) scale(-1, 1) translate(-26.826936, -47.000000) translate(7.826936, 0.000000)">
                    <path d="M33.44,43.4380984 C33.44,43.4380984 34.366577,45.7895793 34.613201,46.1108461 C34.8606934,46.4321128 36.0998924,47.2520623 36.1971526,47.197399 C36.2944128,47.1417767 36.3274118,47.0286141 36.2032314,46.8137969 C36.0799194,46.5989797 35.5519355,45.9890524 35.654406,45.9708313 C35.7568766,45.9535692 37.3972738,47.6136073 37.7646047,47.3470038 C38.132804,47.0804004 38.0807003,45.4826976 37.5257962,44.5486265 C36.9700237,43.6135964 34.8459307,42.6162309 34.7330394,42.4752571 C33.7752003,41.2736235 33.44,43.4380984 33.44,43.4380984" id="Fill-83" fill="#FCBF90"></path>
                    <path d="M30.9254354,47.1938323 C30.9254354,47.1938323 31.8351422,49.563853 32.0783601,49.88723 C32.3224385,50.210604 33.5473501,51.033792 33.6439126,50.9782793 C33.7404784,50.9217987 33.7735774,50.8074707 33.6513009,50.591099 C33.5298848,50.3747243 33.0089157,49.7610011 33.110511,49.7422502 C33.2121029,49.7244672 34.831542,51.3941202 35.1964517,51.1237511 C35.5622219,50.853379 35.5162828,49.2410457 34.9697942,48.3002681 C34.4224485,47.3585256 32.3213927,46.359393 32.2100389,46.2175097 C31.2652643,45.0081078 30.9254354,47.1938323 30.9254354,47.1938323" id="Fill-83" fill="#FCBF90" transform="translate(33.179165, 48.503079) scale(-1, 1) rotate(69.000000) translate(-33.179165, -48.503079) "></path>
                    <path d="M24.7890726,14.2958473 C24.7890726,14.2958473 26.1751588,25.1580277 27.5437113,30.2566228 C27.5437113,30.2566228 35.7411839,41.9369906 35.72,42.5326553 C35.72,42.5326553 34.8072829,44.229425 32.6700155,43.3759766 C32.6700155,43.3759766 22.9092739,36.1064736 21.665303,33.9641062 C20.4204094,31.8217387 17.4110704,20.7663125 17.4812052,19.4599932 C17.5522629,18.1535817 22.2651406,11.2738847 24.7890726,14.2958473" id="Fill-84" fill="#3662C1"></path>
                    <path d="M20.9583458,93.9825996 C20.9718449,93.9886897 20.9872724,93.9939098 21.0055926,94 L30.4,94 C30.3122559,93.6981026 30.0046693,93.149119 28.9305269,92.9916451 C27.4726244,92.7776198 24.9463648,92.013741 24.3822954,90.3311195 C24.3649394,90.2771782 24.3485476,90.2214968 24.3340843,90.1658154 C23.8866857,88.3674811 20.6334033,90.716539 20.6334033,90.716539 C20.6334033,90.716539 20.6227968,90.7878808 20.6092977,90.9096838 C20.5331242,91.56916 20.34028,93.7033227 20.9583458,93.9825996" id="Fill-86" fill="#0B0B36"></path>
                    <path d="M12.5983458,93.9825996 C12.6118449,93.9886897 12.6272724,93.9939098 12.6455926,94 L22.04,94 C21.9522559,93.6981026 21.6446693,93.149119 20.5705269,92.9916451 C19.1126244,92.7776198 16.5863648,92.013741 16.0222954,90.3311195 C16.0049394,90.2771782 15.9885476,90.2214968 15.9740843,90.1658154 C15.5266857,88.3674811 12.2734033,90.716539 12.2734033,90.716539 C12.2734033,90.716539 12.2627968,90.7878808 12.2492977,90.9096838 C12.1731242,91.56916 11.98028,93.7033227 12.5983458,93.9825996" id="Fill-86" fill="#0B0B36"></path>
                    <path d="M28.12,43.685414 C28.12,43.685414 27.6571536,49.6133163 27.1140084,56.7390368 C26.3750782,66.4189284 25.4863771,78.3090358 25.3988603,80.5618982 C25.2472849,84.4733495 24.6373743,90.7303736 24.6373743,90.7303736 C24.6373743,90.7303736 23.1919944,92.2165212 20.2985279,91.5897989 C20.2985279,91.5897989 17.7208436,82.6580801 16.9846201,73.2081102 C16.9728911,73.0532838 16.961162,72.8975304 16.9503352,72.7417769 C16.2655391,63.1212199 15.2,42.864 15.2,42.864 L28.12,43.685414" id="Fill-87" fill="#A83F3F"></path>
                    <path d="M28.12,42.1946212 C28.12,42.1946212 27.6571536,48.2178356 27.1140084,55.4581275 L16.9846201,72.192 C16.9728911,72.0346843 16.961162,71.8764265 16.9503352,71.7181688 C16.2655391,61.942927 15.2,41.36 15.2,41.36 L28.12,42.1946212" id="Fill-88" fill="#9E332E"></path>
                    <path d="M17.3950057,76.6767414 C11.7930504,86.7394389 11.1034189,88.818189 10.4755607,89.9528888 C9.00231188,90.0787055 6.38131555,89.4252177 5.85542898,88.8009606 C5.67253951,90.2975975 8.36630642,67.9430681 12.2328817,63.222395 C14.4185871,60.5546309 16.9733454,52.538672 17.0865008,49.7336956 C17.2006099,46.9287215 17.8504741,41.3780084 17.8504741,41.3780084 L31.9183946,45.2701331 C31.9183946,45.2701331 22.996961,66.6140438 17.3950057,76.6767414 Z" id="Fill-89" fill="#A83F3F" transform="translate(18.882524, 65.673293) rotate(-14.000000) translate(-18.882524, -65.673293) "></path>
                    <path d="M21.28,11.9526184 C21.28,11.9526184 21.6798976,15.7791155 25.0853514,16.544 C25.0853514,16.544 26.6197516,15.571085 27.332951,14.5768578 C27.4205198,14.454265 27.5061426,14.3361988 27.5878735,14.2240736 C28.3964256,13.108008 28.88,12.5023055 28.88,12.5023055 C28.88,12.5023055 28.88,12.5014568 28.878054,12.4998536 C28.7904852,12.3693395 25.9211471,8.14111539 25.8306593,8.2751187 C23.7533325,11.3650219 21.28,11.9526184 21.28,11.9526184" id="Fill-90" fill="#FCBF90"></path>
                    <path d="M25.8551352,9.04122756 C25.7573486,10.0419197 26.108449,12.3974933 27.6432326,14.288 C28.4171435,13.1068699 28.88,12.4658561 28.88,12.4658561 C28.88,12.4658561 28.88,12.4649579 28.8781374,12.4632613 C28.7915264,12.3554776 25.8830742,8.74542109 25.8551352,9.04122756" id="Fill-91" fill="#F0A76F"></path>
                    <path d="M29.8895947,12.7583068 C29.8895947,12.7583068 24.7641136,10.803711 26.0457233,7.66986743 C27.327333,4.53602383 27.5284826,2.17317596 30.8551123,3.28865511 C34.1817421,4.40394504 34.3244625,5.85189186 34.1539643,7.00067455 C33.984424,8.14955186 31.2554956,13.1859544 29.8895947,12.7583068" id="Fill-92" fill="#FCBF90"></path>
                    <path d="M12.7170751,43.5299681 C15.2108918,45.6307652 29.6708927,45.5658971 29.0382736,43.8292877 C28.739354,43.0100973 28.1979147,41.4069306 27.931895,39.0744621 C27.6921953,36.9810786 27.6752754,34.2983228 28.2543146,31.0660422 C28.3962544,30.2727991 28.5739142,29.4471219 28.7938739,28.5890107 C29.0890335,27.4287999 29.3108732,26.2426419 29.452813,25.079651 C29.499813,24.6969297 29.5374129,24.3179152 29.5674929,23.9426074 C29.7949726,21.0255854 29.493233,18.3702595 28.5767342,16.8195432 C27.182716,14.4626102 22.8342818,11.28 22.8342818,11.28 C22.8342818,11.28 13.8046537,13.397292 11.7122165,29.8113095 C11.7122165,29.8113095 10.547558,41.7016168 12.7170751,43.5299681" id="Fill-93" fill="#6D89CF"></path>
                    <path d="M25.847311,8.67631063 C25.7629932,8.673552 24.6378176,8.29255474 25.2739493,3.15741875 C25.3732571,2.35128618 25.9990833,0.91250813 27.3612857,0.24512436 C28.7244251,-0.422361582 31.5734332,0.377027674 33.7160446,1.39802676 C35.859593,2.41912801 35.5860282,3.92278492 35.2993474,5.42582881 C34.9986135,7.00356 35.72,9.024 35.72,9.024 C33.4593435,8.80187931 32.3819481,5.90787361 31.5518853,5.63384984 C30.7227593,5.35951955 29.7465454,6.35323886 29.4598645,6.69111978 C29.1731837,7.02910286 28.8986821,7.28299886 28.2503711,6.30746606 C27.6020602,5.33193326 27.0305722,7.34491475 26.969676,7.76535017 C26.969676,7.76535017 26.5555814,8.69909486 25.847311,8.67631063" id="Fill-95" fill="#A83F3F"></path>
                    <path d="M18.1311171,21.1381794 C20.5963569,20.3713711 23.0171023,24.9708261 25.3933531,34.9365442 L33.1795971,45.5440955 C32.9676211,46.8201514 32.2688151,47.4581794 31.0831791,47.4581794 C27.6733531,45.2021794 22.7333531,39.5621794 20.8333531,37.3061794 C18.9333531,35.0501794 14.4332574,22.2883918 18.1311171,21.1381794 Z" id="Path-7" fill="#6D89CF"></path>
                </g>
                <path d="M7.8269364,48.4244355 C6.50551112,47.108285 5.25071497,46.9828471 4.06254794,48.0481218 C2.28029739,49.6460339 -0.188557899,54.8217673 0.669319057,61.219099 C1.52719601,67.6164308 2.55679255,69.1207875 4.06254794,69.8743126 C5.06638486,70.3766627 6.07022178,69.3731597 7.07405871,66.8638036 L6.32118101,65.6206943 C5.66466363,66.7003096 4.94435987,67.2401172 4.16026973,67.2401172 C2.98413453,67.2401172 2.05969018,63.0189042 2.05969018,60.8427854 C2.05969018,58.6666667 3.30967025,51.029285 4.81542563,49.5387034 C5.81926255,48.5449824 6.82309948,48.8007491 7.8269364,50.3060036 L7.8269364,48.4244355 Z" id="Path-9" stroke="#231C18" fill="#231C18"></path>
            </g>
            <polygon id="Fill-309" fill="#91993B" transform="translate(9.000000, 46.000000) scale(-1, 1) translate(-9.000000, -46.000000) " points="0 92 18 92 18 0 0 0"></polygon>
            <polygon id="Fill-310" fill="#AAB647" transform="translate(26.500000, 46.000000) scale(-1, 1) translate(-26.500000, -46.000000) " points="10 92 43 92 43 0 10 0"></polygon>
            <polygon id="Fill-311" fill="#91993B" transform="translate(26.500000, 28.500000) scale(-1, 1) translate(-26.500000, -28.500000) " points="13 45 40 45 40 12 13 12"></polygon>
            <polyline id="Fill-312" fill="#372D27" transform="translate(26.500000, 28.500000) scale(-1, 1) translate(-26.500000, -28.500000) " points="19.0107258 12 19.0107258 39.4328758 13 45 40 45 40 12 19.0107258 12"></polyline>
            <polygon id="Fill-313" fill="#231C18" transform="translate(22.000000, 22.000000) scale(-1, 1) translate(-22.000000, -22.000000) " points="13 29 31 29 31 15 13 15"></polygon>
            <path d="M32.2058041,16 L29,16 L29,17 L32.2058041,17 C32.6430472,17 33,16.7748022 33,16.4996957 C33,16.2251978 32.6430472,16 32.2058041,16" id="Fill-314" fill="#FFFFFE" transform="translate(31.000000, 16.500000) scale(-1, 1) translate(-31.000000, -16.500000) "></path>
            <path d="M32.2058041,19 L29,19 L29,20 L32.2058041,20 C32.6430472,20 33,19.7748022 33,19.5003043 C33,19.2251978 32.6430472,19 32.2058041,19" id="Fill-315" fill="#FFFFFE" transform="translate(31.000000, 19.500000) scale(-1, 1) translate(-31.000000, -19.500000) "></path>
            <g id="Group-27" transform="translate(27.000000, 9.000000)">
                <path d="M2.98771151,19.3368099 L4.96394784,19.3332005 C5.51623167,19.3321918 5.96476388,19.7790886 5.96577258,20.3313724 C5.96577479,20.3325867 5.9657748,20.3338011 5.96577259,20.3350154 L5.95851238,24.331675 C5.9575117,24.8825367 5.51120214,25.3288507 4.96034044,25.3298568 L2.98410411,25.3334662 C2.43182028,25.3344749 1.98328807,24.8875781 1.98227937,24.3352942 C1.98227715,24.3340799 1.98227715,24.3328656 1.98227935,24.3316513 L1.98953956,20.3349917 C1.99054024,19.78413 2.43684981,19.337816 2.98771151,19.3368099 Z" id="Rectangle" fill="#8AD7D8" transform="translate(3.974026, 22.333333) rotate(-17.000000) translate(-3.974026, -22.333333) "></path>
                <path d="M33.4066558,11.2946048 C33.4066558,11.2946048 28.7991914,15.6953289 25.6655844,15.4803742 C25.6655844,15.4803742 26.3303141,13.7273367 27.4141305,12.7234856 C27.2282385,12.2841536 27.0697324,11.8843631 26.9344629,11.5289096 C26.4888201,10.3439246 26.3162062,9.64992802 26.3162062,9.64992802 L29.3576971,5.632 C29.5004355,6.32801571 29.7029249,6.94629439 29.9427587,7.49592218 C31.1809318,10.3252475 33.4066558,11.2946048 33.4066558,11.2946048" id="Fill-4" fill="#EE9E71"></path>
                <path d="M27.0899916,11.9085067 C26.6761735,10.9260493 26.3693182,10.1104248 26.3693182,10.1104248 L28.1278474,7.744 C29.2559149,7.74699421 29.887987,7.98095853 29.887987,7.98095853 C29.887987,7.98095853 29.5691636,10.6732283 27.0899916,11.9085067 Z" id="Fill-5" fill="#DE8C5D"></path>
                <path d="M29.8286026,6.70017056 C29.1868056,3.78635563 29.3704063,1.70238911 26.296706,2.18035582 C23.2222004,2.65824333 22.8775466,3.89588802 22.8509728,4.91969508 C22.824399,5.94358134 24.4405679,10.725466 25.6983934,10.5555839 C25.6983934,10.5555839 30.4703996,9.61414388 29.8286026,6.70017056 Z" id="Fill-6" fill="#EE9E71"></path>
                <path d="M30.9069083,1.58174525 C30.9498964,1.52169055 31.0548865,1.46833722 31.2954545,1.43740776 C31.2954545,1.43740776 31.0945679,1.32399973 30.8366393,1.33534054 C30.7630635,0.985493949 30.5439895,0.372403271 29.9578633,0.261057206 C29.9578633,0.261057206 30.2786207,0.413384809 30.3439295,0.786342577 C29.628839,0.109760586 28.1639369,-0.315949099 24.2247389,0.293447227 C19.0330992,1.09658227 20.9832709,4.50294707 21.6867877,4.87581892 C22.3903044,5.24860486 24.016412,3.97568565 25.2820808,3.99235319 C26.5485764,4.00902073 26.9131485,5.91255732 27.3570833,6.14598884 C27.8018448,6.37933445 27.6034382,5.92527276 28.1631102,5.60867535 C28.7236088,5.29224976 28.8443062,6.2991756 28.7203021,6.96811114 C28.5962979,7.63713259 29.4469663,8.448 29.4469663,8.448 C29.4469663,8.448 29.4469663,8.448 30.1901644,7.47913459 C30.9325358,6.51044101 31.4368193,2.5933105 31.018512,1.7955022 C30.9813107,1.72505176 30.9449362,1.65357034 30.9069083,1.58174525" id="Fill-7" fill="#0B0754"></path>
                <path d="M49.8193807,80.9133134 C49.8193807,80.9133134 51.2413279,82.3015522 50.9641756,83.2879553 C50.686201,84.2743583 49.4024187,84.9316717 49.2288902,86.1371792 C49.056184,87.3426866 48.3620698,88 47.7370381,88 C47.1128287,88 44.7607356,88 44.7607356,88 C44.7607356,88 44.3010083,87.152161 45.4112621,86.8966835 C46.5206934,86.64034 46.9393002,85.2243883 46.8702177,83.9088955 C46.8011353,82.5934028 46.9746638,80.8405672 46.9746638,80.8405672 L49.3333362,80.256 L49.8193807,80.9133134" id="Fill-9" fill="#0B0B36"></path>
                <path d="M32.3282515,87.2797102 C32.3167134,87.2854117 32.3035269,87.2902986 32.2878679,87.296 L24.2581169,87.296 C24.3339392,87.0133726 24.5960208,86.4994306 25.5149546,86.3520082 C26.7610784,86.1516441 28.9203669,85.4365235 29.4016739,83.8613034 C29.4173329,83.8108051 29.4305194,83.7586778 29.4428817,83.7065506 C29.82529,82.0230035 32.6068162,84.2221216 32.6068162,84.2221216 C32.6068162,84.2221216 32.6150578,84.2889096 32.626596,84.402938 C32.6917043,85.02032 32.8565355,87.0182595 32.3282515,87.2797102" id="Fill-10" fill="#0B0B36"></path>
                <path d="M25.6655844,42.2694918 C25.6655844,42.2694918 26.0681954,47.5628854 26.5423642,53.9258855 C27.1855982,62.5696644 27.9601526,73.1870827 28.0364285,75.198804 C28.1693216,78.6915828 28.7001076,84.2788698 28.7001076,84.2788698 C28.7001076,84.2788698 29.9598397,85.6059436 32.481663,85.0463043 C32.481663,85.0463043 34.7282638,77.0706156 35.3707115,68.6321482 C35.3801477,68.493894 35.3903702,68.3548121 35.4005928,68.2157301 C35.9974321,59.6249348 36.9253247,41.536 36.9253247,41.536 L25.6655844,42.2694918" id="Fill-11" fill="#100C57"></path>
                <path d="M25.6655844,41.575233 C25.6655844,41.575233 26.0681954,46.9389258 26.5423642,53.3864301 L35.3707115,68.288 C35.3801477,68.1479098 35.3903702,68.0069808 35.4005928,67.8660517 C35.9974321,59.1611659 36.9253247,40.832 36.9253247,40.832 L25.6655844,41.575233" id="Fill-12" fill="#0B0B36"></path>
                <path d="M27.0730519,42.8637373 C27.0730519,42.8637373 34.7550046,61.9379702 39.805901,70.902209 C44.8567974,79.8664478 46.4350986,82.368 46.4350986,82.368 C46.4350986,82.368 49.3289279,81.2214209 49.5925325,80.4397373 C49.5925325,80.4397373 47.6608182,63.1339708 44.2780315,58.9158447 C42.3662747,56.5320804 40.1218939,49.3783164 40.0162857,46.8767642 C39.9106776,44.3752119 39.3327433,39.424 39.3327433,39.424 L27.0730519,42.8637373" id="Fill-13" fill="#100C57"></path>
                <path d="M44.5573892,38.3050007 C44.5573892,38.3050007 44.2987577,41.3331465 44.4002144,41.8224249 C44.5025028,42.312544 45.4555309,43.9392686 45.5969051,43.9426314 C45.7382792,43.9459941 45.839736,43.8484747 45.8189456,43.5466689 C45.7973237,43.2457039 45.5370289,42.280598 45.6634341,42.3259949 C45.7898392,42.3722326 46.7303931,45.1246339 47.2983846,45.0767148 C47.866376,45.0287958 48.6996519,43.3297723 48.5890474,42.0098975 C48.4784429,40.6900228 46.6172938,38.3260178 46.5682287,38.1074398 C46.1482643,36.2570931 44.5573892,38.3050007 44.5573892,38.3050007" id="Fill-14" fill="#EE9E71"></path>
                <path d="M2.83555821,22.3213327 C2.83555821,22.3213327 2.56625243,25.338772 2.66653387,25.8258595 C2.76764743,26.3137818 3.71912951,27.9312405 3.86103514,27.9341355 C4.00294078,27.9370304 4.10509846,27.8395561 4.08519341,27.5389673 C4.06445086,27.2392186 3.80624361,26.278628 3.9329884,26.3234452 C4.0597305,26.3690999 4.99509128,29.107986 5.56541445,29.0584216 C6.13573762,29.0088572 6.97764201,27.3136261 6.87083351,25.9991367 C6.76402501,24.6846474 4.90329625,22.3356403 4.8547418,22.1180531 C4.439083,20.2761088 2.83555821,22.3213327 2.83555821,22.3213327" id="Fill-14" fill="#EE9E71" transform="translate(4.762121, 25.204034) rotate(130.000000) translate(-4.762121, -25.204034) "></path>
                <path d="M45.5892108,38.4669487 C44.6307529,38.7812981 44.4757826,38.7139375 44.4757826,38.7139375 C44.4757826,38.7139375 39.7053914,30.3462559 39.2236358,29.5803411 C38.741038,28.8152579 29.1842532,20.2454114 29.1842532,20.2454114 L31.522284,11.264 C31.522284,11.264 42.4333746,24.9189054 43.6167079,26.8825913 C45.5723662,30.1267103 46.7775974,37.6960443 46.7775974,37.6960443 C46.7775974,37.6960443 46.3421645,38.2191283 45.5892108,38.4669487" id="Fill-15" fill="#ED6966"></path>
                <path d="M41.2263517,40.8629295 C40.9803271,41.9236198 40.6408131,42.7383167 40.1799269,43.1077238 C37.6122496,45.1532217 26.3459608,44.3810525 25.1740634,42.9100952 C24.7550014,42.3839194 24.6672527,40.8554247 25.0231683,39.1626563 C25.1059966,38.7657313 25.1814442,38.3404546 25.2519712,37.8901615 C25.279854,37.7058749 25.3069167,37.516585 25.3315192,37.3239597 C25.6415103,34.9198951 25.6931754,31.8170424 25.0207081,28.0362485 C24.9665826,27.7293821 24.9075367,27.4200141 24.8435703,27.1056429 C24.7582818,26.6870371 24.6820141,26.2650958 24.6147674,25.8423207 C24.4269686,24.6552148 24.3121571,23.4619382 24.2736132,22.3109391 C24.1702829,19.3118206 24.5819641,16.6014733 25.5611422,15.0527154 C25.5652426,15.0437095 25.5701631,15.0377056 25.5759037,15.0316183 C28.7537221,14.5925826 31.3665039,9.856 31.3665039,9.856 C31.3665039,9.856 40.3373827,14.5572263 41.7643256,29.0886 C41.7643256,29.0886 41.847974,30.6612902 41.8512544,32.7618239 C41.8569949,35.3093152 41.7454638,38.6314773 41.2263517,40.8629295" id="Fill-16" fill="#ED6966"></path>
                <path d="M25.4758884,36.2666667 C25.6463012,33.8701224 25.5490794,31.005939 24.9355466,27.3014566 C24.8852121,26.997539 24.8159318,26.70662 24.7483234,26.4031648 C24.6581789,25.9990945 24.577569,25.5918044 24.5064935,25.1837095 C26.0866224,22.2335936 28.4780517,19.6114829 31.5438338,18.6666667 C31.5438338,18.6666667 31.4202241,34.0273765 25.4758884,36.2666667 Z" id="Fill-17" fill="#E75755"></path>
                <path d="M18.9624868,25.5536905 C14.2942994,24.646372 8.88783937,24.6740902 7.89799605,24.8786088 C7.36678468,25.6864419 7.1254178,26.2986158 7.1071224,27.3467639 C7.84716416,27.7907812 9.3769367,28.2767465 12.9518101,29.4547539 C15.1075613,30.1651261 16.6894501,30.4047231 17.6714028,30.660448 C17.8732258,30.7529447 18.1508461,30.7850937 18.4910819,30.7657465 C18.6929157,30.7633099 18.8873374,30.7407612 19.0694047,30.6940784 C23.0740267,29.9784046 32.5558816,24.4681407 33.4722494,21.9006564 C34.5336539,18.9259887 34.2713693,14.4180595 30.1406631,15.4970682 C30.1406631,15.4970682 24.4662184,19.5518367 18.9624868,25.5536905 Z" id="Fill-19" fill="#ED6966" transform="translate(20.554527, 23.052414) rotate(-1.000000) translate(-20.554527, -23.052414) "></path>
            </g>
            <path d="M32.2058041,22 L29,22 L29,23 L32.2058041,23 C32.6430472,23 33,22.7752741 33,22.5 C33,22.225335 32.6430472,22 32.2058041,22" id="Fill-316" fill="#FFFFFE" transform="translate(31.000000, 22.500000) scale(-1, 1) translate(-31.000000, -22.500000) "></path>
            <path d="M32.2058041,25 L29,25 L29,26 L32.2058041,26 C32.6430472,26 33,25.7752741 33,25.5 C33,25.225335 32.6430472,25 32.2058041,25" id="Fill-317" fill="#FFFFFE" transform="translate(31.000000, 25.500000) scale(-1, 1) translate(-31.000000, -25.500000) "></path>
            <polygon id="Fill-318" fill="#878A38" transform="translate(24.000000, 36.000000) scale(-1, 1) translate(-24.000000, -36.000000) " points="13 39 35 39 35 33 13 33"></polygon>
            <path d="M33,35.5 C33,36.3285078 32.3285078,37 31.5,37 C30.6714922,37 30,36.3285078 30,35.5 C30,34.6723274 30.6714922,34 31.5,34 C32.3285078,34 33,34.6723274 33,35.5" id="Fill-319" fill="#FFFFFE" transform="translate(31.500000, 35.500000) scale(-1, 1) translate(-31.500000, -35.500000) "></path>
            <polygon id="Fill-320" fill="#372D27" transform="translate(17.500000, 35.000000) scale(-1, 1) translate(-17.500000, -35.000000) " points="13 37 22 37 22 33 13 33"></polygon>
            <polygon id="Fill-321" fill="#878A38" transform="translate(18.000000, 35.500000) scale(-1, 1) translate(-18.000000, -35.500000) " points="14 36 22 36 22 35 14 35"></polygon>
            <polygon id="Fill-322" fill="#E05957" transform="translate(27.000000, 35.500000) scale(-1, 1) translate(-27.000000, -35.500000) " points="24 37 30 37 30 34 24 34"></polygon>
            <polygon id="Fill-323" fill="#FFFFFE" transform="translate(21.500000, 31.500000) scale(-1, 1) translate(-21.500000, -31.500000) " points="19 32 24 32 24 31 19 31"></polygon>
            <polygon id="Fill-324" fill="#91993B" transform="translate(26.500000, 49.000000) scale(-1, 1) translate(-26.500000, -49.000000) " points="13 52 40 52 40 46 13 46"></polygon>
            <polygon id="Fill-325" fill="#372D27" transform="translate(27.500000, 49.000000) scale(-1, 1) translate(-27.500000, -49.000000) " points="19 51 36 51 36 47 19 47"></polygon>
            <polygon id="Fill-326" fill="#FFFFFE" transform="translate(27.000000, 48.500000) scale(-1, 1) translate(-27.000000, -48.500000) " points="20 49 34 49 34 48 20 48"></polygon>
            <path d="M26.4357507,58.6016325 C26.4357507,58.6016325 25.09201,58.9650677 25.0011124,61.1947914 C24.9402282,62.6878223 27.3987505,64.4976311 27.3987505,64.4976311 L26.0850232,65.0427839 C26.0850232,65.0427839 27.3387238,65.800759 28.6198652,65.9595572 C29.545134,66.0741539 30.9634792,65.9088073 30.9634792,65.9088073 C30.9634792,65.9088073 31.2816208,62.2589034 30.0399255,60.9410417 C29.4233655,61.8962867 28.7630718,63.1052816 28.7630718,63.1052816 C28.7630718,63.1052816 27.2521139,60.9279449 27.3155707,59.71895 C27.3987505,58.1416087 28.295721,58 28.295721,58 L26.4357507,58.6016325" id="Fill-330" fill="#AAB647" transform="translate(28.000000, 62.000000) scale(-1, 1) translate(-28.000000, -62.000000) "></path>
            <polygon id="Fill-331" fill="#FFFFFE" transform="translate(26.500000, 72.500000) scale(-1, 1) translate(-26.500000, -72.500000) " points="17 73 36 73 36 72 17 72"></polygon>
            <polygon id="Fill-332" fill="#FFFFFE" transform="translate(26.500000, 75.500000) scale(-1, 1) translate(-26.500000, -75.500000) " points="17 76 36 76 36 75 17 75"></polygon>
            <polygon id="Fill-333" fill="#FFFFFE" transform="translate(26.500000, 6.000000) scale(-1, 1) translate(-26.500000, -6.000000) " points="13 9 40 9 40 3 13 3"></polygon>
            <g id="Group-30" transform="translate(138.000000, 14.000000)">
                <path d="M8.99911429,17.4509589 C8.99911429,17.4509589 5.70299666,19.5751714 5.28493648,31.3121873 C5.28493648,31.3121873 6.49321238,32.592583 8.72860476,29.5954652 C10.9639971,26.5983474 11.8911071,16.8 11.8911071,16.8 L8.99911429,17.4509589" id="Fill-21" fill="#FFCBAF"></path>
                <path d="M5.28493648,81.4427319 L6.65103923,81.984 C6.65103923,81.984 12.5835827,73.2297572 13.314307,65.5272873 C13.4448214,64.1529153 13.4010561,62.8201153 13.1189262,61.590414 C13.1189262,61.590414 13.1767589,61.237883 13.2783569,60.6143022 C13.3252483,60.3241293 13.3830811,59.9740926 13.448729,59.573338 C13.6417653,58.3976803 13.9074832,56.7888419 14.2107142,54.9571773 C14.9086146,50.7417712 15.812837,45.3532017 16.5154265,41.3913852 L16.147329,41.2658376 L12.1654677,39.8989485 L11.3425237,37.1177782 L8.37742423,36.288 C8.37742423,36.288 7.71469246,37.6665293 7.12229779,44.1783755 C7.01366605,45.0322655 6.91441259,45.9742882 6.83938635,46.9961293 C6.60883697,50.1140332 6.59164346,53.9818969 7.12151627,58.4035004 C7.25750132,59.5350917 7.42943645,60.7040978 7.64201079,61.9046987 C7.79831546,62.7843633 7.82176116,63.9841328 7.7561132,65.3618306 C7.45678977,71.6575022 5.28493648,81.4427319 5.28493648,81.4427319" id="Fill-22" fill="#0B0754"></path>
                <path d="M6.95774202,47.4053033 L12.9793298,60.48 C13.0305528,60.1834132 13.0937279,59.8256395 13.1654401,59.4160268 C13.3763083,58.2143829 13.6665721,56.5699835 13.9978144,54.6978325 C14.7601839,50.3892509 15.7479347,44.881575 16.5154265,40.8321881 L16.1133257,40.7038655 L11.7636364,39.3067633 L10.8646722,36.4641192 L7.62566904,35.616 C7.62566904,35.616 7.91390532,37.8694859 7.26678766,44.5252672 C7.18767653,45.1071098 7.08466132,46.0671218 6.95774202,47.4053033 Z" id="Fill-23" fill="#060632"></path>
                <path d="M9.24863884,37.6008352 L9.40277583,36.2425508 C11.9819477,36.9478617 18.8713062,34.272 18.8713062,34.272 C18.8713062,34.272 21.3697781,36.5324843 21.0413291,41.9514989 C20.8815431,44.5966227 20.5894091,55.8350759 20.2835562,59.160588 C20.1729972,60.3660135 20.0769642,61.2241834 20.0374212,61.5664544 C20.0366142,61.5681159 20.0366142,61.5689467 20.0366142,61.5697774 C20.0245092,61.6744526 20.0600172,61.7733124 20.1116652,61.8646955 C20.5611641,62.6497589 20.9331911,63.4680525 21.2390441,64.3046228 C24.2362419,72.5282662 20.7766331,82.656 20.7766331,82.656 L19.8792492,82.282991 C19.8792492,82.282991 17.9101693,71.0129691 16.3106954,66.0334239 C16.0395434,65.1893768 15.7788824,64.5256036 15.5408174,64.1293335 C14.8451835,62.9737533 14.1995835,61.0854473 13.6137016,58.8399166 C12.5064976,54.593928 11.6155697,49.071069 11.0224247,44.8076345 C10.9409177,44.8117883 9.24863884,37.6008352 9.24863884,37.6008352" id="Fill-24" fill="#0B0754"></path>
                <path d="M19.1578947,17.6443092 C19.1546179,17.653728 19.151341,17.664019 19.1472449,17.6734378 C18.4672943,19.6895063 17.1073931,22.3467539 14.5932144,22.7854278 C13.8280651,22.9188614 12.9555984,22.8473479 11.9627067,22.4889086 C10.8239943,22.0781424 9.93760083,21.5287099 9.24863884,20.9028801 C10.2063042,18.7184061 11.3695932,17.0758645 11.4236615,17.0003394 C11.4261192,16.9979846 11.4261192,16.9963276 11.4261192,16.9963276 C11.4261192,16.9963276 11.5916011,16.9735654 11.8652198,16.9397274 C12.0380747,16.7549262 12.1060698,15.9300797 12.1273694,15.0612786 C12.1535844,13.9517738 12.1052506,12.7691857 12.1052506,12.7691857 L15.6434513,12.1330649 L15.8539902,12.096 C15.8195831,13.2440523 15.91707,14.2230888 16.0759982,14.9936025 C16.188231,15.5400698 16.3315941,15.9811856 16.4806917,16.3051764 C16.5888284,16.5434382 16.7018804,16.7171636 16.8075595,16.8233872 C17.0992009,17.005136 17.3982154,17.0162991 17.7226255,17.0019092 C18.0486741,16.9873448 18.5885385,17.2157518 19.1456065,17.6348903 C19.1497026,17.6380299 19.1537986,17.6411695 19.1578947,17.6443092" id="Fill-25" fill="#FFCBAF"></path>
                <path d="M21.800363,36.9176105 C21.8044322,37.4586203 21.7102728,37.9432921 21.4748742,38.3252301 C20.9796965,39.9366605 6.49764075,38.2531507 7.29883657,36.553071 C7.29883657,36.553071 8.01680218,26.0742168 7.56702279,23.3724818 C7.55104931,23.2738905 7.53843867,23.1786131 7.53003158,23.0816787 C7.29883657,20.5186345 9.66291069,18.4934518 8.72299786,17.4447378 C8.72299786,17.4447378 9.57883978,17.0136699 11.6915419,16.8 C11.6915419,16.8 11.6915419,16.8015741 11.6890197,16.8038111 C11.6284887,16.9045566 10.0000351,19.5728201 10.1210972,20.2713276 C10.2438407,20.981434 14.7861922,20.8546737 15.2284053,20.4782038 C15.5815031,20.1748903 17.6908423,18.3642059 18.0708429,17.1130069 C18.1280111,16.9232806 18.1532324,16.8053024 18.1532324,16.8053024 C18.1532324,16.8053024 20.3567311,17.1056332 21.4160246,17.9092772 C21.4160246,17.9092772 20.6585456,18.7885631 20.1700936,19.8537641 C20.1238546,19.9553381 20.0801377,20.0576577 20.0397837,20.1600602 C19.9531907,20.3781211 19.8834118,20.6006559 19.83381,20.8223622 C19.7690754,21.1173078 19.848102,21.4147389 20.018766,21.732054 C20.1734565,22.0220286 20.4071736,22.3310587 20.6762005,22.6657723 C20.7636343,22.7751341 20.8132361,22.7933611 20.8645194,22.8149021 C20.9166433,22.836443 20.9704487,22.8621265 21.0671303,22.9847443 C20.7165546,24.2995721 20.183545,26.8041243 19.7783232,29.1711457 C19.6765974,29.7709789 19.7144293,30.3832396 19.8842525,30.9623603 C19.9515092,31.192683 20.038943,31.4188632 20.1465538,31.6359299 C20.8006255,32.9491007 21.7901402,35.2117312 21.800363,36.9176105" id="Fill-27" fill="#ED6966"></path>
                <g id="Group-33" transform="translate(16.256016, 8.193339) rotate(-21.000000) translate(-16.256016, -8.193339) translate(8.756016, 2.693339)">
                    <path d="M9.96482386,1.16716736 C10.0817719,0.999661229 11.4094761,-0.762191715 14.2987805,0.952156935 C14.2987805,0.952156935 12.8016737,0.226667937 12.1687784,0.681168477 C12.1687784,0.681168477 13.6013919,0.53591661 14.2153691,1.27133443 C14.8302062,2.00683785 14.4140087,3.64107115 14.1319576,4.08615643 C13.8507664,4.53107052 12.5015644,5.68195833 11.9340224,5.48980132 C11.7190444,5.4169614 11.5135254,5.26794343 11.3406831,5.11096527 C11.3398232,5.39659019 11.3234849,5.7015592 11.2839289,6.02878247 C10.921906,9.05604709 8.30261389,10.5632599 7.50805516,9.70270464 C6.99898724,9.1507133 6.15283379,10.08 6.15283379,10.08 L3.3030853,1.47384823 C3.3030853,1.47384823 8.39892404,-1.62728342 9.96482386,1.16716736" id="Fill-28" fill="#0B0754"></path>
                    <path d="M6.78624682,8.3747713 C6.10347873,10.3682643 4.07722551,10.8311096 3.03915717,10.7602578 C1.94946583,10.6302507 1.36266123,10.5920831 0.961548455,10.4354573 C-0.215816495,9.93090627 1.13334136,4.07248395 1.69871822,3.18908922 C2.26409508,2.30483347 3.21703563,1.39974132 6.12678434,2.57811758 C7.81428323,3.26132783 8.09912959,4.13077423 7.84794689,5.30364003 C7.66495468,6.15293883 7.20143197,7.1614381 6.78624682,8.3747713 Z" id="Fill-29" fill="#FFCBAF"></path>
                    <path d="M4.47032683,1.79068046 C7.57068377,1.2627757 8.5316702,3.86310033 8.5316702,3.86310033 C8.12438233,6.02838283 9.24863884,7.71403201 9.24863884,7.71403201 C9.24863884,7.71403201 8.19448198,7.94717283 6.36213021,6.7901131 C5.80222029,6.43663602 5.40291845,5.83640968 5.11719581,5.17361875 C5.46680675,6.75425187 6.23879031,8.064 6.23879031,8.064 C4.21743566,6.20717547 4.38869178,2.67317494 4.41353723,2.30146768 C4.03198214,2.45843547 3.28584417,2.62073594 2.69704494,3.11018948 C2.03667986,3.65913387 1.41660308,4.61508985 0.762450947,5.92560828 C0.959412397,4.07458506 1.39119452,2.93037248 2.71428607,1.67684886 C3.75779488,1.05565354 4.24849247,1.42838785 4.47032683,1.79068046 Z" id="Fill-36" fill="#0B0754"></path>
                </g>
                <path d="M14.5335753,84 L22.4177193,84 C22.4177193,84 22.6066951,82.9101165 22.1947099,82.0827478 C21.7997414,81.2887015 21.1817635,80.9278452 21.3304365,79.968 C20.8288892,80.4361379 20.0129792,80.959542 18.8728548,80.8205636 C18.7331381,81.0261867 17.9709654,82.125823 17.5052429,82.4297875 C16.9893657,82.7662616 14.6921001,82.6459762 14.5335753,84" id="Fill-30" fill="#060632"></path>
                <path d="M0,83.328 L7.84431731,83.328 C7.84431731,83.328 8.13748787,82.2950593 7.62243443,81.5924537 C7.16708442,80.9700407 7.34173922,80.6161629 7.67857347,80.1018997 C7.3239173,80.2218209 6.86411181,80.3307064 6.35796933,80.3071636 C5.96677823,80.2887707 5.55330972,80.1423639 5.19152478,79.968 C4.85379943,80.2858279 3.40844186,81.6388036 2.95665624,81.906603 C2.44338499,82.2111881 0.157723976,82.1023026 0,83.328" id="Fill-31" fill="#060632"></path>
                <path d="M21.800363,36.9533361 C16.9170613,37.2485297 13.8729583,27.6383368 13.8729583,27.6383368 C13.8729583,27.6383368 18.7723933,23.1038345 20.6650866,22.848 C20.7533953,22.9562377 20.8034935,22.9742773 20.85529,22.9955968 C20.9079356,23.0169164 20.9622794,23.0423358 21.0599284,23.1636932 C20.7058445,24.4650052 20.167501,26.9438118 19.7582241,29.2865013 C19.6554803,29.8801685 19.6936908,30.4861354 19.8652135,31.0593031 C19.9331433,31.2872582 20.021452,31.5111134 20.1301396,31.7259487 C20.7907567,33.0256207 21.7901735,35.2649925 21.800363,36.9533361" id="Fill-33" fill="#E75755"></path>
                <path d="M17.8366606,22.848 C19.1578947,23.3716362 20.8077794,24.192 22.46098,24.192 C22.9360608,21.504 23.6156286,19.9942553 21.800363,17.7293971 C21.090158,17.2648316 19.7542133,16.7991138 17.9775134,16.7999482 L18.5807784,19.488 L17.8366606,22.848 Z" id="Fill-41" fill="#ED6966"></path>
                <path d="M8.88257589,17.472 C8.88257589,17.472 7.58095987,18.0994889 6.6061706,20.1893115 C6.6061706,20.1893115 7.17039391,21.357937 8.26957247,21.5001552 C9.36956403,21.6415877 9.49557932,17.8362673 8.88257589,17.472" id="Fill-42" fill="#ED6966"></path>
                <path d="M6.75162382,29.1507598 C6.48947008,29.0437221 7.25398896,27.0721702 7.71708097,26.242764 C7.71708097,28.0447276 7.68139525,29.3301433 7.68139525,29.3301433 C7.48741957,29.2889502 7.17749576,29.2291557 6.75162382,29.1507598 Z" id="Fill-43" fill="#F2A57C"></path>
                <path d="M18.8275862,22.5975657 C18.8275862,26.9272171 18.8275862,29.3626952 18.8275862,29.904 C17.2851289,29.904 10.569873,29.904 9.24863884,29.904 C7.92740472,29.904 7.26678766,29.3151314 6.6061706,28.6015657 C5.94555354,27.888 5.74608179,27.0660664 5.28493648,27.42626 C4.82379116,27.7864537 5.59132817,29.6221415 5.94555354,30.190825 C6.29977891,30.7595085 7.17632231,31.584 8.21248058,31.584 C9.24863884,31.584 13.2123412,31.8281902 14.5335753,32.0913025 C15.8548094,32.3544149 19.5011023,32.9776211 20.4131133,32.4044868 C21.0211207,32.0223972 21.703743,29.1531694 22.46098,23.7968033 L18.8275862,22.5975657 Z" id="Path-10" fill="#FFCBAF"></path>
            </g>
            <path d="M102.508147,28 C102.224654,26.9952412 102.088629,25.9854473 102.032415,25.0556671 C102.023543,24.9107182 102.016513,24.7669267 102.011842,24.6267811 C101.98119,23.7417678 102.01537,22.9561541 102.053797,22.3584539 C102.059828,22.2616107 102.065343,22.1697512 102.071694,22.0833518 C102.100879,21.6183028 104.051544,21.1744242 105.146033,21 C105.229972,22.0994331 105.290952,23.4970685 105.408096,24.1804516 C105.71158,25.9520378 104.455762,27.109494 106,26.7261404 L102.508147,28 Z" id="Fill-45" fill="#EE9E71"></path>
            <path d="M101.105764,24 C101.104462,23.8648312 101.105063,23.730597 101.10798,23.5995883 C101.12517,22.7723683 100.943326,22.0960336 101.018147,21.532535 C101.433067,21.1699286 103.863304,20.2233301 104.90811,20 C104.976817,20.546967 105,20.835439 105,20.9298598 C104.955022,21.0978678 103.044432,23.8813967 101.105764,24 Z" id="Fill-46" fill="#DC8757"></path>
            <g id="Group-29" transform="translate(102.936562, 16.447589) rotate(17.000000) translate(-102.936562, -16.447589) translate(96.436562, 9.947589)">
                <path d="M7.45654537,11.9685225 C8.17655352,11.3573748 10.1248996,10.3839319 9.98931128,8.53244511 C9.85372292,6.68095831 8.88246907,4.69861274 5.83270446,5.3623486 C2.78293984,6.02614632 2.59258596,7.01921394 2.69760879,7.81606812 C2.80263163,8.61292231 4.90355942,12.805535 6.15480802,12.5538349 L7.45654537,11.9685225 Z" id="Fill-47" fill="#EE9E71"></path>
                <path d="M11.825741,7.71495045 C12.0974172,7.05591729 12.2517165,5.15368066 11.5067559,3.79049678 C10.7617953,2.4274731 9.96880564,1.21098426 8.51385995,0.681231052 C7.05891426,0.151477843 5.48686461,0.305371007 4.44090179,0.639859277 C3.39414477,0.974267449 2.02181567,2.47309982 0.962826914,3.66532502 C-0.0961618396,4.85755023 -0.217173357,7.77965364 2.69760879,7.81606812 C2.81110786,7.40851022 2.73243807,7.15069128 3.45211664,6.53206957 C4.17179522,5.91344786 5.01158332,5.59053133 6.13123165,5.71138508 C6.46237099,5.74712794 7.26245004,6.17115119 7.56814888,6.51458106 C7.70027189,5.66865935 8.27081553,5.88503669 8.55458204,6.21241023 C8.83834855,6.53978377 8.95441851,7.03839196 8.75441251,7.58575588 C9.39695444,8.39651771 9.58681363,9.01872979 9.8145144,9.76495743 C10.4437377,9.35046509 11.4237513,8.69009889 11.825741,7.71495045 Z" id="Fill-48" fill="#060632"></path>
            </g>
            <path d="M104.968049,96.0109118 C104.92054,96.4694081 104.805027,96.8574287 104.567482,96.9546364 C104.526493,96.9716478 104.457559,96.987039 104.364403,97 L96.3372217,97 C96.1220333,96.9943296 96,96.9910893 96,96.9910893 C96,96.9910893 96.0204941,96.1283711 97.3852175,95.9606879 C98.4881748,95.8262172 100.271165,95.3693411 101.147755,94.3753926 C101.355491,94.139664 101.512923,93.873963 101.597695,93.5758594 C102.03925,92.0172962 104.929855,94.1161721 104.929855,94.1161721 C104.929855,94.1161721 104.963391,94.3875435 104.982954,94.7642233 C105.003448,95.1319924 105.012763,95.6002094 104.968049,96.0109118" id="Fill-50" fill="#060632"></path>
            <path d="M112.634006,97 L104,97 C104.096464,96.8015343 104.448965,96.2174782 105.349599,96.0109118 C105.436146,95.9890401 105.528103,95.9736489 105.625469,95.9606879 C106.556755,95.8432286 107.988394,95.48113 108.901649,94.7310107 C109.284802,94.4175159 109.575998,94.0359758 109.702213,93.5758594 C110.129541,92.0172962 112.927907,94.1161721 112.927907,94.1161721 C112.927907,94.1161721 112.956756,94.3648618 112.978393,94.7188597 C113.02347,95.4835602 113.034288,96.7383493 112.634006,97" id="Fill-51" fill="#060632"></path>
            <path d="M110,52 C110,52 109.992815,52.2953778 109.981141,52.8258696 C109.903009,56.2464806 109.593175,69.4731261 109.300404,76.8465375 C109.287831,77.1147542 109.277952,77.374483 109.267176,77.6265726 C109.261787,77.7598322 109.255501,77.8947893 109.250112,78.0272 C109.074091,81.591256 108.563089,85.0823164 108.045802,87.8739763 C107.386619,91.4346372 106.716659,93.8587724 106.716659,93.8587724 C104.203862,94.3400346 102.575662,93.4369253 102.575662,93.4369253 C102.575662,93.4369253 101.89762,87.9113229 101.639874,84.5671027 C101.555456,83.4815044 101.141446,79.7790961 100.622362,75.2754331 C100.220027,71.7920118 99.7548271,67.8298748 99.3282443,64.2259258 C99.3048945,64.0332512 99.2833408,63.8414254 99.259991,63.6521459 C98.571172,57.826073 98,53.0796569 98,53.0796569 L102.442748,52.6798783 L110,52" id="Fill-52" fill="#0B0754"></path>
            <path d="M108.061615,89 L100.62649,76.1129655 C100.223521,72.5497781 99.7575894,68.496913 99.3303351,64.810438 C99.3069485,64.6133513 99.2853609,64.4171329 99.2619744,64.2235192 C98.5720711,58.2640363 98,53.4089331 98,53.4089331 L102.449741,53 L110,53.1493344 L108.061615,89" id="Fill-53" fill="#060632"></path>
            <path d="M105.254945,81.7616084 C108.512885,91.1396118 108.553512,93.7448489 108.553512,93.7448489 C108.553512,93.7448489 111.541757,94.3823457 112.859109,93.6419994 C112.859109,93.6419994 113.611141,75.8634877 111.640299,71.1417611 C110.336778,68.0188766 109.339255,61.3719096 109.678102,58.9783215 C110.016948,56.5838834 110.389691,53.781567 109.678102,51 L98,52.9518514 C98,52.9518514 101.99787,72.3827549 105.254945,81.7616084 Z" id="Fill-54" fill="#0B0754"></path>
            <path d="M108.390038,54.1208693 C107.501265,54.7840546 106.100208,55.0231097 104.557663,54.9982617 C102.756536,54.9674159 100.762693,54.5758452 99.1689197,54.0728869 C98.3110468,53.802986 97.5702674,53.5022392 97.036028,53.208347 C94.6534993,51.8999699 94.9917696,50.1580376 95.0486901,43.6384298 C95.1072368,36.9842999 98.9932794,28.3832844 99.6934013,26.9432984 C100.939147,24.3800104 107.9939,25.0903202 106.946605,25.0903202 C107.954545,26.6868122 108.398982,27.9691792 109.090159,30.5687967 C109.370696,31.6205537 109.534139,33.092585 109.627651,34.7454071 C109.91388,39.796411 109.543897,46.5327964 109.823621,48.1050766 C110.037479,49.3114911 110.055368,50.426225 109.88542,51.3858728 C109.674001,52.5845759 109.169848,53.5390828 108.390038,54.1208693 Z" id="Fill-55" fill="#93B3F4"></path>
            <path d="M107.148567,24 C107.148567,24 108.180738,25.9329379 107.97217,26.2768853 C107.97217,26.2768853 102.306865,26.6999866 100,28 C100,28 100.758608,26.123107 101.68116,25.656782 C102.602742,25.1905338 107.148567,24 107.148567,24" id="Fill-56" fill="#6D89CF"></path>
            <path d="M108.903409,51 C100.611077,47.1689555 105.345733,33 105.345733,33 C106.505577,33.0998752 107.642113,33.78402 108.68611,34.8360383 C108.927401,39.7424053 108.615504,46.2858926 108.851312,47.8131502 C109.031595,48.9850187 109.046675,50.0678319 108.903409,51" id="Fill-57" fill="#6D89CF"></path>
            <path d="M100.467009,56 L100,57.6330028 L102.367496,60 C102.963732,58.8978265 103.138433,57.8415319 102.891596,56.8311161 C102.110351,56.633691 101.302155,56.3566523 100.467009,56 Z" id="Path-8" fill="#EE9E71"></path>
            <path d="M105.512063,30.0496776 C101.378016,29.2783012 102.756032,37.6321523 102.756032,45.2300543 C101.928779,48.0363376 101.010101,51.6367469 100,56.0312823 C100.478248,56.6770941 101.396925,57 102.756032,57 C104.105683,53.5798187 106.429729,49.0751239 106.966514,46.3143669 C107.503299,43.5536098 109.646111,30.821054 105.512063,30.0496776 Z" id="Path-6" fill="#93B3F4"></path>
            <path d="M143.35317,45.3289906 C143.056022,51.1194357 142.785944,54.5850004 142.542937,55.7256849 C142.178426,57.4367116 143.033399,59.0086452 143.843266,59.0084276 C144.356359,59.0082898 143.887976,58.1782076 143.68561,57.1568981 C143.568561,56.5661689 143.687263,55.9369198 143.756691,55.3014356 C144.200645,53.9680333 144.953268,50.8788964 146.014559,46.0340247 L143.35317,45.3289906 Z" id="Path-11" fill="#FFCBAF" transform="translate(144.235488, 52.168709) rotate(-8.000000) translate(-144.235488, -52.168709) "></path>
            <path d="M143.031313,60 L145.999626,60 C146.551905,60.0000106 146.999616,60.4477211 146.999616,61 C146.999616,61.0025851 146.999606,61.0051703 146.999586,61.0077553 C146.978944,63.6692518 146.187069,65 144.623959,65 C143.072437,65 142.208965,63.6889083 142.033543,61.0667248 C141.996704,60.5156839 142.413526,60.0390942 142.964565,60.0022302 C142.986783,60.0007438 143.009045,60 143.031313,60 Z" id="Path-14" fill="#FCF3DB"></path>
            <path d="M144.16247,60 C143.868489,58.1316403 143.973465,57.1498905 144.4774,57.0547506 C145.233303,56.9120409 145.821693,57.0244813 146.237493,57.6773673 C146.514693,58.1126246 146.768862,58.8868355 147,60" id="Path-15" stroke="#FCF3DB"></path>
        </g>
    </g>
</svg>