<?xml version="1.0" encoding="UTF-8"?>
<svg width="280px" height="120px" viewBox="0 0 280 120" version="1.1" xmlns="http://www.w3.org/2000/svg" xmlns:xlink="http://www.w3.org/1999/xlink">
    <!-- Generator: Sketch 55.2 (78181) - https://sketchapp.com -->
    <title>img_fail_320</title>
    <desc>Created with Sketch.</desc>
    <g id="img_fail_320" stroke="none" stroke-width="1" fill="none" fill-rule="evenodd">
        <g id="Group-36" transform="translate(43.000000, 15.000000)">
            <g id="Group-24" transform="translate(161.000000, 5.000000)">
                <path d="M15.8125,11.0379093 C15.8125,11.0379093 11.3113208,15.3386168 8.25,15.1285475 C8.25,15.1285475 8.89939564,13.4153517 9.9582105,12.4343155 C9.77660672,12.0049683 9.62175708,11.6142639 9.4896079,11.266889 C9.05424528,10.1088354 8.88561321,9.43061147 8.88561321,9.43061147 L11.8569428,5.504 C11.9963886,6.18419718 12.194207,6.78842406 12.4285083,7.32556031 C13.6381191,10.0905828 15.8125,11.0379093 15.8125,11.0379093" id="Fill-4" fill="#EE9E71"></path>
                <path d="M9.62022539,11.6197815 C9.19781406,10.4749211 8.9375,9.88064238 8.9375,9.88064238 L10.6554634,7.568 C11.7575086,7.57092616 12.375,7.79957311 12.375,7.79957311 C12.375,7.79957311 12.0422077,10.4125776 9.62022539,11.6197815 Z" id="Fill-5" fill="#DE8C5D"></path>
                <path d="M8.2820521,10.3156842 C8.2820521,10.3156842 12.9439775,9.39564061 12.3169855,6.54789395 C11.6899935,3.70030209 11.8693588,1.66369845 8.86656282,2.13080228 C5.86298013,2.59782871 5.52627678,3.80734511 5.50031601,4.80788383 C5.47435524,5.80849994 7.05324221,10.4817054 8.2820521,10.3156842" id="Fill-6" fill="#EE9E71"></path>
                <path d="M13.3704167,1.5457965 C13.4124132,1.48710667 13.5149814,1.43496592 13.75,1.4047394 C13.75,1.4047394 13.5537474,1.29390883 13.3017687,1.30499189 C13.2298901,0.963096359 13.0158698,0.36393956 12.4432644,0.255124088 C12.4432644,0.255124088 12.7566225,0.403989699 12.8204248,0.768471154 C12.12183,0.107266027 10.6907203,-0.308768437 6.84239199,0.286777971 C1.77051332,1.07165994 3.67569832,4.40060736 4.36298634,4.76500485 C5.05027436,5.12931838 6.63887075,3.88532915 7.87534308,3.90161789 C9.11262304,3.91790663 9.46878522,5.77818101 9.9024793,6.00630728 C10.336981,6.23434958 10.1431513,5.79060747 10.6899127,5.48120545 C11.2374818,5.17197136 11.3553949,6.15601251 11.2342513,6.80974497 C11.1131077,7.4635614 11.9441528,8.256 11.9441528,8.256 C11.9441528,8.256 11.9441528,8.256 12.6702067,7.30915426 C13.3954531,6.36247644 13.8881037,2.53437163 13.479446,1.75469534 C13.4431029,1.68584604 13.4075674,1.61598919 13.3704167,1.5457965" id="Fill-7" fill="#0B0754"></path>
                <path d="M7.75774009,6.91648485 C7.75774009,6.91648485 8.64814672,7.46362699 8.84422904,8.93419864 C9.04111498,10.404692 8.96236061,11.9329194 8.25598206,12.7792921 C8.25598206,12.7792921 5.03187432,12.5147957 3.4375,13.1084848 C3.4375,13.1084848 4.58506377,11.3041831 4.70560619,10.2753775 C4.8261486,9.2465719 5.55101031,7.12489015 7.75774009,6.91648485" id="Fill-8" fill="#93B3F4"></path>
                <path d="M31.8466153,79.0743744 C31.8466153,79.0743744 33.2357609,80.4310624 32.965002,81.3950472 C32.6934397,82.359032 31.4392718,83.0014064 31.2697462,84.179516 C31.1010241,85.3576256 30.4229217,86 29.8123082,86 C29.2024982,86 26.9046633,86 26.9046633,86 C26.9046633,86 26.455541,85.1714301 27.5401834,84.9217589 C28.6240223,84.6712413 29.0329726,83.2874704 28.9654838,82.0018752 C28.8979949,80.71628 29.0675205,79.0032816 29.0675205,79.0032816 L31.3717829,78.432 L31.8466153,79.0743744" id="Fill-9" fill="#0B0B36"></path>
                <path d="M14.7589724,85.2960805 C14.7477004,85.3016523 14.7348181,85.3064282 14.7195203,85.312 L6.875,85.312 C6.94907327,85.035796 7.20510914,84.5335344 8.10284496,84.3894626 C9.32022305,84.1936522 11.429701,83.4947843 11.8999052,81.9553646 C11.9152029,81.9060141 11.9280852,81.8550715 11.9401624,81.804129 C12.3137493,80.1588444 15.0311111,82.3079825 15.0311111,82.3079825 C15.0311111,82.3079825 15.0391626,82.3732526 15.0504346,82.4846894 C15.114041,83.08804 15.2750698,85.0405718 14.7589724,85.2960805" id="Fill-10" fill="#0B0B36"></path>
                <path d="M8.25,41.3088216 C8.25,41.3088216 8.64332356,46.4819107 9.10655423,52.7002972 C9.73495007,61.1476266 10.491637,71.5237399 10.5661534,73.4897403 C10.6959809,76.9031377 11.2145227,82.363441 11.2145227,82.363441 C11.2145227,82.363441 12.4451952,83.660354 14.9088449,83.1134337 C14.9088449,83.1134337 17.1036211,75.3190107 17.7312487,67.0723266 C17.7404672,66.9372146 17.7504539,66.8012936 17.7604407,66.6653726 C18.3435121,58.2698227 19.25,40.592 19.25,40.592 L8.25,41.3088216" id="Fill-11" fill="#100C57"></path>
                <path d="M8.25,40.6303413 C8.25,40.6303413 8.64332356,45.872132 9.10655423,52.1731021 L17.7312487,66.736 C17.7404672,66.5990937 17.7504539,66.4613676 17.7604407,66.3236414 C18.3435121,57.816594 19.25,39.904 19.25,39.904 L8.25,40.6303413" id="Fill-12" fill="#0B0B36"></path>
                <path d="M9.625,41.8895615 C9.625,41.8895615 17.129745,60.5302891 22.0641271,69.2907952 C26.9985091,78.0513012 28.5404019,80.496 28.5404019,80.496 C28.5404019,80.496 31.3674763,79.3754795 31.625,78.6115615 C31.625,78.6115615 29.7378466,61.6991079 26.4330942,57.5768482 C24.5654379,55.2472604 22.3728306,48.2560819 22.2696586,45.8113832 C22.1664867,43.3666844 21.6018842,38.528 21.6018842,38.528 L9.625,41.8895615" id="Fill-13" fill="#100C57"></path>
                <path d="M26.3015959,36.725584 C26.3015959,36.725584 26.0489305,39.6849083 26.1480469,40.1630667 C26.2479756,40.6420468 27.1790192,42.2318004 27.3171322,42.2350867 C27.4552451,42.238373 27.5543614,42.14307 27.5340507,41.8481234 C27.5129275,41.5539985 27.2586373,40.6108268 27.3821265,40.655192 C27.5056157,40.7003788 28.4244729,43.3902255 28.9793619,43.3433956 C29.5342509,43.2965656 30.3483047,41.6361563 30.2402516,40.3462787 C30.1321986,39.0564011 28.3139825,36.7461234 28.2660492,36.5325131 C27.8557726,34.7242197 26.3015959,36.725584 26.3015959,36.725584" id="Fill-14" fill="#EE9E71"></path>
                <path d="M27.7140271,37.5926999 C26.777679,37.899905 26.6262836,37.8340753 26.6262836,37.8340753 C26.6262836,37.8340753 21.965936,29.6565683 21.4952936,28.9080606 C21.0238283,28.1603657 11.6875,19.7852884 11.6875,19.7852884 L13.9715969,11.008 C13.9715969,11.008 24.63099,24.3525667 25.7870261,26.2716233 C27.6975711,29.4420124 28.875,36.839316 28.875,36.839316 C28.875,36.839316 28.4496116,37.3505118 27.7140271,37.5926999" id="Fill-15" fill="#ED6966"></path>
                <path d="M23.4518108,39.9342266 C23.2114614,40.9708103 22.8797793,41.7669913 22.4295249,42.1280028 C19.9210789,44.1270121 8.91468147,43.3723922 7.76981745,41.9348657 C7.3604224,41.4206485 7.2746978,39.9268923 7.62240318,38.2725959 C7.70332079,37.884692 7.77702793,37.4690806 7.84592807,37.0290215 C7.87316766,36.8489232 7.89960609,36.6639354 7.92364102,36.4756879 C8.22648119,34.1262611 8.27695455,31.0939278 7.61999969,27.399061 C7.56712283,27.0991689 7.50943899,26.796832 7.44694816,26.4896055 C7.36362706,26.0805135 7.28911876,25.6681618 7.22342328,25.2549952 C7.03995661,24.094869 6.92779359,22.9287123 6.89013886,21.8038723 C6.78919214,18.8729156 7.1913767,16.2241671 8.14796707,14.7106082 C8.1519729,14.701807 8.15677988,14.6959396 8.16238804,14.6899906 C11.2669004,14.260933 13.8194104,9.632 13.8194104,9.632 C13.8194104,9.632 22.5833485,14.2263802 23.9773747,28.4274955 C23.9773747,28.4274955 24.0590934,29.9644427 24.0622981,32.017237 C24.0679062,34.5068308 23.9589479,37.7534892 23.4518108,39.9342266" id="Fill-16" fill="#ED6966"></path>
                <path d="M13.75,18.576 C13.75,18.576 13.4942727,33.5608574 7.68706121,35.7492547 C7.6633514,35.7586942 7.6387948,35.7673471 7.61508499,35.776 C7.93516751,33.5081534 7.9885146,30.5811131 7.29415568,27.0145447 C7.23826826,26.7250659 7.17730016,26.4332271 7.11125139,26.1366686 C7.02318635,25.7417817 6.94443589,25.3437483 6.875,24.9449282 C8.41867841,22.0618604 10.7549421,19.4993432 13.75,18.576" id="Fill-17" fill="#E75755"></path>
                <path d="M5.93191439,9.68657667 C5.76122938,8.72274187 6.60612016,7.92267101 6.82459697,7.83301403 C7.12500258,7.70941357 8.14313864,8.38712796 8.28566062,8.79569369 C8.42903602,9.20434827 8.46061275,10.1699602 8.32577159,10.4350215 C8.19178386,10.6999938 7.46295889,11.7272727 7.46295889,11.7272727 L5.82352941,11.1459685 C5.82352941,11.1459685 6.10174597,10.6505892 5.93191439,9.68657667 Z" id="Fill-18" fill="#EE9E71"></path>
                <path d="M14.7899129,13.2823545 C14.7899129,13.2823545 11.8499451,14.7846936 6.47381991,20.6495399 C7.19895296,16.3981278 7.82268006,11.7997499 7.82268006,11.7997499 C7.82268006,11.7997499 7.06052579,10.7218208 5.63037992,11.081445 C5.63037992,11.081445 -0.941691639,23.8351309 0.115022781,26.0130823 C0.665512243,27.1491928 1.65059865,27.8497288 2.60993116,28.0997517 C2.8071094,28.1901688 3.07833009,28.2216182 3.41071627,28.2027486 C3.60789451,28.2003899 3.79782947,28.1783753 3.9756923,28.1327736 C7.8878696,27.4338101 17.1504182,22.0498256 18.0453659,19.5407903 C19.0819601,16.6338412 18.825226,12.2283269 14.7899129,13.2823545" id="Fill-19" fill="#ED6966"></path>
                <path d="M6.56489774,8.19997272 C6.56489774,8.19997272 8.36051802,6.78539544 8.58729812,7.4959019 C8.81329074,8.20630173 8.03190307,9.38980157 7.99907439,9.83642711 C7.96624643,10.2833671 6.56489774,8.19997272 6.56489774,8.19997272" id="Fill-20" fill="#EE9E71" transform="translate(7.596577, 8.597781) rotate(21.000000) translate(-7.596577, -8.597781) "></path>
            </g>
            <g id="Group-30" transform="translate(55.000000, 15.000000)">
                <path d="M8.83607717,12.2171216 C8.83607717,12.2171216 5.59967537,14.2530395 5.18918919,25.5021973 C5.18918919,25.5021973 6.37557473,26.7293723 8.57046847,23.856832 C10.7653622,20.9842918 11.6756757,11.5932203 11.6756757,11.5932203 L8.83607717,12.2171216" id="Fill-21" fill="#FFCBAF"></path>
                <path d="M5.18918919,73.5490267 L6.53054223,74.0677966 C6.53054223,74.0677966 12.3556057,65.6774307 13.0730915,58.29512 C13.2012413,56.9778748 13.1582689,55.7004737 12.8812504,54.5218859 C12.8812504,54.5218859 12.9380353,54.1840081 13.0377927,53.5863469 C13.0838346,53.3082353 13.1406195,52.9727481 13.2050781,52.5886512 C13.3946172,51.4618607 13.6555211,49.9198949 13.9532585,48.1643648 C14.6385149,44.1241754 15.5263556,38.959586 16.2162162,35.1624454 L15.8547876,35.0421163 L11.9450657,33.732043 L11.137031,31.0664742 L8.22565028,30.2711864 C8.22565028,30.2711864 7.57492524,31.5924161 6.99326299,37.8335924 C6.88659933,38.6519897 6.78914405,39.5548565 6.71547706,40.534224 C6.48910455,43.5225298 6.47222254,47.2296228 6.99249563,51.4674389 C7.12601704,52.5519947 7.29483722,53.6724101 7.50356035,54.8231071 C7.65703323,55.6662078 7.68005417,56.8161079 7.61559555,58.1365406 C7.32169497,64.1705277 5.18918919,73.5490267 5.18918919,73.5490267" id="Fill-22" fill="#0B0754"></path>
                <path d="M12.744183,53.4576271 C12.794478,53.1733682 12.8565086,52.8304656 12.9269216,52.4378788 C13.1339694,51.2861822 13.4189746,49.7101335 13.7442157,47.9157999 C14.4927734,43.7863079 15.4626291,38.5075628 16.2162162,34.6264918 L15.8214003,34.503503 L11.5505144,33.1644725 L10.6678367,30.4399851 L7.48751465,29.6271186 C7.48751465,29.6271186 7.77052895,30.7681647 7.13513514,37.1472932 C7.01861833,37.98378 6.77654002,40.5413579 6.69606798,41.5423729 L12.744183,53.4576271 Z" id="Fill-23" fill="#060632"></path>
                <path d="M9.08108108,31.5294526 L9.23242557,30.2276264 C11.7648705,30.9036205 18.5294144,28.3389831 18.5294144,28.3389831 C18.5294144,28.3389831 20.9826214,30.5055085 20.660123,35.6992776 C20.5032318,38.2344548 20.2163904,49.0057729 19.9160786,52.1930575 C19.8075226,53.3483786 19.7132294,54.1708779 19.6744028,54.4989222 C19.6736105,54.5005147 19.6736105,54.5013109 19.6736105,54.5021071 C19.6617248,54.6024313 19.6965895,54.697182 19.7473018,54.7847666 C20.1886572,55.5371983 20.5539441,56.3214789 20.854256,57.1232765 C23.7971535,65.0050978 20.4002225,74.7118644 20.4002225,74.7118644 L19.5190965,74.3543598 C19.5190965,74.3543598 17.5856904,63.5527852 16.0151942,58.7802186 C15.7489547,57.971255 15.4930161,57.3350721 15.2592642,56.9552732 C14.576233,55.8477257 13.9423294,54.0379085 13.3670619,51.8857151 C12.2799172,47.8162143 11.4051302,42.5229172 10.8227313,38.4366957 C10.7427009,38.4406768 9.08108108,31.5294526 9.08108108,31.5294526" id="Fill-24" fill="#0B0754"></path>
                <path d="M18.8108108,12.4024351 C18.8075933,12.4114625 18.8043758,12.4213257 18.8003539,12.430353 C18.132722,14.3626221 16.7974582,16.9094191 14.3288288,17.3298591 C13.5775418,17.4577465 12.7208816,17.3892055 11.7459781,17.045665 C10.6278958,16.6519726 9.75756113,16.1253777 9.08108108,15.525561 C10.0213964,13.4318864 11.16361,11.8576183 11.2166988,11.7852324 C11.219112,11.7829756 11.219112,11.7813875 11.219112,11.7813875 C11.219112,11.7813875 11.3815959,11.7595714 11.6502574,11.7271398 C11.8199807,11.55002 11.8867439,10.7594589 11.9076577,9.92677025 C11.9333977,8.86338284 11.8859395,7.72994993 11.8859395,7.72994993 L15.3600386,7.12027002 L15.5667632,7.08474576 C15.5329794,8.18507841 15.6287001,9.12342043 15.784749,9.86190713 C15.8949485,10.3856601 16.0357143,10.8084406 16.1821107,11.1189645 C16.2882883,11.3473228 16.3992921,11.5138271 16.5030566,11.6156354 C16.7894144,11.7898297 17.0830116,11.8005288 17.4015444,11.786737 C17.721686,11.772778 18.2517696,11.9916911 18.7987452,12.3934078 C18.8027671,12.3964169 18.8067889,12.399426 18.8108108,12.4024351" id="Fill-25" fill="#FFCBAF"></path>
                <path d="M18.8091949,12.1847054 C18.259787,11.7611247 17.7265382,11.5690767 17.4057809,11.5450156 C17.1100702,11.5227173 16.789313,11.4747714 16.5032977,11.3646016 C16.4895625,11.3504118 16.4758273,11.3346355 16.4612841,11.3179778 C16.4540126,11.309693 16.4475489,11.3005269 16.4402774,11.2917133 C16.4330058,11.2823709 16.4257342,11.2730285 16.4184626,11.2631573 C16.4103831,11.2532861 16.4031115,11.2427098 16.39584,11.2323098 C16.3885684,11.2216453 16.3812968,11.2107165 16.3732173,11.1994351 C16.3659457,11.1887707 16.3594821,11.1778418 16.3522105,11.1667367 C16.344131,11.1536045 16.3352435,11.1399434 16.327164,11.1261061 C16.3207003,11.1153535 16.3142367,11.104601 16.3077731,11.0933196 C16.2988856,11.0774551 16.2891902,11.0607093 16.2803027,11.0439635 C16.274647,11.0328584 16.2681834,11.0223703 16.2625277,11.0108245 C16.2568721,10.9994549 16.2504085,10.9869397 16.2439448,10.974865 C16.2229381,10.9325599 16.2019313,10.8883157 16.1809245,10.8408986 L16.1801166,10.8408986 C16.0338771,10.513474 15.8924854,10.0676831 15.7817958,9.51542405 C14.5512838,9.09986367 13.0323325,8.85986984 12.2300354,9.13406036 C12.2300354,9.13406036 13.3070365,9.39309153 13.3522818,10.5055418 C13.3991431,11.6498973 12.6881447,15.5324563 10.7328989,15.5889514 C9.43451882,15.6263209 11.946444,17.088406 14.3194013,17.3898305 C16.7990084,16.9465073 18.14021,14.2610971 18.8108108,12.2236614 C18.8108108,12.2108817 18.8100029,12.197397 18.8091949,12.1847054" id="Fill-26" fill="#F2A57C"></path>
                <path d="M21.4054054,30.8746267 C21.4094009,31.393149 21.3169474,31.8576751 21.0858135,32.2237375 C20.599607,33.7681875 6.37992287,32.1546541 7.16660341,30.5252395 C7.16660341,30.5252395 7.87156163,20.4819471 7.4299309,17.8925118 C7.41424681,17.7980185 7.40186464,17.7067014 7.39360986,17.6137962 C7.16660341,15.1572869 9.48784756,13.2162825 8.56496315,12.2111592 C8.56496315,12.2111592 9.40529976,11.7980089 11.479726,11.5932203 C11.479726,11.5932203 11.479726,11.5947291 11.4772496,11.596873 C11.4178151,11.6934309 9.81886424,14.2507861 9.93773308,14.9202595 C10.0582529,15.6008498 14.5183105,15.4793583 14.952512,15.1185367 C15.2992127,14.8278307 17.370337,13.0924088 17.7434531,11.8932169 C17.7995856,11.7113767 17.8243499,11.5983023 17.8243499,11.5983023 C17.8243499,11.5983023 19.9879278,11.8861497 21.0280301,12.6563896 C21.0280301,12.6563896 20.2842744,13.4991272 19.8046717,14.5200524 C19.7592704,14.6174043 19.7163455,14.715471 19.6767226,14.813617 C19.5916983,15.022614 19.5231837,15.235899 19.4744805,15.4483899 C19.4109187,15.7310759 19.4885136,16.016144 19.6560856,16.3202697 C19.8079736,16.5981913 20.0374565,16.8943763 20.3016094,17.2151772 C20.3874591,17.3199934 20.4361623,17.3374627 20.4865165,17.3581083 C20.5376961,17.3787539 20.5905267,17.4033698 20.6854567,17.520891 C20.3412324,18.7810669 19.8178793,21.1815154 19.4199989,23.4501497 C19.3201161,24.0250504 19.3572626,24.611862 19.5240092,25.1669111 C19.5900474,25.3876603 19.6758971,25.6044391 19.7815583,25.8124833 C20.4237802,27.0710711 21.3953678,29.2396536 21.4054054,30.8746267" id="Fill-27" fill="#ED6966"></path>
                <path d="M19.5140207,1.11865314 C19.62885,0.958109532 20.9325001,-0.730510622 23.769459,0.912579791 C23.769459,0.912579791 22.2994752,0.217246307 21.6780462,0.652855179 C21.6780462,0.652855179 23.0847049,0.513640818 23.6875587,1.21849043 C24.2912568,1.92342207 23.8825996,3.48972719 23.6056584,3.91631215 C23.3295615,4.34273304 22.004803,5.4457833 21.4475433,5.26161345 C21.23646,5.19180118 21.0346644,5.04897726 20.8649535,4.89852402 C20.8641092,5.17227672 20.8480668,5.46456945 20.8092275,5.77819143 C20.4537633,8.67962544 17.881925,10.1241898 17.1017613,9.29940416 C16.6019162,8.77035678 15.7710925,9.66101695 15.7710925,9.66101695 L12.972973,1.41258658 C12.972973,1.41258658 17.9764903,-1.55964412 19.5140207,1.11865314" id="Fill-28" fill="#0B0754"></path>
                <path d="M17.4354952,5.0831901 C17.2558183,5.89718713 16.8006932,6.86376735 16.39303,8.02666741 C15.7226316,9.93729933 13.3520827,9.77357568 11.9485685,9.48870973 C11.947721,9.48870973 11.947721,9.48870973 11.9468734,9.48870973 C11.3180042,9.3607181 10.8832199,9.20887762 10.8832199,9.20887762 C9.72718528,8.72529868 10.8425383,3.90320799 11.3976722,3.05653224 C11.9528062,2.20903127 12.8884823,1.34155998 15.745515,2.47095611 C17.4024414,3.1257682 17.6821272,3.95907538 17.4354952,5.0831901" id="Fill-29" fill="#FFCBAF"></path>
                <path d="M14.2702703,76 L22.0115771,76 C22.0115771,76 22.1971292,74.9554184 21.7926079,74.1624399 C21.4047951,73.4013987 20.7980131,73.0555417 20.9439926,72.1355932 C20.4515318,72.5842726 19.6504037,73.085921 18.530935,72.9527193 C18.3937495,73.1497955 17.6453851,74.2037246 17.1881001,74.4950546 C16.6815691,74.8175429 14.425923,74.7022573 14.2702703,76" id="Fill-30" fill="#060632"></path>
                <path d="M0,75.3559322 L7.70220167,75.3559322 C7.70220167,75.3559322 7.99006085,74.3659265 7.48433865,73.6925252 C7.03723822,73.0959833 7.2087288,72.7568147 7.53946062,72.2639273 C7.19122976,72.3788638 6.73975457,72.4832234 6.24278189,72.4606592 C5.858678,72.4430309 5.45270031,72.3027096 5.09746984,72.1355932 C4.76586306,72.4402104 3.34669106,73.7369486 2.90309044,73.9936167 C2.39911814,74.2855414 0.154866488,74.1811819 0,75.3559322" id="Fill-31" fill="#060632"></path>
                <path d="M16.5102482,5.15254237 C16.3826944,5.86019736 17.2135321,7.32781459 16.7737014,8.24015667 C16.5045001,8.79856165 14.5069042,9.90881098 13.5112342,9.66101695 C15.5378391,9.29951315 15.0382192,4.56880186 15.0382192,4.56880186 C15.8320541,4.33069289 16.7579448,4.81709808 17.5135135,5.68129232" id="Fill-32" fill="#F2A57C"></path>
                <path d="M21.4054054,30.9088673 C16.6105746,31.191791 13.6216216,21.9810532 13.6216216,21.9810532 C13.6216216,21.9810532 18.4322935,17.635031 20.2906969,17.3898305 C20.3774057,17.4935692 20.4265963,17.510859 20.4774543,17.5312924 C20.5291461,17.5517257 20.5825054,17.5760886 20.6783853,17.6924017 C20.3307163,18.9396236 19.802126,21.3153967 19.400264,23.5607105 C19.2993816,24.1297014 19.3368999,24.7104809 19.5053151,25.2598244 C19.5720142,25.4783043 19.658723,25.6928548 19.7654415,25.8987604 C20.4140902,27.1444105 21.3954005,29.290701 21.4054054,30.9088673" id="Fill-33" fill="#E75755"></path>
                <path d="M17.5877921,26.8864831 C17.1998508,26.9028738 16.5869036,26.9079171 16.2257656,26.8032686 C16.2257656,26.8032686 17.3550273,26.7358145 17.0961647,26.4275428 C17.0489064,26.3720665 16.4895656,26.4420423 15.8625115,26.4716717 C15.6057649,26.4836495 14.9674252,26.9394377 15.0012818,26.9520459 C14.5435111,26.9198949 14.1471057,26.7496836 14.0116789,26.7301408 C13.9764115,26.7257279 13.9615992,26.7200542 13.9615992,26.7200542 L13.6216216,27.7829295 C13.6216216,27.7829295 13.707674,27.7980594 13.8565024,27.8163414 C14.2345688,27.8806435 15.0125674,28.0212254 15.7524772,28.2387177 C16.7872224,28.549511 17.5066771,28.0685064 17.826905,27.7375398 C18.0293398,27.5276125 18.1831056,27.2540135 18.1598291,27.0623681 C18.135142,26.8518104 17.8240836,26.8763965 17.5877921,26.8864831" id="Fill-34" fill="#FFCBAF"></path>
                <path d="M15.3571476,10.9491525 C15.3571476,10.9491525 16.8648649,9.3298278 16.8648649,8.71031369 C16.8648649,8.09072528 16.5782159,6.29897072 16.2859464,6.44963322 C15.9936769,6.60037002 15.0325598,8.84983251 14.9904055,8.7270292 C14.9482513,8.60430018 15.1934485,8.13812305 15.153402,7.92327298 C15.1365403,7.83308349 14.9693284,7.46549075 14.8014139,7.86658881 C14.6524689,8.22207208 14.3264759,8.69070082 14.3053988,9.07307749 C14.2850243,9.45560276 14.5604321,9.90409858 14.2702703,10.6261345 L15.3571476,10.9491525" id="Fill-35" fill="#FFCBAF"></path>
                <path d="M14.1190676,1.71624943 C17.1632553,1.21028745 18.1068315,3.70252756 18.1068315,3.70252756 C17.7069225,5.7778084 18.8108108,7.39339226 18.8108108,7.39339226 C18.8108108,7.39339226 17.7757521,7.6168424 15.9765971,6.50787676 C15.4268311,6.16909223 15.0347634,5.59381477 14.7542172,4.95857326 C15.0974942,6.47350613 15.8554918,7.72881356 15.8554918,7.72881356 C13.870758,5.94916939 14.0389115,2.56206234 14.0633068,2.20580538 C13.6886644,2.35624868 12.972973,2.35624868 12.394841,2.82535771 C11.7464398,3.35148479 11.385003,3.70252756 10.7427021,4.95857326 C10.5675785,4.78424347 10.8579357,2.50029363 12.394841,1.60714933 C13.4194446,1.01177448 13.9012522,1.36901579 14.1190676,1.71624943 Z" id="Fill-36" fill="#0B0754"></path>
                <path d="M5.18918919,25.5984698 C5.18918919,25.5984698 5.82569823,27.4177892 14.4013452,28.3389831 L14.9189189,27.1255908 C14.9189189,27.1255908 9.74236148,25.1963125 6.98142148,23.229356 C6.39330681,22.810282 5.18918919,25.5984698 5.18918919,25.5984698" id="Fill-37" fill="#FFCBAF"></path>
                <path d="M21.8846248,15.6779521 C20.9138664,17.7241654 18.8151028,20.1857933 16.7059095,22.0824574 C16.1009907,22.6268482 15.4960718,23.1237631 14.9152213,23.5510467 C13.1822972,24.8281496 11.675616,25.4849002 11.0955678,24.9072762 C10.5331698,24.34706 13.5593687,18.9664527 15.5065014,16.037978 C15.7528013,15.6676656 15.981451,15.3368374 16.1844278,15.0601318 C16.7067118,14.344511 17.2081366,13.8073207 17.656611,13.4057533 C18.7573387,12.4190448 19.5419682,12.2441751 19.5419682,12.2441751 C22.992573,12.0587815 21.8846248,15.6779521 21.8846248,15.6779521" id="Fill-38" fill="#FFCBAF"></path>
                <path d="M15.5675676,10.9289807 C15.5675676,10.9289807 15.4635221,13.7611434 15.2084428,16.6312783 C14.9701451,19.3079164 15.0196506,23.1810836 14.4465613,23.6173602 C11.5962182,25.7898564 10.5037405,24.9649704 10.5037405,24.9649704 C9.54719327,20.9786944 14.3785961,10.4139319 14.3785961,10.4139319 C15.0725124,9.99292492 15.5675676,10.9289807 15.5675676,10.9289807" id="Fill-40" fill="#FFCBAF"></path>
                <path d="M15.5675676,15.8500332 C16.5405405,16.9809809 18.8108108,18.3394947 20.2728218,18.6778955 C21.4054054,17.7118644 23.1877838,14.654704 21.4054054,12.4839864 C20.7080673,12.0387308 19.3963259,11.5923709 17.6518144,11.5931916 L16.8648649,14.0529029 L15.5675676,15.8500332 Z" id="Fill-41" fill="#ED6966"></path>
                <path d="M8.72165011,12.2372881 C8.72165011,12.2372881 7.44361548,12.838695 6.48648649,14.8416525 C6.48648649,14.8416525 7.04048775,15.9617031 8.11975247,16.0980099 C9.19981547,16.2335637 9.32354774,12.5864144 8.72165011,12.2372881" id="Fill-42" fill="#ED6966"></path>
                <path d="M6.62930453,23.4306112 C6.37190024,23.3280226 7.12256831,21.4384198 7.57727047,20.6434885 C7.57727047,22.3705521 7.54223128,23.6025385 7.54223128,23.6025385 C7.35176985,23.5630576 7.04746093,23.5057485 6.62930453,23.4306112 Z" id="Fill-43" fill="#F2A57C"></path>
            </g>
            <g id="Group-26" transform="translate(108.000000, 11.000000)">
                <g id="Group-25">
                    <path d="M3.88765071,8.64760924 C3.88765071,8.64760924 3.79500305,6.70241621 3.80574481,5.86019012 C3.81715793,5.01787695 5.42103668,2.60162602 5.96550955,2.60162602 C6.51065377,2.60162602 6.32871524,4.82828681 6.23808166,5.52089606 C6.14744807,6.21350531 6.42002018,6.84166959 6.11723688,7.39128068 C5.81445357,7.94089177 5.21962872,9.10569106 5.21962872,9.10569106 L3.88765071,8.64760924" id="Fill-44" fill="#EE9E71"></path>
                    <path d="M15.8536585,12.3808541 L12.6445724,15.6097561 C11.8879177,14.9467596 11.2886205,14.1881081 10.8115263,13.4467607 C10.7370326,13.3312545 10.66505,13.2155727 10.5972524,13.1014719 C10.1678676,12.3816446 9.85315288,11.7045941 9.62716089,11.181786 C9.59033257,11.0971986 9.55517826,11.017091 9.52337198,10.9410238 C9.34676343,10.5346881 11.3053606,9.23346516 12.4118843,8.40911137 C12.7550573,8.14234925 13.0203887,7.93320846 13.1091115,7.80487805 C13.1091115,7.80487805 13.0329438,8.34946979 13.1057634,8.72084623 C13.2756759,9.59166599 13.6406111,10.1248389 14.0733439,10.6227011 C15.1949338,11.9134714 15.8536585,12.3808541 15.8536585,12.3808541" id="Fill-45" fill="#EE9E71"></path>
                    <path d="M12.6829268,7.80487805 C12.6829268,7.80487805 12.1520266,11.2810098 10.5006475,12.3577236 C10.4384763,12.24458 10.3784007,12.1312644 10.321818,12.0194974 C9.96346031,11.3143936 9.70080441,10.6511916 9.51219512,10.1390772 C9.71337836,9.62472565 11.0895276,8.54267736 11.9075331,7.82819509 C12.3692766,7.81640751 12.6829268,7.80487805 12.6829268,7.80487805" id="Fill-46" fill="#DC8757"></path>
                    <path d="M8.77447237,12.3417036 C8.77447237,12.3417036 13.5790637,10.8496425 12.5342597,8.08105217 C11.4886186,5.31238402 11.4049003,3.25509624 8.29309234,4.09059444 C5.18128436,4.9261705 4.98705798,6.1762253 5.09421737,7.17929033 C5.20137675,8.18235536 7.4977688,12.6585389 8.77447237,12.3417036" id="Fill-47" fill="#EE9E71"></path>
                    <path d="M12.761853,8.45516395 C12.761853,8.45516395 12.2997481,8.13041291 13.3165371,6.42997455 C13.8403615,5.55327245 14.3080053,4.72894955 13.5657889,3.30264298 C12.8235725,1.87650402 12.8702577,0.727178663 10.8240193,0.72751389 C8.77857211,0.727932924 8.57284048,-0.275903971 7.53073064,0.0740728929 C6.48782952,0.42396595 5.56203718,2.04587741 4.67026969,2.35034722 C3.77771092,2.65498465 3.10117037,7.60645329 5.14266117,7.46976453 C5.14266117,7.46976453 5.91019841,7.0653133 6.25361197,6.41120185 C6.59623427,5.75700659 8.33704037,4.26667169 8.89093323,4.75258305 C9.4440348,5.23866203 11.6643539,8.47804318 12.761853,8.45516395" id="Fill-48" fill="#060632"></path>
                    <path d="M12.2065574,14.1079178 C10.6618638,14.0155384 7.85232397,15.4298431 5.31788818,17.091157 L5.90129854,9.07599312 C5.39377896,8.18902384 3.96924581,8.51302907 3.96924581,8.51302907 C3.96924581,8.51302907 3.12733249,9.25756358 1.54311249,13.8168312 C0.079843423,18.0284208 0,21.8348645 0,21.8348645 C0.0569180837,23.9486698 1.76129848,24.0650407 1.76129848,24.0650407 C7.19934706,23.1380589 16.1481347,19.1001488 16.1481347,19.1001488 C17.2809626,17.6845688 15.4825093,14.3040744 12.2065574,14.1079178" id="Fill-49" fill="#6D89CF"></path>
                    <path d="M13.9219527,79.0350359 C13.8784349,79.4823493 13.7726268,79.8609061 13.5550375,79.9557428 C13.5174927,79.9723393 13.4543491,79.9873551 13.36902,80 L6.01620854,80 C5.81909824,79.9944679 5.70731707,79.9913066 5.70731707,79.9913066 C5.70731707,79.9913066 5.72608948,79.1496304 6.97616129,78.9860369 C7.98645823,78.8548461 9.61965784,78.4091133 10.422605,77.4394074 C10.612889,77.2094283 10.7570952,76.9502078 10.8347447,76.659375 C11.2392048,75.1388256 13.8869678,77.1865094 13.8869678,77.1865094 C13.8869678,77.1865094 13.9176863,77.451262 13.9356054,77.8187545 C13.9543778,78.1775535 13.9629107,78.6343506 13.9219527,79.0350359" id="Fill-50" fill="#060632"></path>
                    <path d="M20.5915832,80 L12.6829268,80 C12.7712871,79.8063749 13.0941737,79.2365641 13.9191447,79.0350359 C13.9984212,79.0136977 14.0826525,78.9986818 14.1718385,78.9860369 C15.0248867,78.8714425 16.336252,78.5181756 17.1727842,77.7863519 C17.5237479,77.4805033 17.7904803,77.108269 17.9060918,76.659375 C18.2975195,75.1388256 20.8607929,77.1865094 20.8607929,77.1865094 C20.8607929,77.1865094 20.8872184,77.4291334 20.9070375,77.7744973 C20.9483274,78.5205465 20.958237,79.744731 20.5915832,80" id="Fill-51" fill="#060632"></path>
                    <path d="M17.7560976,38.3739837 C17.7560976,38.3739837 17.7496431,38.6530089 17.7391547,39.1541316 C17.6689629,42.3853708 17.3906163,54.879763 17.1275988,61.8449677 C17.1163036,62.0983353 17.1074288,62.343685 17.0977472,62.5818185 C17.0929063,62.7077006 17.0872587,62.8351862 17.0824179,62.9602664 C16.9242847,66.3270092 16.4652144,69.6247975 16.0004965,72.2619056 C15.4083039,75.6254412 14.8064296,77.9153715 14.8064296,77.9153715 C12.5489977,78.3699901 11.0862657,77.5168788 11.0862657,77.5168788 C11.0862657,77.5168788 10.4771303,72.2971847 10.2455781,69.1381071 C10.1697387,68.1126096 9.79780302,64.615174 9.33147148,60.3608427 C8.9700242,57.0702706 8.55210079,53.3274853 8.16886986,49.9230581 C8.14789301,49.7410503 8.12852976,49.5598443 8.10755291,49.3810438 C7.4887358,43.8775137 6.97560976,39.3938687 6.97560976,39.3938687 L10.9668591,39.0162226 L17.7560976,38.3739837" id="Fill-52" fill="#0B0754"></path>
                    <path d="M16.0147025,72.8455285 L9.33517983,60.738468 C8.9731636,57.3909388 8.55458233,53.583369 8.17074816,50.120014 C8.14973829,49.9348558 8.13034456,49.7505133 8.10933469,49.5686179 C7.48954351,43.9698263 6.97560976,39.4085731 6.97560976,39.4085731 L10.9731417,39.0243902 L17.7560976,39.1646863 L16.0147025,72.8455285" id="Fill-53" fill="#060632"></path>
                    <path d="M6.97560976,39.4723518 C6.97560976,39.4723518 10.6939536,57.7332208 13.7232984,66.5473253 C16.7534472,75.360631 16.7912336,77.8089933 16.7912336,77.8089933 C16.7912336,77.8089933 19.5705449,78.4081032 20.7957894,77.712337 C20.7957894,77.712337 21.49524,61.0043608 19.662197,56.5669536 C18.4498159,53.632114 17.5220389,47.3853951 17.8371936,45.1359372 C18.1523484,42.8856805 18.4466,38.3739837 18.4466,38.3739837 L6.97560976,39.4723518" id="Fill-54" fill="#0B0754"></path>
                    <path d="M18.2836751,37.5961678 C18.0870383,38.7170324 17.6181352,39.6095579 16.8928479,40.1535659 C16.0662171,40.7736868 14.7631202,40.9972188 13.328428,40.9739843 C11.6532337,40.9451415 9.79879755,40.5789977 8.31645866,40.1086992 C7.51856706,39.8563244 6.82958199,39.5751068 6.33269595,39.3002986 C4.11675057,38.0768817 4.43136943,36.4480627 4.48431011,30.3518089 C4.53876337,24.1297682 8.15309886,16.0872639 8.80426916,14.7407842 C9.96291364,12.3439446 14.8795897,13.1322353 14.8795897,13.1322353 C15.9573106,14.1793905 16.9011672,15.7000489 17.5440182,18.130859 C17.8049401,19.1143196 17.9569555,20.4907638 18.0439295,22.0362591 C18.3101454,26.7592734 17.9660311,33.0582283 18.2261967,34.5284117 C18.4251023,35.6564871 18.4417408,36.6988351 18.2836751,37.5961678" id="Fill-55" fill="#93B3F4"></path>
                    <path d="M15.1112501,11.0569106 C15.1112501,11.0569106 16.0112537,12.9427037 15.829392,13.2782621 C15.829392,13.2782621 10.8895229,13.6910438 8.87804878,14.9593496 C8.87804878,14.9593496 9.53951756,13.1282345 10.343938,12.6732833 C11.1475126,12.2184069 15.1112501,11.0569106 15.1112501,11.0569106" id="Fill-56" fill="#6D89CF"></path>
                    <path d="M18.2922392,37.0731707 C9.87855641,33.4739961 14.6825001,20.1626016 14.6825001,20.1626016 C15.8593168,20.2564319 17.0124858,20.8991696 18.0717599,21.8875156 C18.3165823,26.49693 18.0001215,32.6443797 18.2393798,34.0792017 C18.422301,35.1801441 18.4376024,36.1974211 18.2922392,37.0731707" id="Fill-57" fill="#6D89CF"></path>
                    <path d="M15.8708008,31.8699187 C15.8708008,31.8699187 15.3755541,32.6736489 14.8989819,32.4844534 C14.4224097,32.2945573 13.4610486,32.094851 12.7461903,32.5264969 C12.031332,32.9581427 10.9541893,34.1234463 11.6272168,34.4079402 C12.3009912,34.692434 13.5805651,33.9377545 13.8838383,33.8109235 C14.1871116,33.6847932 14.7144783,33.9377545 15.2978684,33.6637715 C15.8820054,33.3897885 16.4878049,32.8425233 16.4878049,32.8425233 L15.8708008,31.8699187" id="Fill-58" fill="#EE9E71"></path>
                    <path d="M26,23.5580115 C22.5866567,19.2661906 14.7233026,13.6735399 14.7233026,13.6735399 C13.0109433,13.4077867 11.1196128,16.7218517 12.558207,19.6952922 C13.3901194,21.4141137 16.9467913,23.4638184 20.0128093,24.7559536 L15.0281601,31.9927155 C14.6360921,33.5303965 16.8762645,33.1214217 16.8762645,33.1214217 C16.8762645,33.1214217 18.7402942,32.5361368 22.1187534,29.5847552 C23.9350069,27.9979649 24.929965,26.3193968 25.4562615,25.1375561 C25.8976225,24.4001132 26,23.5580115 26,23.5580115" id="Fill-59" fill="#93B3F4"></path>
                </g>
            </g>
            <g id="Group-31">
                <path d="M32.4561404,40.6694794 C32.4561404,40.6694794 33.3794376,42.9758964 33.6251887,43.2910064 C33.8718052,43.6061164 35.106618,44.4103524 35.2035339,44.3567366 C35.3004498,44.3021803 35.333332,44.1911863 35.2095911,43.9804859 C35.0867156,43.7697855 34.5606005,43.1715468 34.6627084,43.1536749 C34.7648162,43.1367436 36.3994072,44.7649687 36.7654379,44.5034744 C37.1323339,44.2419802 37.0804147,42.6748958 36.5274747,41.7587253 C35.9736694,40.8416141 33.8570947,39.8633621 33.744603,39.72509 C32.7901542,38.5464845 32.4561404,40.6694794 32.4561404,40.6694794" id="Fill-83" fill="#FCBF90"></path>
                <path d="M23.9002804,13.6414419 C23.9002804,13.6414419 25.2321326,24.1289902 26.5471372,29.0517369 C26.5471372,29.0517369 34.4238638,40.3292536 34.4035088,40.904374 C34.4035088,40.904374 33.526504,42.5426229 31.4728623,41.7186095 C31.4728623,41.7186095 22.0940334,34.6998287 20.8987359,32.6313506 C19.7025517,30.5628726 16.8109604,19.8887435 16.8783511,18.6274785 C16.9466284,17.3661247 21.4751034,10.7237056 23.9002804,13.6414419" id="Fill-84" fill="#3662C1"></path>
                <path d="M1.33122668,83.3220812 C1.33122668,83.3220812 -0.272793163,84.8261388 0.0405933739,85.8948361 C0.353052731,86.9635333 1.80037931,87.6756854 1.9960141,88.9817667 C2.19164889,90.2878479 2.97326088,91 3.67791699,91 C4.38164593,91 7.03430535,91 7.03430535,91 C7.03430535,91 7.55167128,90.081427 6.30090667,89.8046354 C5.04921489,89.5269055 4.57728072,87.9928229 4.65516377,86.5675805 C4.73397399,85.1423381 4.5383392,83.2432659 4.5383392,83.2432659 L1.87826236,82.6099291 L1.33122668,83.3220812" id="Fill-85" fill="#0B0B36"></path>
                <path d="M19.9056785,90.3371874 C19.918982,90.3432853 19.934186,90.348512 19.9522408,90.3546099 L29.2105263,90.3546099 C29.1240536,90.0523291 28.8209238,89.5026483 27.7623453,89.3449744 C26.3255674,89.1306773 23.8359124,88.3658283 23.2800162,86.6810697 C23.2629117,86.6270599 23.2467575,86.5713078 23.2325037,86.5155557 C22.7915877,84.7149374 19.5854443,87.0669787 19.5854443,87.0669787 C19.5854443,87.0669787 19.5749915,87.1384111 19.561688,87.2603688 C19.4866183,87.9206827 19.2965683,90.0575558 19.9056785,90.3371874" id="Fill-86" fill="#0B0B36"></path>
                <path d="M26.6140351,42.0966927 C26.6140351,42.0966927 26.1722055,47.8103603 25.6537232,54.678557 C24.9483461,64.0086171 24.0999988,75.4690155 24.0164559,77.6404595 C23.8717632,81.4105508 23.2895472,87.4414458 23.2895472,87.4414458 C23.2895472,87.4414458 21.9097986,88.873884 19.1477176,88.2698115 C19.1477176,88.2698115 16.6870798,79.6608853 15.9842865,70.5524376 C15.97309,70.4032067 15.9618936,70.2530821 15.9515584,70.1029576 C15.2978572,60.8300878 14.2807018,41.3049645 14.2807018,41.3049645 L26.6140351,42.0966927" id="Fill-87" fill="#A83F3F"></path>
                <path d="M26.6140351,40.172446 C26.6140351,40.172446 26.1722055,45.9721621 25.6537232,52.9437946 L15.9842865,69.0567376 C15.97309,68.9052592 15.9618936,68.7528738 15.9515584,68.6004884 C15.2978572,59.1879682 14.2807018,39.3687943 14.2807018,39.3687943 L26.6140351,40.172446" id="Fill-88" fill="#9E332E"></path>
                <path d="M25.3157895,41.8000244 C25.3157895,41.8000244 16.9010677,62.4395335 11.3683744,72.1393986 C5.83568115,81.8392638 4.10682837,84.5460993 4.10682837,84.5460993 C4.10682837,84.5460993 0.93696131,83.3054292 0.649122807,82.4595988 C0.649122807,82.4595988 2.76510016,63.7336807 6.46965456,59.1694053 C8.56377076,56.5900237 11.0231504,48.8492051 11.1379214,46.1423696 C11.2536034,43.4355341 11.8875768,38.0780142 11.8875768,38.0780142 L25.3157895,41.8000244" id="Fill-89" fill="#A83F3F"></path>
                <path d="M20.122807,11.1906691 C20.122807,11.1906691 20.4985187,14.7732367 23.6980102,15.4893617 C23.6980102,15.4893617 25.1396097,14.5784676 25.8096746,13.6476199 C25.8919473,13.5328421 25.9723916,13.4223023 26.0491794,13.3173247 C26.8088301,12.2724055 27.2631579,11.705315 27.2631579,11.705315 C27.2631579,11.705315 27.2631579,11.7045204 27.2613296,11.7030195 C27.179057,11.5808253 24.4832569,7.6221398 24.3982418,7.74760074 C22.446552,10.6405304 20.122807,11.1906691 20.122807,11.1906691" id="Fill-90" fill="#FCBF90"></path>
                <path d="M24.6795938,8.40696833 C24.5960734,9.38848317 24.8959514,11.6989145 26.2068238,13.5531915 C26.867828,12.3946966 27.2631579,11.7659672 27.2631579,11.7659672 C27.2631579,11.7659672 27.2631579,11.7650862 27.261567,11.7634221 C27.1875918,11.657704 24.7034567,8.11683071 24.6795938,8.40696833" id="Fill-91" fill="#F0A76F"></path>
                <path d="M28.4398977,12.2369682 C28.4398977,12.2369682 23.6642039,10.3013964 24.8583504,7.19805418 C26.052497,4.094712 26.2399191,1.75486151 29.3395238,2.85948381 C32.4391285,3.96391872 32.5721089,5.3977728 32.4132464,6.53537449 C32.2552763,7.67306987 29.712583,12.6604536 28.4398977,12.2369682" id="Fill-92" fill="#FCBF90"></path>
                <path d="M12.3006291,41.7248954 C14.6968692,43.7281956 28.5910875,43.6663381 27.9832211,42.0103237 C27.6959974,41.2291515 27.1757433,39.700387 26.9201323,37.4761671 C26.6898114,35.4799364 26.6735535,32.9216858 27.2299364,29.8394137 C27.3663225,29.0829845 27.5370309,28.2956266 27.7483841,27.4773399 C28.0319949,26.3709739 28.2451546,25.2398648 28.3815407,24.1308478 C28.4267016,23.7658884 28.4628304,23.4044637 28.4917334,23.0465737 C28.7103124,20.2649291 28.4203791,17.7328355 27.5397405,16.2540872 C26.2002667,14.0065382 22.0219755,10.9716312 22.0219755,10.9716312 C22.0219755,10.9716312 13.3456535,12.9906608 11.335088,28.6429124 C11.335088,28.6429124 10.2159996,39.9813969 12.3006291,41.7248954" id="Fill-93" fill="#6D89CF"></path>
                <path d="M30.5537252,9.60568119 C30.3394328,9.19946465 29.8791011,8.97626664 29.4138089,9.049128 C28.6429517,9.16976259 27.508988,9.48100943 27.0020279,10.2814271 C26.3889137,11.2499642 26.9375418,12.8663716 26.6478503,14.0609904 C26.3978425,15.0928727 27.6161342,16.1347518 27.6161342,16.1347518 C27.6161342,16.1347518 28.1975014,15.1253623 29.2382082,14.4414459 C30.0904172,13.8814323 31.2233887,12.0725864 31.1549342,11.2347768 C31.1162426,10.7580058 30.8106776,10.0915838 30.5537252,9.60568119" id="Fill-94" fill="#93B3F4"></path>
                <path d="M24.766535,8.06680646 C24.6842302,8.06424163 23.5859188,7.71000913 24.2068626,2.93561251 C24.3037993,2.18611013 24.9146836,0.848405134 26.2443628,0.227904561 C27.5749566,-0.392691005 30.3559432,0.350541769 32.4473988,1.29981645 C34.5397689,2.24918613 34.2727356,3.64721229 33.9928994,5.0446685 C33.6993458,6.51156529 34.4035088,8.39007092 34.4035088,8.39007092 C32.1968265,8.18355404 31.1451545,5.49285002 30.3349098,5.23807621 C29.5255795,4.98301741 28.5726732,5.90692871 28.292837,6.22107374 C28.0130008,6.53531378 27.7450531,6.77137378 27.1122209,5.86437141 C26.4793887,4.95736904 25.9215452,6.82894012 25.8621029,7.21984028 C25.8621029,7.21984028 25.457895,8.08799012 24.766535,8.06680646" id="Fill-95" fill="#A83F3F"></path>
                <path d="M26.7642701,30.3333333 C26.9002306,29.5376169 27.0704063,28.7093653 27.2811,27.8485786 C27.5638257,26.6847504 27.7763202,25.494894 27.9122807,24.3282771 C25.6135583,21.1222649 22.1920364,17.9565963 20.1229161,18.0740946 C20.1229161,18.0740946 20.0130673,27.6951987 26.7642701,30.3333333" id="Fill-96" fill="#3662C1"></path>
                <path d="M18.6324972,13.6604481 C18.6324972,13.6604481 22.2520812,12.7676491 25.1299243,16.1337268 C28.0086958,19.4998044 33.1052632,28.6487864 33.1052632,28.6487864 C33.1052632,28.6487864 32.0952331,30.3254041 29.1124879,29.4193171 C27.5974427,28.959139 11.6625468,16.5486005 18.6324972,13.6604481" id="Fill-97" fill="#6D89CF"></path>
                <path d="M31.7445389,13.9593879 C31.7445389,13.9593879 31.571835,13.0339746 31.7650076,12.1566822 C31.9229997,11.4395159 31.5987,9.64004597 31.399131,9.28353703 C31.1989223,8.92719402 30.2995823,8.22612337 30.21387,8.42491216 C30.127518,8.62370095 30.453097,9.7094893 30.479962,9.89906876 C30.5445661,10.3661726 30.5074667,10.9408017 30.4486194,10.894755 C30.3904118,10.8486254 29.9068407,10.1989943 29.9068407,10.1989943 C29.9068407,10.1989943 29.8006597,10.3812726 29.9068407,10.7712172 C30.0136613,11.1609959 30.2931859,12.0133153 30.4825206,12.2408107 C30.6718553,12.468223 30.6686571,14.1985816 30.6686571,14.1985816 L31.7445389,13.9593879" id="Fill-98" fill="#FCBF90"></path>
                <path d="M33.3415172,12.59966 C33.3415172,12.59966 35.5742216,22.1370573 33.5649803,28.3159532 C33.5649803,28.3159532 30.6686292,28.8312855 29.5493874,27.2656401 C28.4291824,25.6999947 30.4451661,13.0462218 30.4451661,13.0462218 C30.4451661,13.0462218 31.6982931,11.6350867 33.3415172,12.59966" id="Fill-99" fill="#6D89CF"></path>
            </g>
        </g>
    </g>
</svg>