<?xml version="1.0" encoding="UTF-8"?>
<svg width="360px" height="180px" viewBox="0 0 360 180" version="1.1" xmlns="http://www.w3.org/2000/svg" xmlns:xlink="http://www.w3.org/1999/xlink">
    <!-- Generator: Sketch 55.2 (78181) - https://sketchapp.com -->
    <title>img_fail</title>
    <desc>Created with Sketch.</desc>
    <g id="img_fail" stroke="none" stroke-width="1" fill="none" fill-rule="evenodd">
        <g id="Group-36" transform="translate(0.000000, 33.000000)">
            <g id="Group-24" transform="translate(259.000000, 9.000000)">
                <path d="M25.3958333,17.5836461 C25.3958333,17.5836461 18.1666667,24.4347733 13.25,24.100128 C13.25,24.100128 14.2929688,21.3709673 15.9934896,19.8081538 C15.7018229,19.1241936 15.453125,18.5017925 15.2408854,17.9484161 C14.5416667,16.1036099 14.2708333,15.0231834 14.2708333,15.0231834 L19.0429688,8.768 C19.2669271,9.85156992 19.5846354,10.8141174 19.9609375,11.6697879 C21.9036458,16.0745331 25.3958333,17.5836461 25.3958333,17.5836461" id="Fill-4" fill="#EE9E71"></path>
                <path d="M15.450665,18.5105821 C14.7722468,16.6867929 14.3541667,15.7400931 14.3541667,15.7400931 L17.11332,12.056 C18.8832714,12.0606614 19.875,12.4249014 19.875,12.4249014 C19.875,12.4249014 19.3405153,16.5874783 15.450665,18.5105821 Z" id="Fill-5" fill="#DE8C5D"></path>
                <path d="M13.3014776,16.4331249 C13.3014776,16.4331249 20.7888123,14.967474 19.7818252,10.4309473 C18.774838,5.89466729 19.0629096,2.65031033 14.2402373,3.39441758 C9.41630142,4.13840154 8.87553543,6.0651893 8.83384086,7.65907075 C8.79214629,9.25307549 11.3279345,16.6976004 13.3014776,16.4331249" id="Fill-6" fill="#EE9E71"></path>
                <path d="M21.4736996,2.46248977 C21.5411484,2.36899551 21.7058792,2.28593409 22.0833333,2.23778254 C22.0833333,2.23778254 21.7681397,2.06122686 21.3634467,2.07888242 C21.2480054,1.5342349 20.9042757,0.579764183 19.9846367,0.406418605 C19.9846367,0.406418605 20.4879088,0.643564986 20.5903792,1.22419242 C19.4683937,0.170877275 17.1699448,-0.491875302 10.9892962,0.456843978 C2.8435517,1.70717921 5.90339427,7.01026986 7.00722048,7.59076354 C8.11104669,8.17112347 10.6624288,6.1894197 12.6482783,6.21536803 C14.6354249,6.24131637 15.2074429,9.20477673 15.9039819,9.56818718 C16.601818,9.93146387 16.2905156,9.22457237 17.1686477,8.73168776 C18.0480768,8.23907065 18.2374524,9.8066711 18.0428884,10.8480821 C17.8483244,11.8896269 19.1830332,13.152 19.1830332,13.152 C19.1830332,13.152 19.1830332,13.152 20.3491199,11.6436527 C21.5139095,10.1355729 22.3051362,4.03731294 21.6488072,2.79527048 C21.590438,2.68559195 21.5333659,2.57430837 21.4736996,2.46248977" id="Fill-7" fill="#0B0754"></path>
                <path d="M12.4594008,11.0181212 C12.4594008,11.0181212 13.8894478,11.8897314 14.2043679,14.2323862 C14.5205786,16.5749164 14.3940943,19.009418 13.2596076,20.3577095 C13.2596076,20.3577095 8.08149512,19.9363606 5.52083333,20.8821212 C5.52083333,20.8821212 7.3638903,18.0078266 7.55748872,16.3689153 C7.75108715,14.7300041 8.91525899,11.3501157 12.4594008,11.0181212" id="Fill-8" fill="#93B3F4"></path>
                <path d="M51.1475942,125.967317 C51.1475942,125.967317 53.3786463,128.128553 52.9437912,129.664203 C52.5076456,131.199853 50.4933759,132.223171 50.2211075,134.099927 C49.9501295,135.976683 48.8610561,137 47.8803738,137 C46.900982,137 43.2105198,137 43.2105198,137 C43.2105198,137 42.4892022,135.680069 44.2312036,135.282337 C45.9719146,134.883257 46.6287136,132.678877 46.5203224,130.630894 C46.4119312,128.582911 46.6841996,125.854065 46.6841996,125.854065 L50.3849847,124.944 L51.1475942,125.967317" id="Fill-9" fill="#0B0B36"></path>
                <path d="M23.7038041,135.87864 C23.6857006,135.887516 23.6650108,135.895124 23.6404417,135.904 L11.0416667,135.904 C11.1606328,135.464001 11.5718419,134.663886 13.0136601,134.434376 C14.9688431,134.122446 18.3567924,133.009133 19.1119689,130.556802 C19.136538,130.478185 19.1572278,130.397033 19.1766245,130.31588 C19.7766277,127.694903 24.1408755,131.11853 24.1408755,131.11853 C24.1408755,131.11853 24.1538066,131.222507 24.1719101,131.400028 C24.2740658,132.36118 24.5326879,135.471609 23.7038041,135.87864" id="Fill-10" fill="#0B0B36"></path>
                <path d="M13.25,65.8059134 C13.25,65.8059134 13.8817015,74.0467647 14.625678,83.9527991 C15.6349198,97.4095912 16.8502049,113.938981 16.9698827,117.070865 C17.1783935,122.508487 18.0112031,131.206877 18.0112031,131.206877 C18.0112031,131.206877 19.9877377,133.272889 23.9445085,132.401633 C23.9445085,132.401633 27.469452,119.984936 28.47746,106.847776 C28.4922655,106.63254 28.5083048,106.416014 28.5243441,106.199489 C29.4607922,92.8251826 30.9166667,64.664 30.9166667,64.664 L13.25,65.8059134" id="Fill-11" fill="#100C57"></path>
                <path d="M13.25,64.7250786 C13.25,64.7250786 13.8817015,73.0753731 14.625678,83.112965 L28.47746,106.312 C28.4922655,106.093905 28.5083048,105.874504 28.5243441,105.655103 C29.4607922,92.1031787 30.9166667,63.568 30.9166667,63.568 L13.25,64.7250786" id="Fill-12" fill="#0B0B36"></path>
                <path d="M15.4583333,66.7310456 C15.4583333,66.7310456 27.5114087,96.4261582 35.4363253,110.381848 C43.3612419,124.337538 45.8376152,128.232 45.8376152,128.232 C45.8376152,128.232 50.378068,126.446985 50.7916667,125.230046 C50.7916667,125.230046 47.760784,98.2881137 42.4531513,91.7212582 C39.4535822,88.0101706 35.9321218,76.8730608 35.7664214,72.9785987 C35.600721,69.0841367 34.6939352,61.376 34.6939352,61.376 L15.4583333,66.7310456" id="Fill-13" fill="#100C57"></path>
                <path d="M42.2419571,58.5047094 C42.2419571,58.5047094 41.8361611,63.2189818 41.995348,63.9806994 C42.1558396,64.7437257 43.6511521,67.2762402 43.8729698,67.2814753 C44.0947876,67.2867105 44.2539744,67.1348905 44.2213542,66.6650338 C44.1874291,66.1964859 43.7790235,64.6939916 43.9773546,64.7646664 C44.1756858,64.83665 45.6514261,69.1216383 46.5426115,69.0470371 C47.4337968,68.9724359 48.7412166,66.3273652 48.5676769,64.2725602 C48.3941371,62.2177552 45.4739719,58.5374292 45.3969881,58.197143 C44.738059,55.3164896 42.2419571,58.5047094 42.2419571,58.5047094" id="Fill-14" fill="#EE9E71"></path>
                <path d="M44.5104072,59.8860452 C43.0065754,60.37543 42.7634251,60.2705619 42.7634251,60.2705619 C42.7634251,60.2705619 35.2786245,47.243603 34.5227442,46.0512129 C33.7655425,44.8601175 18.7708333,31.5184246 18.7708333,31.5184246 L22.4392314,17.536 C22.4392314,17.536 39.5588627,38.7942051 41.4155267,41.8513068 C44.4839778,46.9018104 46.375,58.6858871 46.375,58.6858871 C46.375,58.6858871 45.6918005,59.5002338 44.5104072,59.8860452" id="Fill-15" fill="#ED6966"></path>
                <path d="M37.6650294,63.6161517 C37.2790138,65.2674536 36.7463123,66.5357885 36.0231764,67.1108882 C31.9944601,70.2953565 14.3175187,69.0932294 12.4787977,66.8032164 C11.8212845,65.9840563 11.6836056,63.6044679 12.2420415,60.9691354 C12.3720001,60.3511954 12.4903782,59.6891168 12.601036,58.9880923 C12.6447844,58.7011916 12.6872461,58.4065017 12.7258477,58.106619 C13.2122274,54.3639276 13.2932906,49.5333501 12.2381813,43.6473414 C12.1532579,43.1696063 12.0606141,42.6879765 11.9602501,42.1985576 C11.8264313,41.5468646 11.7067665,40.8899787 11.6012556,40.2317947 C11.306597,38.3836866 11.1264564,36.5259719 11.0659806,34.7340756 C10.903854,30.0649934 11.5497868,25.8454755 13.0861289,23.434341 C13.0925625,23.4203205 13.1002828,23.4109735 13.1092899,23.4014967 C18.0953248,22.7179979 22.1948106,15.344 22.1948106,15.344 C22.1948106,15.344 36.2702263,22.6629545 38.5091169,45.2856614 C38.5091169,45.2856614 38.6403622,47.7340541 38.645509,51.0042032 C38.6545161,54.9701839 38.4795223,60.1421862 37.6650294,63.6161517" id="Fill-16" fill="#ED6966"></path>
                <path d="M22.0833333,29.592 C22.0833333,29.592 21.6726198,53.4632264 12.3458862,56.9493941 C12.3078068,56.9644315 12.2683674,56.9782157 12.230288,56.992 C12.7443599,53.3792676 12.8300386,48.7164243 11.7148561,43.034798 C11.6250975,42.5736515 11.527179,42.1087456 11.4211007,41.636321 C11.2796629,41.0072569 11.1531849,40.3731804 11.0416667,39.7378508 C13.5209077,35.1450566 17.2730888,31.0629071 22.0833333,29.592" id="Fill-17" fill="#E75755"></path>
                <path d="M9.52701402,15.4309419 C9.25288356,13.8955307 10.6098294,12.6209992 10.9607163,12.4781735 C11.443186,12.2812751 13.0783742,13.3608899 13.3072731,14.0117446 C13.5375427,14.6627408 13.5882568,16.2009831 13.3716938,16.6232319 C13.1565014,17.045339 11.9859643,18.6818182 11.9859643,18.6818182 L9.35294118,17.755787 C9.35294118,17.755787 9.79977383,16.9666363 9.52701402,15.4309419 Z" id="Fill-18" fill="#EE9E71"></path>
                <path d="M23.7534965,21.1590996 C23.7534965,21.1590996 19.03173,23.5523607 10.3973471,32.8951972 C11.5619548,26.1225989 12.5636983,18.797276 12.5636983,18.797276 C12.5636983,18.797276 11.3396323,17.0801099 9.04273138,17.6529996 C9.04273138,17.6529996 -1.51241384,37.9699178 0.184733558,41.439445 C1.068853,43.2492955 2.65096147,44.3652656 4.19170762,44.763558 C4.50838783,44.9075945 4.94398469,44.9576942 5.47781704,44.9276344 C5.79449725,44.9238769 6.09954431,44.8888071 6.38520278,44.8161626 C12.6683966,43.7026975 27.544611,35.1258849 28.9819514,31.1289334 C30.6467845,26.4980959 30.2344539,19.4800092 23.7534965,21.1590996" id="Fill-19" fill="#ED6966"></path>
                <path d="M10.5477307,13.067681 C10.5477307,13.067681 13.4347694,10.8040258 13.7955131,11.9360796 C14.1549939,13.0679668 12.896184,14.9586994 12.841566,15.6710753 C12.7869478,16.3839526 10.5477307,13.067681 10.5477307,13.067681" id="Fill-20" fill="#EE9E71" transform="translate(12.203852, 13.695277) rotate(21.000000) translate(-12.203852, -13.695277) "></path>
            </g>
            <g id="Group-30" transform="translate(89.000000, 24.000000)">
                <path d="M13.9904555,19.6116952 C13.9904555,19.6116952 8.86615266,22.8798793 8.21621622,40.9377378 C8.21621622,40.9377378 10.09466,42.9076766 13.5699084,38.2964935 C17.0451568,33.6853105 18.4864865,18.6101695 18.4864865,18.6101695 L13.9904555,19.6116952" id="Fill-21" fill="#FFCBAF"></path>
                <path d="M8.21621622,118.065543 L10.3400252,118.898305 C10.3400252,118.898305 19.5630424,105.42956 20.6990615,93.5790085 C20.9019654,91.4644833 20.8339258,89.4139183 20.3953131,87.5219747 C20.3953131,87.5219747 20.4852226,86.9795919 20.6431718,86.0201885 C20.7160714,85.5737461 20.8059809,85.0352009 20.9080404,84.4186243 C21.2081438,82.609829 21.6212417,80.1345681 22.0926593,77.3164804 C23.1776486,70.8309131 24.5833963,62.5403881 25.6756757,56.4449782 L25.1034136,56.2518183 L18.9130207,54.1488059 L17.6336324,49.8698665 L13.0239463,48.5932203 C13.0239463,48.5932203 11.9936316,50.7141416 11.0726664,60.732872 C10.9037823,62.0466151 10.7494781,63.4959539 10.6328387,65.0680964 C10.2744155,69.8651136 10.2476857,75.8159734 11.0714514,82.6187835 C11.2828603,84.3597809 11.5501589,86.1583426 11.8806372,88.005514 C12.123636,89.3589125 12.1600858,91.2048047 12.0580263,93.3244467 C11.5926837,103.010584 8.21621622,118.065543 8.21621622,118.065543" id="Fill-22" fill="#0B0754"></path>
                <path d="M20.1782898,85.8135593 C20.2579235,85.357249 20.3561385,84.8068001 20.4676259,84.1765949 C20.7954516,82.3278188 21.2467098,79.7978458 21.7616749,76.9174683 C22.9468912,70.2885469 24.4824961,61.8147718 25.6756757,55.5846316 L25.0505504,55.3872022 L18.2883145,53.2377058 L16.8907415,48.8641866 L11.8552315,47.559322 C11.8552315,47.559322 12.3033375,49.3910012 11.2972973,59.6311812 C11.1128124,60.9739627 10.7295217,65.0795483 10.6021076,66.6864407 L20.1782898,85.8135593 Z" id="Fill-23" fill="#060632"></path>
                <path d="M14.3783784,50.6130686 L14.6180072,48.5232949 C18.6277116,49.6084435 29.3382395,45.4915254 29.3382395,45.4915254 C29.3382395,45.4915254 33.2224839,48.9693689 32.7118614,57.3067351 C32.4634504,61.3763616 32.0092849,78.6671618 31.5337911,83.7835924 C31.3619108,85.6381866 31.2126133,86.9585146 31.1511378,87.485112 C31.1498832,87.4876683 31.1498832,87.4889464 31.1498832,87.4902246 C31.1310642,87.6512714 31.1862667,87.8033711 31.2665611,87.9439675 C31.9653738,89.1518183 32.5437448,90.4107951 33.0192386,91.6978912 C37.6788263,104.350289 32.3003523,119.932203 32.3003523,119.932203 L30.9052361,119.358314 C30.9052361,119.358314 27.8440099,102.018945 25.3573909,94.3577193 C24.935845,93.0591199 24.5306089,92.0378788 24.1605016,91.4282018 C23.0790356,89.6502964 22.0753549,86.7450637 21.1645147,83.2902268 C19.4432022,76.7576071 18.0581228,68.2604723 17.1359912,61.7010115 C17.0092765,61.7074022 14.3783784,50.6130686 14.3783784,50.6130686" id="Fill-24" fill="#0B0754"></path>
                <path d="M29.7837838,19.9091722 C29.7786894,19.9236634 29.773595,19.9394965 29.767227,19.9539877 C28.7101432,23.0557881 26.5959754,27.1440674 22.6873123,27.8189844 C21.4977746,28.0242772 20.1413959,27.914251 18.5977987,27.3627781 C16.8275016,26.7307982 15.4494718,25.8854747 14.3783784,24.9226111 C15.867211,21.5617124 17.6757159,19.0345979 17.7597732,18.9183994 C17.763594,18.9147766 17.763594,18.9122272 17.763594,18.9122272 C17.763594,18.9122272 18.0208601,18.8772067 18.4462409,18.8251455 C18.7149694,18.5408216 18.8206778,17.271763 18.8537913,15.9350786 C18.8945463,14.2280619 18.8194042,12.4086038 18.8194042,12.4086038 L24.3200611,11.4299071 L24.6473751,11.3728814 C24.5938841,13.1392048 24.7454419,14.6454907 24.9925193,15.8309562 C25.1670018,16.6717176 25.389881,17.3503915 25.6216752,17.848864 C25.7897898,18.2154392 25.9655459,18.4827224 26.1298397,18.6461516 C26.5832395,18.9257792 27.0481017,18.9429541 27.5524453,18.9208146 C28.0593361,18.8984069 28.8986352,19.2498199 29.7646799,19.8946809 C29.7710478,19.8995113 29.7774158,19.9043418 29.7837838,19.9091722" id="Fill-25" fill="#FFCBAF"></path>
                <path d="M29.7812253,19.5596587 C28.9113294,18.8797001 28.0670188,18.5714126 27.5591531,18.5327883 C27.0909445,18.4969935 26.5830789,18.4200278 26.1302213,18.2431763 C26.1084739,18.2203978 26.0867265,18.1950727 26.0636999,18.1683328 C26.0521865,18.1550335 26.0419525,18.1403195 26.0304392,18.1261714 C26.0189258,18.1111744 26.0074125,18.0961774 25.9958992,18.0803315 C25.9831066,18.0644856 25.9715933,18.0475078 25.9600799,18.030813 C25.9485666,18.0136938 25.9370533,17.9961502 25.9242607,17.9780406 C25.9127474,17.9609213 25.9025133,17.9433777 25.891,17.925551 C25.8782074,17.9044704 25.8641355,17.8825408 25.851343,17.8603282 C25.8411089,17.8430675 25.8308748,17.8258068 25.8206407,17.8076972 C25.8065689,17.7822306 25.7912178,17.7553492 25.777146,17.7284678 C25.7681911,17.7106411 25.7579571,17.6938049 25.7490023,17.6752708 C25.7400475,17.6570198 25.7298134,17.6369294 25.7195793,17.6175465 C25.6863186,17.5496356 25.6530579,17.478612 25.6197972,17.4024951 L25.6185179,17.4024951 C25.3869721,16.8768925 25.1631018,16.1612807 24.9878434,15.2747597 C23.0395326,14.6076759 20.6345265,14.2224226 19.3642228,14.6625706 C19.3642228,14.6625706 21.0694744,15.0783838 21.1411129,16.8641592 C21.2153099,18.7011509 20.0895624,24.9336798 16.9937566,25.0243693 C14.9379881,25.0843573 18.915203,27.4313886 22.6723854,27.9152542 C26.59843,27.2036039 28.7219992,22.8928138 29.7837838,19.6221934 C29.7837838,19.6016786 29.7825045,19.580032 29.7812253,19.5596587" id="Fill-26" fill="#F2A57C"></path>
                <path d="M33.8918919,49.5619007 C33.8982181,50.3942654 33.7518333,51.1399521 33.3858714,51.7275786 C32.6160444,54.2068273 10.1015446,51.6166816 11.3471221,49.0010424 C11.3471221,49.0010424 12.4633059,32.878915 11.7640573,28.7221901 C11.7392241,28.5705034 11.719619,28.4239154 11.706549,28.2747781 C11.3471221,24.3314342 15.0224253,21.2156113 13.5611917,19.6021239 C13.5611917,19.6021239 14.8917246,18.9389089 18.1762328,18.6101695 C18.1762328,18.6101695 18.1762328,18.6125914 18.1723118,18.616033 C18.0782073,18.7710339 15.5465351,22.8762618 15.734744,23.9509428 C15.925567,25.0434694 22.987325,24.8484436 23.6748106,24.2692299 C24.2237535,23.8025703 27.5030336,21.0167616 28.0938007,19.0917428 C28.1826772,18.7998416 28.2218874,18.6183274 28.2218874,18.6183274 C28.2218874,18.6183274 31.6475523,19.0803982 33.294381,20.3168359 C33.294381,20.3168359 32.1167678,21.6696516 31.3573968,23.3085051 C31.2855114,23.4647807 31.2175471,23.6222034 31.1548108,23.7797536 C31.0201891,24.1152488 30.9117075,24.4576274 30.8345941,24.7987312 C30.7339546,25.2525166 30.8568132,25.710126 31.1221356,26.1983276 C31.3626248,26.6444649 31.7259727,27.1199198 32.1442149,27.6348897 C32.2801436,27.8031472 32.357257,27.8311901 32.4369845,27.8643318 C32.5180189,27.8974734 32.6016673,27.9369884 32.7519731,28.1256408 C32.2069513,30.1485548 31.3783089,34.0019063 30.7483316,37.6436614 C30.5901838,38.5665283 30.6489991,39.5085153 30.9130145,40.3995152 C31.017575,40.7538757 31.1535037,41.1018628 31.3208006,41.4358284 C32.3376519,43.4561931 33.875999,46.9373387 33.8918919,49.5619007" id="Fill-27" fill="#ED6966"></path>
                <path d="M30.8971994,1.79573267 C31.0790125,1.53801793 33.1431252,-1.17266179 37.6349767,1.46493072 C37.6349767,1.46493072 35.3075025,0.348737493 34.3235731,1.04800437 C34.3235731,1.04800437 36.5507828,0.824528682 37.5053013,1.95599779 C38.4611566,3.08759859 37.8141161,5.6019305 37.3756258,6.28671161 C36.9384724,6.97122936 34.8409381,8.7419153 33.9586101,8.44627422 C33.624395,8.33420716 33.3048853,8.10493717 33.0361764,7.86342014 C33.0348395,8.30286525 33.0094391,8.77207201 32.9479436,9.27551782 C32.3851253,13.9330829 28.3130479,16.2519888 27.0777888,14.9279909 C26.2863673,14.0787306 24.9708965,15.5084746 24.9708965,15.5084746 L20.5405405,2.2675732 C20.5405405,2.2675732 28.4627763,-2.50363924 30.8971994,1.79573267" id="Fill-28" fill="#0B0754"></path>
                <path d="M27.6062008,8.15985779 C27.3217123,9.46653724 26.6010976,11.0181528 25.9556308,12.8849135 C24.8941667,15.9519805 21.1407975,15.689161 18.9185668,15.2318761 C18.9172249,15.2318761 18.9172249,15.2318761 18.9158829,15.2318761 C17.9201733,15.0264159 17.2317648,14.782672 17.2317648,14.782672 C15.4013767,14.0064005 17.1673523,6.26567598 18.0463144,4.9065386 C18.9252764,3.54607652 20.4067636,2.15355682 24.9303988,3.96653481 C27.5538656,5.01768053 27.9967015,6.35535785 27.6062008,8.15985779" id="Fill-29" fill="#FFCBAF"></path>
                <path d="M22.5945946,122 L34.8516637,122 C34.8516637,122 35.1454546,120.323172 34.5049625,119.050232 C33.8909256,117.828561 32.9301874,117.27337 33.1613215,115.79661 C32.3815921,116.516859 31.1131393,117.322136 29.340647,117.108313 C29.1234367,117.424672 27.9385263,119.116505 27.2144918,119.584167 C26.4124843,120.101845 22.8410448,119.916781 22.5945946,122" id="Fill-30" fill="#060632"></path>
                <path d="M0,120.966102 L12.1951527,120.966102 C12.1951527,120.966102 12.6509297,119.376882 11.8502029,118.295896 C11.1422939,117.338289 11.4138206,116.793834 11.9374793,116.00262 C11.3861138,116.187124 10.6712781,116.354648 9.88440465,116.318427 C9.27624016,116.290129 8.63344216,116.064876 8.07099391,115.79661 C7.54594985,116.285601 5.29892751,118.367207 4.59655987,118.779227 C3.79860372,119.247843 0.245205273,119.080318 0,120.966102" id="Fill-31" fill="#060632"></path>
                <path d="M26.1412263,8.27118644 C25.9392661,9.40715891 27.2547592,11.7630708 26.5583606,13.2276199 C26.1321252,14.1240069 22.969265,15.9062492 21.3927874,15.5084746 C24.6015786,14.9281658 23.8105138,7.33412931 23.8105138,7.33412931 C25.0674191,6.95190175 26.5334125,7.73271008 27.7297297,9.11996924" id="Fill-32" fill="#F2A57C"></path>
                <path d="M33.8918919,49.616866 C26.3000764,50.0710329 21.5675676,35.2853749 21.5675676,35.2853749 C21.5675676,35.2853749 29.1844647,28.3088656 32.1269367,27.9152542 C32.2642257,28.0817821 32.3421107,28.1095368 32.422636,28.1423377 C32.5044813,28.1751387 32.5889669,28.2142475 32.7407768,28.4009606 C32.1903008,30.40308 31.3533662,34.216821 30.7170847,37.8211405 C30.5573543,38.7345207 30.6167581,39.6668246 30.8834155,40.5486655 C30.9890224,40.8993833 31.1263114,41.2437932 31.2952824,41.5743259 C32.3223095,43.5739221 33.8760509,47.0192832 33.8918919,49.616866" id="Fill-33" fill="#E75755"></path>
                <path d="M27.8473375,43.1598807 C27.2330971,43.1861921 26.2625974,43.1942879 25.6907955,43.0262996 C25.6907955,43.0262996 27.4787933,42.918018 27.0689275,42.4231608 C26.9941018,42.3341068 26.1084789,42.4464363 25.1156432,42.4939993 C24.7091277,42.5132268 23.6984232,43.2448868 23.7520296,43.2651264 C23.027226,43.2135155 22.399584,42.9402815 22.1851583,42.9089102 C22.1293183,42.9018263 22.1058655,42.8927185 22.1058655,42.8927185 L21.5675676,44.5989132 C21.5675676,44.5989132 21.7038172,44.6232007 21.9394622,44.652548 C22.5380673,44.7557697 23.7698984,44.9814408 24.9414223,45.3305732 C26.5797688,45.8294782 27.7189054,45.0573391 28.2259329,44.5260508 C28.5464547,44.1890622 28.7899172,43.7498638 28.7530628,43.4422225 C28.7139748,43.1042219 28.2214657,43.143689 27.8473375,43.1598807" id="Fill-34" fill="#FFCBAF"></path>
                <path d="M24.3154836,17.5762712 C24.3154836,17.5762712 26.7027027,14.9768288 26.7027027,13.9823457 C26.7027027,12.9877432 26.2488419,10.1115056 25.7860818,10.3533586 C25.3233217,10.5953308 23.801553,14.2063101 23.7348087,14.0091785 C23.6680645,13.8121661 24.0562935,13.0638291 23.9928865,12.7189382 C23.9661888,12.5741603 23.7014366,11.9840773 23.435572,12.6279452 C23.1997424,13.1985894 22.6835869,13.9508618 22.6502148,14.564677 C22.6179551,15.1787307 23.0540175,15.8986846 22.5945946,17.0577422 L24.3154836,17.5762712" id="Fill-35" fill="#FFCBAF"></path>
                <path d="M22.3551903,2.75503198 C27.1751542,1.94282985 28.6691499,5.94353108 28.6691499,5.94353108 C28.0359606,9.27490296 29.7837838,11.8683402 29.7837838,11.8683402 C29.7837838,11.8683402 28.1449409,12.2270365 25.2962788,10.4468548 C24.4258159,9.90301647 23.8050421,8.97954476 23.3608439,7.95981497 C23.9043659,10.3916809 25.1045286,12.4067797 25.1045286,12.4067797 C21.9620335,9.54998244 22.2282765,4.11278428 22.2669025,3.54089812 C21.6737186,3.7823992 20.5405405,3.7823992 19.625165,4.53544264 C18.5985297,5.38001507 18.0262547,5.94353108 17.0092783,7.95981497 C16.7319994,7.67996978 17.1917316,4.01362925 19.625165,2.5798976 C21.2474539,1.62416429 22.010316,2.19763061 22.3551903,2.75503198 Z" id="Fill-36" fill="#0B0754"></path>
                <path d="M8.21621622,41.0922804 C8.21621622,41.0922804 9.2240222,44.0127669 22.8021299,45.4915254 L23.6216216,43.5437116 C23.6216216,43.5437116 15.4254057,40.4467122 11.0539173,37.2892294 C10.1227358,36.6165053 8.21621622,41.0922804 8.21621622,41.0922804" id="Fill-37" fill="#FFCBAF"></path>
                <path d="M34.6506559,25.1672389 C33.1136218,28.4519498 29.7905794,32.4035103 26.4510234,35.4481552 C25.4932352,36.3220458 24.535447,37.119725 23.6157671,37.8056275 C20.8719706,39.8557139 18.486392,40.9099714 17.5679824,39.9827329 C16.6775188,39.0834385 21.4690004,30.4461478 24.5519606,25.7451753 C24.9419354,25.1507264 25.3039641,24.6196601 25.625344,24.1754747 C26.4522937,23.026715 27.2462163,22.1643832 27.9563007,21.5197618 C29.6991195,19.9358351 30.9414496,19.6551232 30.9414496,19.6551232 C36.4049073,19.3575177 34.6506559,25.1672389 34.6506559,25.1672389" id="Fill-38" fill="#FFCBAF"></path>
                <path d="M24.6486486,17.5438901 C24.6486486,17.5438901 24.48391,22.0902565 24.0800344,26.6975782 C23.7027297,30.9942868 23.7811134,37.2117394 22.873722,37.9120783 C18.3606789,41.3995064 16.6309225,40.0753472 16.6309225,40.0753472 C15.1163893,33.6763252 22.7661105,16.7171012 22.7661105,16.7171012 C23.8648113,16.0412742 24.6486486,17.5438901 24.6486486,17.5438901" id="Fill-40" fill="#FFCBAF"></path>
                <path d="M24.6486486,25.4434743 C26.1891892,27.258943 29.7837838,29.4397153 32.0986345,29.9829375 C33.8918919,28.4322034 36.713991,23.5246564 33.8918919,20.0400834 C32.7877731,19.3253311 30.7108493,18.608806 27.9487062,18.6101234 L26.7027027,22.5586073 L24.6486486,25.4434743 Z" id="Fill-41" fill="#ED6966"></path>
                <path d="M13.8092793,19.6440678 C13.8092793,19.6440678 11.7857245,20.6094841 10.2702703,23.8247579 C10.2702703,23.8247579 11.1474389,25.6227339 12.8562748,25.8415423 C14.5663745,26.0591417 14.7622839,20.2045073 13.8092793,19.6440678" id="Fill-42" fill="#ED6966"></path>
                <path d="M10.4963988,37.6122969 C10.088842,37.4476153 11.2773998,34.4143054 11.9973449,33.1382315 C11.9973449,35.9106231 11.9418662,37.8882855 11.9418662,37.8882855 C11.6403023,37.8249082 11.1584798,37.732912 10.4963988,37.6122969 Z" id="Fill-43" fill="#F2A57C"></path>
            </g>
            <g id="Group-26" transform="translate(174.000000, 19.000000)">
                <g id="Group-25">
                    <path d="M6.28005115,13.7280797 C6.28005115,13.7280797 6.13038954,10.6400857 6.14774161,9.30305182 C6.16617819,7.96587965 8.75705925,4.1300813 9.63659234,4.1300813 C10.5172099,4.1300813 10.2233092,7.66490532 10.0769011,8.7644225 C9.93049304,9.86393969 10.3708018,10.8611505 9.88169034,11.7336581 C9.39257885,12.6061657 8.43170793,14.4552846 8.43170793,14.4552846 L6.28005115,13.7280797" id="Fill-44" fill="#EE9E71"></path>
                    <path d="M25.6097561,19.6546059 L20.4258477,24.7804878 C19.2035594,23.7279808 18.2354638,22.5236217 17.4647732,21.3467326 C17.3444373,21.1633665 17.2281577,20.9797216 17.1186385,20.7985867 C16.425017,19.6558608 15.9166316,18.5810432 15.5515676,17.7510853 C15.4920757,17.6168029 15.435288,17.4896319 15.3839086,17.3688753 C15.0986179,16.7238173 18.2625056,14.6581259 20.049967,13.3494643 C20.6043234,12.9259794 21.0329355,12.5939684 21.176257,12.3902439 C21.176257,12.3902439 21.0532169,13.2547833 21.1708486,13.8443434 C21.4453226,15.2267698 22.0348333,16.0731817 22.7338632,16.863538 C24.5456622,18.9126358 25.6097561,19.6546059 25.6097561,19.6546059" id="Fill-45" fill="#EE9E71"></path>
                    <path d="M20.4878049,12.3902439 C20.4878049,12.3902439 19.6301968,17.9086031 16.9625844,19.6178862 C16.862154,19.4382708 16.7651089,19.2583822 16.6737059,19.0809522 C16.0948205,17.9615999 15.6705302,16.9087667 15.3658537,16.095785 C15.690842,15.279252 17.9138523,13.5615003 19.2352458,12.4272597 C19.9811391,12.4085469 20.4878049,12.3902439 20.4878049,12.3902439" id="Fill-46" fill="#DC8757"></path>
                    <path d="M14.1741477,19.5924545 C14.1741477,19.5924545 21.9354106,17.2238074 20.2476503,12.8286703 C18.5585377,8.43340963 18.4233005,5.16746529 13.3965338,6.49381867 C8.36976705,7.82029567 8.05601674,9.80475767 8.22912036,11.3971234 C8.40222398,12.9894891 12.1117804,20.0954305 14.1741477,19.5924545" id="Fill-47" fill="#EE9E71"></path>
                    <path d="M20.615301,13.4225728 C20.615301,13.4225728 19.8688238,12.9070305 21.5113292,10.2075846 C22.357507,8.81582002 23.1129317,7.50720742 21.9139667,5.24294573 C20.7150017,2.97895014 20.7904163,1.15439613 17.4849542,1.1549283 C14.1807703,1.15559352 13.8484346,-0.437997554 12.1650264,0.117590717 C10.48034,0.673045945 8.9848293,3.24783038 7.54428181,3.73117621 C6.10245611,4.21478813 5.0095829,12.0752446 8.30737573,11.8582512 C8.30737573,11.8582512 9.54724358,11.2161849 10.1019886,10.1777829 C10.6554554,9.13924796 13.4675268,6.7733413 14.3622768,7.54472559 C15.2557485,8.31637597 18.8424178,13.4588936 20.615301,13.4225728" id="Fill-48" fill="#060632"></path>
                    <path d="M19.718285,22.3963195 C17.2230108,22.2496673 12.6845233,24.494876 8.59043476,27.1322118 L9.53286687,14.4081391 C8.71302755,13.0000754 6.41185862,13.5144336 6.41185862,13.5144336 C6.41185862,13.5144336 5.05184479,14.6963822 2.49272018,21.9342195 C0.128977837,28.6201181 0,34.6628474 0,34.6628474 C0.0919445968,38.0185133 2.84517447,38.203252 2.84517447,38.203252 C11.6297145,36.7316685 26.0854483,30.3214862 26.0854483,30.3214862 C27.9154012,28.074253 25.0102073,22.7077182 19.718285,22.3963195" id="Fill-49" fill="#6D89CF"></path>
                    <path d="M22.4893083,125.46812 C22.4190102,126.17823 22.2480894,126.779188 21.896599,126.929742 C21.8359497,126.956089 21.7339485,126.979926 21.5961092,127 L9.71849071,127 C9.40008177,126.991218 9.2195122,126.986199 9.2195122,126.986199 C9.2195122,126.986199 9.24983686,125.650038 11.2691836,125.390334 C12.9012018,125.182068 15.5394473,124.474467 16.8365157,122.935059 C17.1438975,122.569967 17.3768461,122.158455 17.5022799,121.696758 C18.1556385,119.282886 22.4327941,122.533584 22.4327941,122.533584 C22.4327941,122.533584 22.4824163,122.953878 22.5113626,123.537273 C22.5416872,124.106866 22.5554712,124.832032 22.4893083,125.46812" id="Fill-50" fill="#060632"></path>
                    <path d="M33.2633266,127 L20.4878049,127 C20.6305407,126.69262 21.1521267,125.788045 22.4847722,125.46812 C22.6128342,125.434245 22.7489001,125.410407 22.8929699,125.390334 C24.2709708,125.208415 26.3893302,124.647604 27.7406515,123.485834 C28.3075928,123.000299 28.7384681,122.409377 28.9252253,121.696758 C29.5575316,119.282886 33.698204,122.533584 33.698204,122.533584 C33.698204,122.533584 33.7408913,122.918749 33.7729068,123.467014 C33.8396058,124.651368 33.8556135,126.594761 33.2633266,127" id="Fill-51" fill="#060632"></path>
                    <path d="M28.6829268,60.9186992 C28.6829268,60.9186992 28.6725005,61.3616516 28.6555576,62.1571839 C28.5421709,67.2867761 28.092534,87.1216237 27.6676597,98.1788862 C27.6494135,98.5811074 27.6350773,98.9706 27.6194377,99.3486369 C27.6116179,99.5484746 27.6024949,99.750858 27.5946751,99.9494229 C27.3392292,105.294127 26.5976541,110.529366 25.8469559,114.715775 C24.890337,120.055388 23.9180786,123.690652 23.9180786,123.690652 C20.2714578,124.412359 17.9085831,123.058045 17.9085831,123.058045 C17.9085831,123.058045 16.924595,114.771781 16.5505492,109.756745 C16.4280395,108.128768 15.8272203,102.576589 15.0739155,95.8228378 C14.4900391,90.5990545 13.814932,84.6573829 13.1958667,79.2528547 C13.161981,78.9639174 13.1307019,78.6762529 13.0968162,78.392407 C12.0971886,69.6555531 11.2682927,62.5377665 11.2682927,62.5377665 L17.7156954,61.9382534 L28.6829268,60.9186992" id="Fill-52" fill="#0B0754"></path>
                    <path d="M25.8699041,115.642276 L15.0799059,96.422318 C14.4951104,91.1081153 13.8189407,85.0635983 13.1989009,79.5655222 C13.1649619,79.2715836 13.1336335,78.9789399 13.0996945,78.6901808 C12.0984934,69.8020993 11.2682927,62.5611097 11.2682927,62.5611097 L17.7258442,61.9512195 L28.6829268,62.1739395 L25.8699041,115.642276" id="Fill-53" fill="#060632"></path>
                    <path d="M11.2682927,62.6623586 C11.2682927,62.6623586 17.2748481,91.6514881 22.1684051,105.643879 C27.0632608,119.635002 27.1243004,123.521777 27.1243004,123.521777 C27.1243004,123.521777 31.6139571,124.472864 33.5931983,123.368335 C33.5931983,123.368335 34.72308,96.8444227 31.7620105,89.8000389 C29.8035488,85.140981 28.304832,75.2243147 28.8139282,71.6533003 C29.3230243,68.0810178 29.7983539,60.9186992 29.7983539,60.9186992 L11.2682927,62.6623586" id="Fill-54" fill="#0B0754"></path>
                    <path d="M29.5351675,59.6839163 C29.2175234,61.463289 28.4600645,62.8801732 27.2884467,63.7437858 C25.95312,64.7282279 23.8481173,65.0830849 21.5305375,65.0462001 C18.8244545,65.0004121 15.8288268,64.4191589 13.4342794,63.67256 C12.1453776,63.271915 11.0324017,62.825482 10.2297396,62.3892241 C6.65013553,60.4470497 7.15836601,57.8612995 7.24388556,48.1834966 C7.33184853,38.3060071 13.1703905,25.5385315 14.2222809,23.400995 C16.0939374,19.596012 24.0362603,20.8474235 24.0362603,20.8474235 C25.777194,22.5097824 27.3018855,24.9238276 28.3403372,28.7827386 C28.7618264,30.3439823 29.0073897,32.5290875 29.1478861,34.9825613 C29.5779272,42.4803466 29.0220502,52.4799374 29.4423177,54.8138536 C29.7636268,56.6046732 29.7905044,58.2594007 29.5351675,59.6839163" id="Fill-55" fill="#93B3F4"></path>
                    <path d="M24.4104809,17.5528455 C24.4104809,17.5528455 25.8643328,20.5465421 25.5705564,21.079241 C25.5705564,21.079241 17.5907678,21.734532 14.3414634,23.7479675 C14.3414634,23.7479675 15.4099899,20.8410723 16.7094384,20.1188372 C18.0075204,19.396721 24.4104809,17.5528455 24.4104809,17.5528455" id="Fill-56" fill="#6D89CF"></path>
                    <path d="M29.5490017,58.8536585 C15.9576681,53.1399688 23.7178848,32.0081301 23.7178848,32.0081301 C25.6188963,32.1570857 27.4817078,33.1774318 29.1928429,34.7464311 C29.5883252,42.0638764 29.0771194,51.8229528 29.4636135,54.1007326 C29.7591017,55.8484787 29.7838193,57.463406 29.5490017,58.8536585" id="Fill-57" fill="#6D89CF"></path>
                    <path d="M25.6374474,50.5934959 C25.6374474,50.5934959 24.8374336,51.8694176 24.0675862,51.5690698 C23.2977388,51.2676097 21.7447708,50.950576 20.5899998,51.6358138 C19.4352287,52.3210515 17.6952288,54.170971 18.7824271,54.622605 C19.870832,55.074239 21.937836,53.8761853 22.4277389,53.6748411 C22.9176417,53.4746093 23.7695418,53.8761853 24.7119412,53.4412373 C25.6555472,53.0062893 26.6341463,52.1375057 26.6341463,52.1375057 L25.6374474,50.5934959" id="Fill-58" fill="#EE9E71"></path>
                    <path d="M42,37.3983432 C36.4861377,30.5850776 23.7837964,21.7067446 23.7837964,21.7067446 C21.0176776,21.2848614 17.9624515,26.5459396 20.2863344,31.2662764 C21.6301928,33.9949055 27.3755859,37.2488118 32.3283842,39.3000763 L24.2762587,50.7884358 C23.6429179,53.2295045 27.261658,52.5802569 27.261658,52.5802569 C27.261658,52.5802569 30.272783,51.6511171 35.7302939,46.9657989 C38.6642419,44.4467693 40.271482,41.7820425 41.1216531,39.9058703 C41.8346209,38.7351798 42,37.3983432 42,37.3983432" id="Fill-59" fill="#93B3F4"></path>
                </g>
            </g>
            <g id="Group-31">
                <path d="M51.754386,65.2499339 C51.754386,65.2499339 53.2266708,68.9503393 53.6185442,69.4559004 C54.0117974,69.9614615 55.9808232,71.2517741 56.1353648,71.1657533 C56.2899065,71.0782233 56.3423402,70.9001451 56.1450237,70.5620982 C55.949087,70.2240514 55.1101468,69.2642399 55.2729674,69.2355663 C55.4357881,69.2084018 58.042298,71.820719 58.6259686,71.4011787 C59.211019,70.9816385 59.1282288,68.4674153 58.2465137,66.9975152 C57.3634188,65.5261061 53.9883402,63.956603 53.8089616,63.7347598 C52.2870026,61.8438104 51.754386,65.2499339 51.754386,65.2499339" id="Fill-83" fill="#FCBF90"></path>
                <path d="M38.1112579,21.8862694 C38.1112579,21.8862694 40.2350223,38.7124458 42.3319214,46.6104789 C42.3319214,46.6104789 54.8921071,64.7040771 54.8596491,65.6267979 C54.8596491,65.6267979 53.461182,68.2551971 50.1864561,66.9331537 C50.1864561,66.9331537 35.2310262,55.6722526 33.3250113,52.3535955 C31.4175824,49.0349384 26.8066666,31.9094126 26.9141274,29.8858446 C27.0230021,27.8621341 34.2440838,17.2050661 38.1112579,21.8862694" id="Fill-84" fill="#3662C1"></path>
                <path d="M2.12276688,133.681581 C2.12276688,133.681581 -0.434994503,136.094684 0.0647299746,137.809297 C0.562975977,139.523911 2.87087512,140.666484 3.1828333,142.761955 C3.49479148,144.857426 4.74114572,146 5.86478656,146 C6.98694892,146 11.2168653,146 11.2168653,146 C11.2168653,146 12.0418542,144.526246 10.0473917,144.082162 C8.05145076,143.636574 7.2989071,141.175298 7.42309898,138.888646 C7.54876934,136.601993 7.23681116,133.55513 7.23681116,133.55513 L2.995067,132.539007 L2.12276688,133.681581" id="Fill-85" fill="#0B0B36"></path>
                <path d="M31.7414874,144.936586 C31.7627011,144.94637 31.7869453,144.954756 31.8157353,144.964539 L46.5789474,144.964539 C46.4410584,144.479561 45.9576893,143.597655 44.2696858,143.344684 C41.9786074,143.000867 38.0086171,141.773746 37.122188,139.070727 C37.0949133,138.984074 37.0691538,138.894626 37.0464248,138.805177 C36.3433426,135.916273 31.2308436,139.689878 31.2308436,139.689878 C31.2308436,139.689878 31.2141757,139.804484 31.192962,140.000152 C31.0732562,141.059557 30.7702035,144.487947 31.7414874,144.936586" id="Fill-86" fill="#0B0B36"></path>
                <path d="M42.4385965,67.5397486 C42.4385965,67.5397486 41.7340574,76.7067319 40.9072883,87.7260365 C39.7824978,102.695144 38.4297278,121.082157 38.2965108,124.566012 C38.0657846,130.61473 37.1373861,140.290671 37.1373861,140.290671 C37.1373861,140.290671 34.9372464,142.588869 30.532847,141.619698 C30.532847,141.619698 26.6091272,127.807574 25.4884568,113.194021 C25.470603,112.954595 25.4527492,112.713736 25.4362687,112.472877 C24.3938805,97.5955256 22.7719298,66.2695035 22.7719298,66.2695035 L42.4385965,67.5397486" id="Fill-87" fill="#A83F3F"></path>
                <path d="M42.4385965,64.4524957 C42.4385965,64.4524957 41.7340574,73.7575348 40.9072883,84.9427913 L25.4884568,110.794326 C25.470603,110.551295 25.4527492,110.306809 25.4362687,110.062322 C24.3938805,94.960916 22.7719298,63.1631206 22.7719298,63.1631206 L42.4385965,64.4524957" id="Fill-88" fill="#9E332E"></path>
                <path d="M40.3684211,67.0637754 C40.3684211,67.0637754 26.9503511,100.177713 18.1279484,115.740134 C9.30554562,131.302555 6.54872632,135.64539 6.54872632,135.64539 C6.54872632,135.64539 1.49407344,133.654864 1.03508772,132.297818 C1.03508772,132.297818 4.40921377,102.254037 10.3164762,94.9311337 C13.6557426,90.7927853 17.577456,78.3734499 17.7604693,74.030615 C17.9449351,69.68778 18.9558657,61.0921986 18.9558657,61.0921986 L40.3684211,67.0637754" id="Fill-89" fill="#A83F3F"></path>
                <path d="M32.0877193,17.9542604 C32.0877193,17.9542604 32.6868272,23.702116 37.788719,24.8510638 C37.788719,24.8510638 40.0874857,23.3896294 41.1559676,21.8961813 C41.2871591,21.7120324 41.4154353,21.5346827 41.5378807,21.3662573 C42.7492156,19.6897935 43.4736842,18.779956 43.4736842,18.779956 C43.4736842,18.779956 43.4736842,18.7786811 43.4707688,18.776273 C43.3395773,18.5802252 39.040869,12.2289276 38.9053045,12.4302166 C35.7931505,17.0716202 32.0877193,17.9542604 32.0877193,17.9542604" id="Fill-90" fill="#FCBF90"></path>
                <path d="M39.3539468,13.488103 C39.2207657,15.0628411 39.6989495,18.769687 41.7892596,21.7446809 C42.8432934,19.8859968 43.4736842,18.8772661 43.4736842,18.8772661 C43.4736842,18.8772661 43.4736842,18.8758526 43.4711474,18.8731828 C43.353187,18.703569 39.3919986,13.0226075 39.3539468,13.488103" id="Fill-91" fill="#F0A76F"></path>
                <path d="M45.3501071,19.632938 C45.3501071,19.632938 37.7348116,16.527515 39.6389912,11.5485265 C41.5431709,6.56953793 41.8420332,2.81549209 46.784646,4.58774325 C51.7272589,6.35969377 51.9393088,8.66016296 51.6859874,10.4853261 C51.4340892,12.3106396 47.3795243,20.3123761 45.3501071,19.632938" id="Fill-92" fill="#FCBF90"></path>
                <path d="M19.6145167,66.9432388 C23.4355482,70.1573248 45.5911936,70.0580808 44.6218931,67.4011787 C44.1638878,66.1478695 43.3342933,63.6951264 42.9266974,60.1265977 C42.559429,56.9238539 42.5335042,52.819408 43.4207094,47.8742242 C43.6381899,46.6606125 43.9104006,45.3973789 44.2474233,44.0845233 C44.6996676,42.3094745 45.0395708,40.4947282 45.2570513,38.7154261 C45.3290647,38.1298868 45.3866755,37.5500186 45.4327641,36.9758215 C45.781309,32.5129632 45.3189829,28.4504833 43.9147214,26.077986 C41.7788037,22.4720282 35.1161231,17.6028369 35.1161231,17.6028369 C35.1161231,17.6028369 21.280907,20.8421592 18.07487,45.9545628 C18.07487,45.9545628 16.2903777,64.1459774 19.6145167,66.9432388" id="Fill-93" fill="#6D89CF"></path>
                <path d="M48.720805,15.4113127 C48.3790956,14.7595806 47.6450531,14.4014827 46.9031007,14.5183812 C45.673896,14.7119268 43.8656836,15.2112899 43.0572877,16.4954765 C42.0796191,18.0493932 42.9544585,20.64275 42.492518,22.5593912 C42.093857,24.2149386 44.0365383,25.8865248 44.0365383,25.8865248 C44.0365383,25.8865248 44.9635833,24.2670648 46.6230888,23.1697923 C47.9820166,22.2713089 49.7886469,19.3692045 49.6794897,18.0250265 C49.6177922,17.2600973 49.1305399,16.1908928 48.720805,15.4113127" id="Fill-94" fill="#93B3F4"></path>
                <path d="M39.4925828,12.9423488 C39.3613401,12.9382338 37.6099787,12.3699048 38.6001322,4.7098838 C38.754707,3.50738549 39.7288197,1.36117747 41.8491191,0.365649076 C43.9708767,-0.630031722 48.4054229,0.562407673 51.7404467,2.0854198 C55.0769288,3.60858433 54.651119,5.85157137 54.2048937,8.09364396 C53.7367946,10.4471267 54.8596491,13.4609929 54.8596491,13.4609929 C51.3408855,13.1296581 49.663895,8.81270442 48.3718831,8.40394644 C47.0813296,7.99473123 45.5618303,9.47705045 45.115605,9.98106337 C44.6693797,10.4852287 44.2421117,10.8639623 43.2330008,9.40877171 C42.22389,7.9535811 41.3343559,10.9563215 41.2395695,11.58348 C41.2395695,11.58348 40.5950218,12.9763358 39.4925828,12.9423488" id="Fill-95" fill="#A83F3F"></path>
                <path d="M42.6781604,48.6666667 C42.8949622,47.3900227 43.1663235,46.0611795 43.5022945,44.6801371 C43.9531275,42.8128962 44.2919701,40.9038959 44.5087719,39.0321808 C40.8432416,33.8884689 35.3873013,28.8094841 32.0878933,28.9979979 C32.0878933,28.9979979 31.9127289,44.4340551 42.6781604,48.6666667" id="Fill-96" fill="#3662C1"></path>
                <path d="M29.7112793,21.9167629 C29.7112793,21.9167629 35.4830484,20.4843601 40.0720415,25.8848803 C44.6625149,31.2854005 52.7894737,45.963987 52.7894737,45.963987 C52.7894737,45.963987 51.1788851,48.6539451 46.4226158,47.200223 C44.006733,46.4619154 18.5970341,26.5505019 29.7112793,21.9167629" id="Fill-97" fill="#6D89CF"></path>
                <path d="M50.6196702,22.3963805 C50.6196702,22.3963805 50.3442774,20.9116516 50.6523094,19.5041275 C50.9042428,18.3535091 50.3871163,15.4664474 50.0688845,14.894466 C49.7496329,14.3227508 48.3155502,13.1979562 48.1788737,13.516892 C48.0411773,13.8358279 48.5603438,15.577862 48.6031827,15.8820224 C48.7062,16.6314418 48.6470415,17.5533741 48.553204,17.4794971 C48.4603864,17.4054869 47.6892865,16.3632215 47.6892865,16.3632215 C47.6892865,16.3632215 47.5199709,16.6556682 47.6892865,17.2812936 C47.859622,17.9066528 48.3053504,19.2741103 48.6072626,19.6391028 C48.9091747,20.0039622 48.9040749,22.7801418 48.9040749,22.7801418 L50.6196702,22.3963805" id="Fill-98" fill="#FCBF90"></path>
                <path d="M53.1662032,20.2148392 C53.1662032,20.2148392 56.7264614,35.5165975 53.5225362,45.4299909 C53.5225362,45.4299909 48.9040303,46.2567877 47.1192934,43.7448731 C45.3330206,41.2329585 48.5476973,20.9313008 48.5476973,20.9313008 C48.5476973,20.9313008 50.5459268,18.667282 53.1662032,20.2148392" id="Fill-99" fill="#6D89CF"></path>
            </g>
        </g>
    </g>
</svg>