<?xml version="1.0" encoding="UTF-8"?>
<svg width="280px" height="120px" viewBox="0 0 280 120" version="1.1" xmlns="http://www.w3.org/2000/svg" xmlns:xlink="http://www.w3.org/1999/xlink">
    <!-- Generator: Sketch 55.2 (78181) - https://sketchapp.com -->
    <title>img_ok_320</title>
    <desc>Created with Sketch.</desc>
    <g id="img_ok_320" stroke="none" stroke-width="1" fill="none" fill-rule="evenodd">
        <g id="Group-50" transform="translate(23.000000, 12.000000)">
            <path d="M230.644777,55.233609 C230.644777,55.233609 232.023698,56.5716541 231.754571,57.5227643 C231.484647,58.4738747 230.239162,59.1079873 230.07049,60.2703148 C229.902615,61.432642 229.229121,62.0665843 228.622827,62.0667649 C228.01733,62.0669452 225.73575,62.0676247 225.73575,62.0676247 C225.73575,62.0676247 225.290048,61.2503225 226.367091,61.0036858 C227.443337,60.7562144 227.849801,59.3909185 227.783167,58.12262 C227.716533,56.8543215 227.885362,55.1642934 227.885362,55.1642934 L230.173493,54.6000077 L230.644777,55.233609" id="Fill-9" fill="#0B0B36" transform="translate(228.716875, 58.333816) rotate(-117.000000) translate(-228.716875, -58.333816) "></path>
            <g id="Group-46" transform="translate(177.000000, 43.000000)">
                <path d="M25.1772152,14.0747299 L9.04903577,25.1725352 L20.496963,32.2482181 C20.1773783,32.7763937 19.8639395,33.3081673 19.5591773,33.8446182 C18.9688133,34.8847788 18.4001406,35.9386116 17.8470133,37 C11.8023805,35.6925134 2.04637201,32.5900211 0.212736981,25.9752326 C-2.47987219,16.2568725 21.2771255,0 21.2771255,0 L25.1772152,14.0747299" id="Fill-96" fill="#0B0B36"></path>
                <path d="M30.7811636,4.54385965 L37.2305521,23.0690022 L47.1092226,13.9167685 C47.5349962,14.3660777 47.9654606,14.8110458 48.4035023,15.2484169 C49.2525239,16.0960268 50.1203083,16.9262721 51,17.743494 C48.1321618,23.2249219 42.5437022,31.8070175 35.6616844,31.8070175 C25.551725,31.8070175 16.1392405,4.54385965 16.1392405,4.54385965 L30.7811636,4.54385965" id="Fill-105" fill="#100C57"></path>
            </g>
            <path d="M199.402858,81.7844272 C199.391668,81.7899214 199.378878,81.7946299 199.363691,81.800123 L191.574968,81.7980604 C191.648442,81.5255769 191.902526,81.030113 192.793839,80.8882077 C194.002506,80.6953413 196.096797,80.0063928 196.563255,78.4877248 C196.578431,78.4390396 196.591208,78.388783 196.603186,78.3385263 C196.973686,76.7153865 199.672281,78.8364409 199.672281,78.8364409 C199.672281,78.8364409 199.680292,78.9008386 199.691513,79.0107851 C199.754824,79.6060676 199.915218,81.532478 199.402858,81.7844272" id="Fill-10" fill="#0B0B36" transform="translate(195.670430, 79.763512) rotate(-67.000000) translate(-195.670430, -79.763512) "></path>
            <g id="Group-48" transform="translate(200.945121, 25.941598) rotate(28.000000) translate(-200.945121, -25.941598) translate(196.945121, 20.941598)">
                <path d="M2.25021055,8.97532661 C2.06978602,8.55199672 1.36284956,6.02462801 1.2315585,5.68212154 C0.799022911,4.5402982 0.631485849,3.87157965 0.631485849,3.87157965 L3.5835211,-1.74971149e-13 C3.72206136,0.670664149 3.91859522,1.26642274 4.15137508,1.79603097 C5.35313132,4.52230141 7.51339286,5.45635101 7.51339286,5.45635101 C7.51339286,5.45635101 1.19827112,9.94261352 2.25021055,8.97532661 Z" id="Fill-4" fill="#EE9E71"></path>
                <path d="M1.36132782,6.03006823 C0.941659423,4.90125316 0.683035714,4.31530333 0.683035714,4.31530333 L2.38984349,2.03507285 C3.48473255,2.037958 4.09821429,2.26340044 4.09821429,2.26340044 C4.09821429,2.26340044 3.76758293,4.83978343 1.36132782,6.03006823 Z" id="Fill-5" fill="#DE8C5D"></path>
            </g>
            <g id="Group-47" transform="translate(199.565651, 19.776917) rotate(18.000000) translate(-199.565651, -19.776917) translate(194.065651, 14.276917)">
                <path d="M4.81309397,10.1711089 C4.81309397,10.1711089 9.44474709,9.26395983 8.82182648,6.45612461 C8.19890587,3.64844202 8.37710649,1.64038156 5.39380917,2.10093889 C2.40973026,2.56141989 2.07521329,3.75398481 2.0494211,4.74050089 C2.0236289,5.72709328 3.59226336,10.3348033 4.81309397,10.1711089" id="Fill-6" fill="#EE9E71"></path>
                <path d="M9.86841726,1.52413201 C9.91014101,1.46626473 10.0120432,1.41485474 10.2455357,1.38505185 C10.2455357,1.38505185 10.0505575,1.27577458 9.80021499,1.2867023 C9.7288032,0.949598474 9.51617258,0.358838913 8.94728539,0.2515485 C8.94728539,0.2515485 9.25860871,0.398327746 9.3219967,0.75770096 C8.62793828,0.105762684 7.20612148,-0.304441019 3.38278231,0.282758751 C-1.65616209,1.05664053 0.236651579,4.33893244 0.919476687,4.69822286 C1.6023018,5.05743051 3.18058263,3.8308759 4.40902592,3.84693635 C5.63827159,3.8629968 5.99212103,5.69719927 6.42299892,5.92212832 C6.85467918,6.14697459 6.66210806,5.70945157 7.2053191,5.40438585 C7.74933253,5.0994857 7.86647996,6.06973543 7.74612301,6.71430576 C7.62576606,7.35895889 8.45141475,8.14029139 8.45141475,8.14029139 C8.45141475,8.14029139 8.45141475,8.14029139 9.17275408,7.20671578 C9.89329103,6.27330574 10.3827426,2.49885218 9.97673852,1.73010312 C9.94063144,1.66221875 9.90532673,1.59334095 9.86841726,1.52413201" id="Fill-7" fill="#0B0754"></path>
            </g>
            <path d="M208,48 L193,48 C193.036973,47.4241048 193.070249,46.8408734 193.103525,46.26131 C193.114617,46.0558952 193.129406,45.8541485 193.140498,45.6524017 C193.170076,45.0875109 193.203352,44.5226201 193.236628,43.9577293 C193.24772,43.7523144 193.258812,43.5542358 193.269904,43.3524891 C193.329061,42.3877729 193.384521,41.430393 193.45477,40.4876856 C193.45477,40.4656769 193.458467,40.44 193.458467,40.4179913 C193.473256,40.2125764 193.488045,40.0071616 193.502835,39.809083 C193.558294,39.0461135 193.617451,38.2978166 193.691398,37.5678603 C193.709884,37.3624454 193.728371,37.1570306 193.750555,36.958952 C193.769041,36.779214 193.787528,36.5958079 193.809712,36.419738 C193.868869,35.909869 193.928026,35.4110044 193.994577,34.9231441 C194.024156,34.7177293 194.053734,34.5159825 194.08701,34.3142358 C194.212719,33.4852402 194.356914,32.6929258 194.523293,31.9556332 C194.571358,31.7465502 194.619423,31.5448035 194.667488,31.3467249 C194.841262,30.6827948 195.029825,30.0665502 195.247966,29.5053275 C195.329307,29.2925764 195.414346,29.0871616 195.506778,28.889083 C195.858023,28.1187773 196.268425,27.480524 196.749076,27 L204.073453,27 C204.716786,27.3558079 205.252896,27.8803493 205.689179,28.5442795 C205.814888,28.7313537 205.933202,28.9257642 206.040424,29.1385153 C206.347301,29.7144105 206.595021,30.3673362 206.805768,31.0899563 C206.861228,31.2843668 206.916687,31.4897817 206.964752,31.6951965 C207.116342,32.3077729 207.242051,32.9606987 207.341878,33.6466376 C207.371457,33.8447162 207.401035,34.0464629 207.426916,34.2518777 C207.519349,34.9781659 207.593296,35.7411354 207.645058,36.5297817 C207.659847,36.6838428 207.667242,36.8379039 207.678334,36.9956332 C207.693123,37.1937118 207.707912,37.3991266 207.715307,37.6045415 C207.759675,38.3528384 207.785556,39.119476 207.80774,39.8971179 C207.818832,40.0951965 207.818832,40.3006114 207.826226,40.5060262 C207.829924,40.6784279 207.833621,40.8544978 207.837318,41.0305677 C207.855805,41.8265502 207.870594,42.629869 207.885383,43.4331878 C207.889081,43.6349345 207.892778,43.8403493 207.896475,44.0420961 C207.907567,44.64 207.914962,45.2342358 207.929751,45.8248035 C207.937146,46.0302183 207.940843,46.2319651 207.94454,46.4373799 C207.963027,46.9619214 207.981513,47.4827948 208,48" id="Fill-102" fill="#498C9E"></path>
            <g id="Group-49" transform="translate(217.025332, 14.915376) rotate(-10.000000) translate(-217.025332, -14.915376) translate(211.525332, 6.415376)" fill="#EE9E71">
                <polyline id="Fill-103" points="2.00607412 16.7019868 8.35714286 4.55816744 6.85310626 3.85430464 0 12.4780813 2.00607412 16.7019868"></polyline>
                <path d="M6.79008847,3.9890695 L5.78571429,1.35770592 C5.78571429,1.35770592 6.14734222,0.988458789 6.66932403,1.91157661 C7.19197122,2.83469443 7.71428571,4.49668874 7.71428571,4.49668874 L6.79008847,3.9890695" id="Fill-107"></path>
                <path d="M8.26443855,4.96898665 L10.9068116,3.37428221 C10.9068116,3.37428221 11.0862824,2.79845747 10.4143795,3.01998495 C9.7428474,3.24151243 9.11544139,3.59580969 9.11544139,3.59580969 C9.11544139,3.59580969 11.1307793,1.51403821 10.8174471,1.29251073 C10.5037441,1.07098325 8.98120913,2.93159402 8.98120913,2.93159402 C8.98120913,2.93159402 10.1904119,0.185240098 9.83221197,0.00809146811 C9.47401208,-0.169057162 8.21994167,2.62130884 8.21994167,2.62130884 C8.21994167,2.62130884 8.71237382,0.140861249 8.30930624,0.0964823996 C7.90660947,0.0524703175 6.42857143,4.96898665 6.42857143,5.10175643 C6.42857143,5.23489298 8.26443855,4.96898665 8.26443855,4.96898665" id="Fill-108"></path>
            </g>
            <polyline id="Fill-104" fill="#EE9E71" points="187 19.5561923 183.122795 10.0862556 181 10 184.04643 23 187 19.5561923"></polyline>
            <path d="M183.198406,9.71980488 L185,7.15099316 C185,7.15099316 184.666932,6.64193638 183.837052,7.4932162 C183.006773,8.34406824 182,10 182,10 L183.198406,9.71980488" id="Fill-109" fill="#EE9E71"></path>
            <path d="M181.223739,9.41255935 L179.000572,7.16602114 C179.000572,7.16602114 178.959742,6.53875093 179.568069,6.92299699 C180.176397,7.30724305 180.709807,7.81587155 180.709807,7.81587155 C180.709807,7.81587155 179.217082,5.22374152 179.577434,5.07295173 C179.937411,4.92254466 180.997489,7.17329273 180.997489,7.17329273 C180.997489,7.17329273 180.453965,4.09702798 180.847654,4.00211461 C181.241719,3.90720124 181.818955,7.0389597 181.818955,7.0389597 C181.818955,7.0389597 181.917097,4.40281742 182.323522,4.45371854 C182.730323,4.50423695 183.028868,9.84808924 182.997777,9.98280499 C182.966312,10.1179035 181.223739,9.41255935 181.223739,9.41255935" id="Fill-110" fill="#EE9E71"></path>
            <path d="M77.7865125,62.9558862 L85.4557793,62.9530652 C85.4557793,62.9530652 85.6399881,61.9107497 85.2395222,61.1196902 C84.8555977,60.3604906 84.2545893,60.0156274 84.3995479,59.097681 C83.9115053,59.5455374 83.1176484,60.0463571 82.0086462,59.9138609 C81.872665,60.1105468 81.130878,61.162394 80.6777416,61.4532398 C80.1758059,61.7751922 77.9411931,61.6609861 77.7865125,62.9558862" id="Fill-30" fill="#060632" transform="translate(81.642292, 61.026784) scale(-1, 1) rotate(-134.000000) translate(-81.642292, -61.026784) "></path>
            <path d="M68.1427072,59.0995827 L75.7759347,59.0985306 C75.7759347,59.0985306 76.0613523,58.1110471 75.5602515,57.4394573 C75.117237,56.84452 75.2872385,56.5062055 75.6150764,56.0145482 C75.2699482,56.1292349 74.8225017,56.2333861 74.3299825,56.2109482 C73.9493208,56.1934179 73.546998,56.0535152 73.1949716,55.8868797 C72.8662925,56.190754 71.459651,57.4843308 71.0199875,57.7403955 C70.5204882,58.0316337 68.2963485,57.9278507 68.1427072,59.0995827" id="Fill-31" fill="#060632" transform="translate(71.999791, 57.493231) scale(-1, 1) rotate(-169.000000) translate(-71.999791, -57.493231) "></path>
            <g id="Group-45" transform="translate(154.745529, 25.522122) rotate(37.000000) translate(-154.745529, -25.522122) translate(148.245529, 17.522122)">
                <path d="M8.9611187,15.4172185 C8.19407045,14.7623997 7.58654109,14.0131058 7.10289341,13.2809024 C7.02737649,13.166821 6.95440509,13.052566 6.8856762,12.9398727 C6.45039329,12.228924 6.13135553,11.5602245 5.90225926,11.043865 C5.86492505,10.9603209 5.82928785,10.8812013 5.79704468,10.8060724 C5.61801018,10.4047486 7.60351118,9.11957557 8.72523439,8.30538972 C9.44706961,9.21540612 9.97083929,9.99995469 10.4095162,10.4916761 C11.5465125,11.7665254 12.2142857,12.2281432 12.2142857,12.2281432 L8.9611187,15.4172185 Z" id="Fill-45" fill="#EE9E71"></path>
                <path d="M9,7.70860927 C9,7.70860927 8.46180719,11.1418649 6.78774431,12.205298 C6.7247191,12.09355 6.66381834,11.981632 6.60645831,11.8712437 C6.24317817,11.1748369 5.97691436,10.5198152 5.78571429,10.0140174 C5.98966103,9.50601008 7.38471344,8.43730824 8.21395525,7.73163871 C8.68204136,7.71999652 9,7.70860927 9,7.70860927" id="Fill-46" fill="#DC8757"></path>
                <path d="M5.03785798,12.1894757 C5.03785798,12.1894757 9.90844644,10.7158182 8.84929077,7.98137695 C7.78928641,5.24685875 7.70441817,3.21494646 4.54986558,4.04013926 C1.39531299,4.86540896 1.19841867,6.10004504 1.30705002,7.09073782 C1.41568137,8.08143061 3.74361728,12.5024029 5.03785798,12.1894757" id="Fill-47" fill="#EE9E71"></path>
                <path d="M9.08001031,8.35087426 C9.08001031,8.35087426 8.61155782,8.03012884 9.64231373,6.35066444 C10.1733335,5.48477596 10.647401,4.67062062 9.8949893,3.26190674 C9.1425776,1.8533584 9.18990413,0.718209324 7.11555801,0.718540416 C5.04201403,0.718954281 4.83345642,-0.272500851 3.77703188,0.0731592454 C2.7198052,0.418736568 1.78129594,2.02064266 0.87727889,2.32135701 C-0.0275403009,2.62223691 -0.713373996,7.51263197 1.35615926,7.37762919 C1.35615926,7.37762919 2.13423959,6.97816664 2.48237038,6.33212328 C2.82969902,5.68599715 4.5944173,4.21404469 5.15591857,4.69396261 C5.7166177,5.17404608 7.96743565,8.37347129 9.08001031,8.35087426" id="Fill-48" fill="#060632"></path>
            </g>
            <g id="Group-44" transform="translate(127.000000, 25.000000)" fill="#EE9E71">
                <polyline id="Fill-44" points="13 8.63552941 4.27333753 3.25 2.6 4.35223529 12.8425565 13 13 8.63552941"></polyline>
                <path d="M4.53758958,2.98241731 L4.55,0.0106512097 C4.55,0.0106512097 4.13198069,-0.169623546 3.98547718,0.953140284 C3.83927636,2.07590411 3.92493854,3.9 3.92493854,3.9 L4.53758958,2.98241731" id="Fill-45"></path>
                <path d="M3.57506669,4.55 L0.712480442,4.1139909 C0.712480442,4.1139909 0.343661865,3.64657119 1.00234068,3.58561966 C1.66136579,3.52392026 2.33147278,3.60506432 2.33147278,3.60506432 C2.33147278,3.60506432 -0.175800919,2.46231663 0.00982044918,2.1295138 C0.195788126,1.7970849 2.1977977,2.9293624 2.1977977,2.9293624 C2.1977977,2.9293624 0.133106283,0.842426898 0.373790706,0.533182021 C0.61447513,0.22431108 2.7342296,2.33480453 2.7342296,2.33480453 C2.7342296,2.33480453 1.38328005,0.210101521 1.71227315,0.00742833633 C2.04126624,-0.195244848 5.14938523,3.81559016 5.19890735,3.94011077 C5.24877578,4.06425744 3.57506669,4.55 3.57506669,4.55" id="Fill-46"></path>
            </g>
            <g id="Group-43" transform="translate(164.000000, 39.000000)" fill="#EE9E71">
                <polygon id="Fill-52" points="1.60884312 7.44918982 13.2222222 3.98322272 12.4412807 2.46153846 1.60884312 4.66463826 0.323354751 7.44918982"></polygon>
                <path d="M11.962963,2.67215185 L12.7423987,7.03948511e-05 C12.7423987,7.03948511e-05 13.3218974,-0.0278287933 13.2071925,1.02720103 C13.0928859,2.08186376 12.4954645,3.69230769 12.4954645,3.69230769 L11.962963,2.67215185" id="Fill-53"></path>
                <path d="M12.7955704,3.96603874 L15.7494568,4.30769231 C15.7494568,4.30769231 16.2348856,4.00834178 15.5956011,3.79488904 C14.9566727,3.58111337 14.2700206,3.48359033 14.2700206,3.48359033 C14.2700206,3.48359033 17.0504631,3.14742647 16.9500296,2.82385665 C16.849596,2.50028683 14.5741704,2.95238039 14.5741704,2.95238039 C14.5741704,2.95238039 17.1537459,1.71881082 16.9927673,1.40137655 C16.8317886,1.08394228 14.191312,2.32364742 14.191312,2.32364742 C14.191312,2.32364742 16.0717701,0.882760649 15.7957559,0.632494569 C15.520454,0.381905566 11.4169239,2.96529735 11.3364346,3.05668484 C11.255233,3.14807232 12.7955704,3.96603874 12.7955704,3.96603874" id="Fill-54"></path>
            </g>
            <path d="M52.4436698,84.9845741 C52.4573329,84.9899732 52.4729478,84.9946009 52.4914905,85 L62,85 C61.9111902,84.7323604 61.5998677,84.2456729 60.512679,84.1060684 C59.0370692,83.9163296 56.4801263,83.2391321 55.9092058,81.7474464 C55.891639,81.699626 55.8750482,81.6502631 55.8604092,81.6009002 C55.4075766,80.0066321 52.1147806,82.0891303 52.1147806,82.0891303 C52.1147806,82.0891303 52.1040454,82.1523766 52.0903823,82.2603579 C52.0132836,82.845 51.8180972,84.7369882 52.4436698,84.9845741" id="Fill-86" fill="#0B0B36"></path>
            <path d="M3.24657339,50.8120488 C3.24657339,50.8120488 1.65941873,52.309559 1.96989273,53.3740095 C2.27944907,54.4384598 3.7121389,55.1481277 3.90613489,56.4489667 C4.10013087,57.7498057 4.87393041,58.4592878 5.57136304,58.4594844 C6.26787799,58.4596809 8.89334476,58.4604213 8.89334476,58.4604213 C8.89334476,58.4604213 9.40514926,57.545718 8.16712864,57.2696998 C6.92819009,56.9927469 6.46066309,55.4647542 6.53734763,54.0453136 C6.61494985,52.6258734 6.42078739,50.7344484 6.42078739,50.7344484 L3.78780142,50.1029376 L3.24657339,50.8120488" id="Fill-85" fill="#0B0B36" transform="translate(5.463909, 54.281679) rotate(115.000000) translate(-5.463909, -54.281679) "></path>
            <g id="Group-38" transform="translate(7.000000, 43.000000)" fill="#A83F3F">
                <path d="M48.6640014,38.6954104 C49.109941,38.6635555 49.5551525,38.6202472 50,38.5740756 C49.955224,34.6809835 49.6672745,29.0806145 48.5340419,24.7254481 C46.5995742,17.2907409 34.8169405,0 34.8169405,0 C34.8169405,0 20.9240114,4.14972055 22.1551687,6.74320641 C35.8911998,17.3455026 42.1292575,31.9078219 44.4969236,39 C45.8831586,38.8650643 47.2781304,38.7963437 48.6640014,38.6954104" id="Fill-5"></path>
                <path d="M20.3374083,0.639344262 L13.8499507,18.8853053 L3.9138877,9.87082352 C3.48562476,10.3133701 3.05264368,10.7516409 2.61167803,11.182429 C1.7576927,12.0172814 0.885197709,12.8350306 0,13.6399523 C2.88496785,19.0388782 8.50610033,27.4918033 15.4279907,27.4918033 C25.5970578,27.4918033 35.0649351,0.639344262 35.0649351,0.639344262 L20.3374083,0.639344262" id="Fill-17"></path>
            </g>
            <g id="Group-40" transform="translate(35.872750, 16.007340) rotate(-40.000000) translate(-35.872750, -16.007340) translate(28.372750, 8.007340)">
                <path d="M0,11.1385475 C0,11.1385475 0.372085155,14.7044289 3.54069353,15.4172185 C3.54069353,15.4172185 4.96837793,14.510567 5.63197505,13.5840548 C5.71345355,13.4698116 5.79312142,13.3597866 5.86916802,13.255298 C6.62148618,12.2152456 7.07142857,11.6507964 7.07142857,11.6507964 C7.07142857,11.6507964 7.07142857,11.6500055 7.06961794,11.6485116 C6.98813944,11.5268865 4.31836055,7.58663897 4.2341661,7.71151556 C2.301315,10.5909712 0,11.1385475 0,11.1385475" id="Fill-90" fill="#FCBF90"></path>
                <path d="M5.86916802,13.255298 C6.5280446,12.4308744 6.82920778,11.8797554 7.20120869,11.4367482 C7.57320961,10.993741 7.06493762,11.0410075 7.06336211,11.0393511 C6.99010095,10.9341254 4.24850336,7.74049569 4.22487072,8.02928197 C4.14215651,9.00622531 4.5709488,11.4096575 5.86916802,13.255298 Z" id="Fill-91" fill="#F0A76F"></path>
                <path d="M8.23680985,12.1799734 C8.23680985,12.1799734 3.50721347,10.2534166 4.68983354,7.16452856 C5.8724536,4.07564049 6.05806661,1.74668808 9.12775232,2.84616549 C12.197438,3.9454564 12.3291349,5.37263217 12.1718058,6.50493537 C12.0153605,7.63733183 9.49721061,12.6014863 8.23680985,12.1799734" id="Fill-92" fill="#FCBF90"></path>
                <path d="M4.59890434,8.02923455 C4.51739402,8.02668166 3.42968409,7.67409904 4.04463417,2.92193962 C4.14063521,2.17592812 4.74562292,0.844453607 6.06246742,0.226843074 C7.38021759,-0.39086201 10.1343607,0.348909087 12.2056285,1.29376243 C14.277802,2.23871033 14.0133463,3.63022506 13.7362112,5.02117248 C13.4454911,6.48123706 14.1428571,8.35099338 14.1428571,8.35099338 C11.9574749,8.14543837 10.9159541,5.46726655 10.1135303,5.21367937 C9.31201218,4.95980854 8.36830381,5.87941663 8.09116872,6.19209851 C7.81403363,6.50487494 7.54867226,6.73983547 6.92194846,5.83705755 C6.29522467,4.93427963 5.74276583,6.79713369 5.68389727,7.1862132 C5.68389727,7.1862132 5.28359103,8.05031954 4.59890434,8.02923455" id="Fill-95" fill="#A83F3F"></path>
            </g>
            <g id="Group-21" transform="translate(14.241136, 15.485095) rotate(-13.000000) translate(-14.241136, -15.485095) translate(5.241136, 2.485095)" fill="#FCBF90">
                <polyline id="Fill-15" points="14.2714073 25.0529801 4.5 6.83725116 6.81390246 5.78145695 17.3571429 18.7171219 14.2714073 25.0529801"></polyline>
                <path d="M7.32548855,6.25403438 L9,2.04385264 C9,2.04385264 8.39728677,1.45305724 7.52676261,2.93004575 C6.65623845,4.40703426 5.78571429,7.06622517 5.78571429,7.06622517 L7.32548855,6.25403438" id="Fill-20"></path>
                <path d="M4.1864282,7.45347998 L0.0340321861,5.06142332 C0.0340321861,5.06142332 -0.247417052,4.19768621 0.808454625,4.52997743 C1.86374359,4.86226864 2.84910728,5.39371454 2.84910728,5.39371454 C2.84910728,5.39371454 -0.31792504,2.27105731 0.175048161,1.93876609 C0.667438651,1.60647487 3.06004853,4.39739103 3.06004853,4.39739103 C3.06004853,4.39739103 1.15982914,0.277860148 1.72272762,0.0121372022 C2.28620881,-0.253585743 4.25635348,3.93196326 4.25635348,3.93196326 C4.25635348,3.93196326 3.48251375,0.211291873 4.11592021,0.144723599 C4.74932668,0.0787054763 7.07142857,7.45347998 7.07142857,7.65263465 C7.07142857,7.85233947 4.1864282,7.45347998 4.1864282,7.45347998" id="Fill-21"></path>
            </g>
            <g id="Group-37" transform="translate(54.203247, 14.843449) rotate(16.000000) translate(-54.203247, -14.843449) translate(48.203247, 1.343449)" fill="#FCBF90">
                <polyline id="Fill-16" points="0 21.8749462 5.8156051 7.8364767 9 7.70860927 4.43063694 26.9801325 0 21.8749462"></polyline>
                <path d="M5.53010814,7.34862349 L3.21428571,4.04829584 C3.21428571,4.04829584 3.64200341,3.39427588 4.70950484,4.48797313 C5.77649402,5.58112079 7.07142857,7.70860927 7.07142857,7.70860927 L5.53010814,7.34862349" id="Fill-22"></path>
                <path d="M8.35468042,8.11286489 L11.5705802,4.74553721 C11.5705802,4.74553721 11.630184,3.80532425 10.7502142,4.38126922 C9.86970245,4.95721419 9.0986451,5.71959554 9.0986451,5.71959554 C9.0986451,5.71959554 11.2573889,1.83426157 10.736126,1.60824332 C10.2154049,1.38279872 8.68195986,4.75643656 8.68195986,4.75643656 C8.68195986,4.75643656 9.46873095,0.14543487 8.89924306,0.00316957747 C8.32921331,-0.139095715 7.49367542,4.55508528 7.49367542,4.55508528 C7.49367542,4.55508528 7.35170983,0.603781517 6.76379893,0.680077017 C6.17534617,0.755798866 5.74348903,8.76567902 5.78900471,8.96760395 C5.83397854,9.17010253 8.35468042,8.11286489 8.35468042,8.11286489" id="Fill-23"></path>
            </g>
            <path d="M87.0738771,44 C87.7025607,48.7847533 87.7025607,51.5511522 87.0738771,52.2991967 C86.4451934,53.0472413 89.8290165,53.1964331 97.2253462,52.746772 L98,44 L87.0738771,44 Z" id="Path-18" fill="#FFCBAF"></path>
            <g id="Group-42" transform="translate(117.000000, 49.000000)" fill="#0B0754">
                <path d="M43.0501624,41.1124921 C42.7345521,41.4143801 42.4121965,41.708792 42.0870008,42 C39.2518337,39.3709403 35.3203737,35.4261047 32.8572646,31.6987851 C28.6527963,25.3356418 23.6388889,5.25404004 23.6388889,5.25404004 C23.6388889,5.25404004 35.7794109,-2.05499516 36.8820942,0.56836855 C35.6977569,17.6047467 42.3308976,31.8443891 46,38.2929724 C44.9938814,39.2086043 44.0307198,40.1740762 43.0501624,41.1124921" id="Fill-39"></path>
                <path d="M39.0855219,8.89064532 C38.1242047,13.7324535 31.7363732,14.4173817 27.320099,14.2073514 L8.0084073,12.7202937 L12.3650455,25.344693 C11.789755,25.551856 11.2166071,25.7686962 10.6488157,25.991271 C9.54608633,26.4278187 8.45014185,26.8898137 7.3627678,27.3636364 C3.54356732,22.5773823 -2.00114758,14.0836988 0.728893342,7.82042256 C4.73807182,-1.37897717 33.1272835,0.881895295 33.1272835,0.881895295 L34.8620826,1.0198845 L35.7544792,1.08977513 L39.3962002,1.37507229 C39.3962002,1.37507229 40.046125,4.04883713 39.0855219,8.89064532" id="Fill-59"></path>
            </g>
            <path d="M130.470092,78.7038568 C130.426142,79.1457498 130.319039,79.5196948 130.098549,79.6133085 C130.060504,79.629691 129.996515,79.644503 129.91004,79.6569649 L122.458123,79.6543567 C122.258354,79.6488215 122.145065,79.6456588 122.145065,79.6456588 C122.145065,79.6456588 122.1638,78.8141593 123.430664,78.652986 C124.454533,78.5237388 126.109592,78.0839712 126.923026,77.1262672 C127.115795,76.8991344 127.261855,76.6430973 127.340451,76.3558063 C127.749837,74.8537734 130.433996,76.8776538 130.433996,76.8776538 C130.433996,76.8776538 130.46522,77.1392183 130.483508,77.5022767 C130.502657,77.856747 130.511463,78.3080275 130.470092,78.7038568" id="Fill-50" fill="#060632" transform="translate(126.322297, 77.729001) rotate(-36.000000) translate(-126.322297, -77.729001) "></path>
            <path d="M164.23098,93.7896123 L156.217647,93.7868405 C156.30711,93.5955401 156.634076,93.0325926 157.469897,92.833741 C157.550216,92.8126833 157.635557,92.7978749 157.725919,92.7854111 C158.590219,92.6724732 159.91882,92.3238508 160.766174,91.6009898 C161.121679,91.2988874 161.391814,90.9311562 161.508803,90.4876205 C161.904892,88.9852214 164.502791,91.0095458 164.502791,91.0095458 C164.502791,91.0095458 164.52965,91.2493049 164.549849,91.5905844 C164.59194,92.32781 164.602399,93.5374959 164.23098,93.7896123" id="Fill-51" fill="#060632" transform="translate(160.393890, 91.861160) rotate(-55.000000) translate(-160.393890, -91.861160) "></path>
            <path d="M99.243395,52.2578479 C99.243395,52.2578479 109.577573,68.9785196 104.684824,72.4653103 C99.7920745,75.9517358 82,61.2474642 82,61.2474642 L83.6310354,58.3669448 L94.1577509,63.3694139 L90.0065764,52 L99.243395,52.2578479" id="Fill-72" fill="#0B0754"></path>
            <path d="M85.2833505,76.9964676 C77.132311,77.2963738 72,58.3993949 72,58.3993949 L75.622765,57.1994089 L83.6228862,67.098119 L84.972973,53.8503939 L96,53 C96,53.4498592 93.4340263,76.6965615 85.2833505,76.9964676 Z" id="Fill-87" fill="#0B0754"></path>
            <polygon id="Fill-89" fill="#0B0754" points="85.4595388 51.4842092 87.4870261 49 98.6950903 49.5913257 101 55.2561008 94.5264735 56 85 53.6947899"></polygon>
            <path d="M26,44.0746965 L32.2684087,46 L42.9702818,44.0746965 C42.4044554,41.4073501 42.1909927,39.3254315 42.3298938,37.8289409 C42.7151227,33.6785657 43.6226785,29.0865315 42.3298938,25.7005053 C41.4895668,23.4995442 40.0835651,22.0252256 38.4395498,21.186721 C36.5605358,23.0550866 32.86203,22.3039428 31.3913489,21 C29.3090655,21.8479208 27.5239218,23.4706095 26.640388,25.7005053 C25.8111924,27.7932601 26.5007072,31.8600309 26.640388,37.0484505 C26.7335085,40.5073969 26.5200459,42.8494789 26,44.0746965 Z" id="Path-12" fill="#6D89CF"></path>
            <path d="M26.9557183,32 L18,23.8498208 C19.7807171,21.2090341 21.5048365,19.2590938 23.1723582,18 C25.4781074,19.2507482 28.4206547,20.9922304 32,23.2244467 L26.9557183,32 Z" id="Path-13" fill="#6D89CF"></path>
            <path d="M49.2428547,33 L40,25.674976 C41.1643721,22.5048996 42.6197134,20.2799076 44.366024,19 C46.7807176,20.271424 49.3253763,21.754752 52,23.449984 L49.2428547,33 Z" id="Path-13" fill="#6D89CF" transform="translate(46.000000, 26.000000) scale(-1, 1) translate(-46.000000, -26.000000) "></path>
            <g id="Group-39" transform="translate(59.000000, 13.000000)">
                <path d="M38.5185185,16.3945133 C38.5153341,16.4036115 38.5121497,16.4135521 38.5081692,16.4226503 C37.8474059,18.3700849 36.5258794,20.9368706 34.0826475,21.3606106 C33.3390898,21.4895016 32.4912429,21.4204228 31.5263693,21.074186 C30.4197898,20.6774036 29.5584093,20.1466757 28.8888889,19.5421513 C29.8195302,17.4320444 30.9499927,15.8454205 31.0025353,15.7724665 C31.0049236,15.7701919 31.0049236,15.7685913 31.0049236,15.7685913 C31.0049236,15.7685913 31.1657358,15.746604 31.4316334,15.7139179 C31.5996105,15.535408 31.6656869,14.7386421 31.6863855,13.899418 C31.7118607,12.8276845 31.6648908,11.6853558 31.6648908,11.6853558 L35.1032481,11.0708908 L35.3078459,11.0350877 C35.2744097,12.1440564 35.3691456,13.0897631 35.5235891,13.8340458 C35.6326548,14.3619095 35.7719724,14.7880083 35.9168626,15.1009693 C36.0219479,15.3311199 36.1318097,15.498931 36.2345067,15.6015384 C36.5179184,15.7770998 36.808495,15.7878829 37.1237507,15.7739828 C37.4405987,15.7599143 37.9652288,15.9805455 38.506577,16.3854151 C38.5105575,16.3884479 38.514538,16.3914806 38.5185185,16.3945133" id="Fill-25" fill="#FFCBAF" transform="translate(33.703704, 16.228070) scale(-1, 1) translate(-33.703704, -16.228070) "></path>
                <path d="M37.2329686,16.1750747 C36.6892131,15.7481695 36.1614503,15.5546143 35.8439931,15.5303643 C35.5513246,15.507891 35.2338674,15.4595688 34.9507946,15.3485343 C34.9372007,15.3342331 34.9236068,15.318333 34.9092133,15.3015446 C34.9020165,15.2931948 34.8956194,15.2839567 34.8884227,15.2750739 C34.8812259,15.2656582 34.8740291,15.2562425 34.8668324,15.2462938 C34.858836,15.2363451 34.8516392,15.2256858 34.8444424,15.2152042 C34.8372457,15.204456 34.8300489,15.1934414 34.8220525,15.1820715 C34.8148557,15.1713234 34.8084586,15.1603087 34.8012618,15.1491165 C34.7932654,15.1358812 34.7844694,15.1221129 34.776473,15.108167 C34.7700759,15.09733 34.7636787,15.086493 34.7572816,15.0751231 C34.7484856,15.0591341 34.7388899,15.0422569 34.7300938,15.0253797 C34.7244964,15.0141874 34.7180992,15.0036169 34.7125017,14.9919805 C34.7069043,14.9805218 34.7005071,14.9679082 34.69411,14.9557389 C34.6733194,14.9131016 34.6525287,14.8685102 34.6317381,14.820721 L34.6309384,14.820721 C34.4862035,14.4907266 34.3462664,14.0414368 34.2367156,13.4848433 C33.0188632,13.0660214 31.515539,12.824144 30.721496,13.1004865 C30.721496,13.1004865 31.7874168,13.3615507 31.8321966,14.4827321 C31.8785758,15.6360691 31.1748921,19.5491007 29.2397621,19.6060392 C27.9547398,19.643702 30.4408222,21.1172624 32.7893663,21.4210526 C35.243463,20.97425 36.5708663,18.2677632 37.2345679,16.2143365 C37.2345679,16.2014565 37.2337683,16.1878659 37.2329686,16.1750747" id="Fill-26" fill="#F2A57C" transform="translate(33.061728, 17.201754) scale(-1, 1) translate(-33.061728, -17.201754) "></path>
                <path d="M41.1263539,34.7649856 C41.1304335,35.2875775 38.771447,34.4035088 37.1129811,34.4035088 C35.4643045,34.4035088 24.6193664,36.6948348 25.3979535,35.0526316 C25.3979535,35.0526316 26.7687789,24.5374379 26.3316917,21.9276793 C26.316169,21.8324443 26.3039142,21.7404105 26.2957444,21.6467761 C26.0710734,19.1709867 28.3684364,17.2147482 27.4550467,16.2017361 C27.4550467,16.2017361 28.2867379,15.7853432 30.3398222,15.5789474 C30.3398222,15.5789474 30.3398222,15.5804679 30.3373713,15.5826287 C30.2785483,15.6799445 28.6960476,18.2573712 28.8136935,18.932099 C28.9329733,19.618031 33.3471456,19.495586 33.77688,19.1319324 C34.1200138,18.8389448 36.1698303,17.0899024 36.5391077,15.8812984 C36.5946627,15.6980311 36.6191723,15.5840692 36.6191723,15.5840692 C36.6191723,15.5840692 38.7604911,15.8741758 39.7898928,16.6504609 C39.7898928,16.6504609 39.0537889,17.4998129 38.5791203,18.5287509 C38.5341861,18.6268669 38.4917029,18.7257032 38.4524876,18.8246195 C38.3683381,19.0352569 38.3005283,19.2502158 38.2523262,19.4643745 C38.1894183,19.7492792 38.2662149,20.0365847 38.432063,20.3430973 C38.5823883,20.6232002 38.8095102,20.9217098 39.0709456,21.2450286 C39.1559121,21.3506674 39.2041142,21.3682738 39.2539503,21.3890815 C39.3046034,21.4098891 39.3568905,21.4346982 39.4508438,21.5531417 C39.1101609,22.8232082 38.5921921,25.2424969 38.1984051,27.5289367 C38.0995499,28.1083495 38.1363142,28.6997667 38.3013453,29.2591722 C38.3667041,29.4816539 38.4516706,29.7001342 38.5562447,29.9098112 C39.1918594,31.1782771 39.7898928,32.8753456 40.1633856,33.6153521 L41.1263539,34.7649856 Z" id="Fill-27" fill="#ED6966" transform="translate(33.242187, 25.612143) scale(-1, 1) translate(-33.242187, -25.612143) "></path>
                <path d="M30.2268394,5.02216981 C30.3404873,4.86036616 31.6307254,3.15849276 34.4384975,4.81447908 C34.4384975,4.81447908 32.983637,4.11368822 32.3686012,4.552716 C32.3686012,4.552716 33.7607882,4.41240901 34.3574398,5.12279068 C34.954927,5.83325503 34.5504741,7.4118534 34.2763821,7.84178644 C34.0031257,8.27155412 32.6919964,9.38326175 32.1404698,9.19764643 C31.9315582,9.12728623 31.7318387,8.98334134 31.5638737,8.83170727 C31.5630381,9.10760853 31.5471608,9.40219534 31.5087211,9.7182788 C31.1569139,12.6424849 28.6115348,14.098387 27.8393975,13.267128 C27.3446948,12.7339284 26.5224187,13.6315789 26.5224187,13.6315789 L23.7530864,5.31841021 C23.7530864,5.31841021 28.7051272,2.32285175 30.2268394,5.02216981" id="Fill-28" fill="#0B0754" transform="translate(29.209877, 8.763158) scale(-1, 1) translate(-29.209877, -8.763158) "></path>
                <path d="M37.1573523,9.01782271 C36.9795239,9.83820845 36.5290812,10.8123749 36.125612,11.9844021 C35.4621107,13.9100298 33.1159501,13.7450211 31.7268754,13.4579194 C31.7260366,13.4579194 31.7260366,13.4579194 31.7251978,13.4579194 C31.1027984,13.3289232 30.6724872,13.175891 30.6724872,13.175891 C29.5283459,12.6885166 30.6322241,7.82857942 31.1816468,6.97525849 C31.7310695,6.12110585 32.6571193,5.24682615 35.4847587,6.38508642 C37.1246385,7.04503785 37.4014469,7.8848853 37.1573523,9.01782271" id="Fill-29" fill="#FFCBAF" transform="translate(33.703704, 9.736842) scale(-1, 1) translate(-33.703704, -9.736842) "></path>
                <path d="M33.1409995,9.0877193 C33.014758,9.80092836 33.837048,11.2800643 33.4017423,12.1995669 C33.1353105,12.7623546 31.158266,13.8813178 30.1728395,13.6315789 C32.1785946,13.2672379 31.6841149,8.49939726 31.6841149,8.49939726 C32.4697827,8.25941948 33.3861477,8.74964225 34.1339431,9.62061917" id="Fill-32" fill="#F2A57C" transform="translate(32.153391, 11.052988) scale(-1, 1) translate(-32.153391, -11.052988) "></path>
                <path d="M34.0246914,34.4035088 C29.2791901,34.688653 26.3209877,26.0483099 26.3209877,26.0483099 C26.3209877,26.0483099 31.082167,21.6681776 32.921451,21.4210526 C33.0072678,21.5256055 33.0559523,21.543031 33.1062871,21.5636247 C33.1574471,21.5842185 33.2102574,21.6087726 33.3051509,21.7259985 C32.9610587,22.9830094 32.4379066,25.3774289 32.040179,27.6403652 C31.9403345,28.2138219 31.9774668,28.7991596 32.1441493,29.3528147 C32.2101622,29.5730094 32.2959789,29.7892438 32.4015995,29.9967654 C33.0435749,31.2521921 34.0147894,33.4153279 34.0246914,35.0461945 L34.0246914,34.4035088 Z" id="Fill-33" fill="#E75755" transform="translate(30.172840, 28.233624) scale(-1, 1) translate(-30.172840, -28.233624) "></path>
                <path d="M32.2752129,5.62445637 C35.2880818,5.11452331 36.2219505,7.62632394 36.2219505,7.62632394 C35.8261557,9.71789277 36.9186872,11.3461567 36.9186872,11.3461567 C36.9186872,11.3461567 35.8942773,11.5713606 34.1136321,10.4536911 C33.5695221,10.1122476 33.181488,9.53245505 32.9038281,8.89222781 C33.2435735,10.4190507 33.9937727,11.6842105 33.9937727,11.6842105 C32.029458,9.8905987 32.1958815,6.4769077 32.2200259,6.11785464 C31.8492377,6.26947871 31.1409094,6.26947871 30.5687253,6.74226957 C29.9269949,7.272526 29.5692766,7.62632394 28.9335837,8.89222781 C28.7602619,8.71652977 29.0476318,6.4146542 30.5687253,5.51449999 C31.5827877,4.9144523 32.0596384,5.27449745 32.2752129,5.62445637 Z" id="Fill-36" fill="#0B0754" transform="translate(32.903788, 8.438596) scale(-1, 1) translate(-32.903788, -8.438596) "></path>
                <g id="Group-41" transform="translate(0.000000, 17.526316)" fill="#FFCBAF">
                    <path d="M25.7976293,0 L28.2469136,4.54385965 C25.5422497,6.51874684 18.1106253,12.5460017 16.2309682,12.9464753 C14.3516685,13.3469489 12.8395062,10.2723102 12.8395062,10.2723102 L25.7976293,0 Z" id="Fill-69"></path>
                    <polygon id="Fill-78" points="4.78411553 17.2386698 4.49382716 15.8630414 13.5568846 9.73684211 16.1308987 12.9824561"></polygon>
                    <path d="M4.80987389,15.7551337 L2.65787971,14.2807018 C2.65787971,14.2807018 2.29433118,14.6495979 3.02875247,15.3620287 C3.76284083,16.0740752 5.13580247,16.877193 5.13580247,16.877193 L4.80987389,15.7551337" id="Fill-81"></path>
                    <path d="M4.78411553,17.2386698 L3.00608921,19.4675825 C3.00608921,19.4675825 2.45169882,19.5653806 2.7328368,18.97791 C3.01431763,18.3904394 3.41373928,17.8588534 3.41373928,17.8588534 C3.41373928,17.8588534 1.25446243,19.4604265 1.08475108,19.1496532 C0.914696889,18.8381983 2.81272113,17.6608717 2.81272113,17.6608717 C2.81272113,17.6608717 0.127853386,18.452117 0.0040841031,18.1052231 C-0.11968518,17.7583291 2.61078177,16.9313041 2.61078177,16.9313041 C2.61078177,16.9313041 0.253679776,17.0989581 0.258479693,16.7265072 C0.262593908,16.3537155 4.9915405,15.5638332 5.11462408,15.5791674 C5.23770766,15.5941609 4.78411553,17.2386698 4.78411553,17.2386698" id="Fill-82"></path>
                </g>
                <path d="M23.7530864,19.8691701 C24.7160494,21.0089941 27.6049383,22.7812297 28.9058028,23.6573292 C29.8380583,22.4414703 30.9398206,20.4435532 32.0987654,18.0579349 C31.4086015,17.6091847 27.5424542,15.5780913 25.8158904,15.5788812 L25.037037,18.0579349 L23.7530864,19.8691701 Z" id="Fill-41" fill="#ED6966" transform="translate(27.925926, 19.618105) scale(-1, 1) translate(-27.925926, -19.618105) "></path>
                <path d="M40.5669934,4.19301032 L37.9452711,5.19298246 C37.9452711,5.19298246 37.5862503,4.81429885 38.5093386,4.28785304 C39.4320487,3.76140722 41.0864198,3.24561404 41.0864198,3.24561404 L40.5669934,4.19301032" id="Fill-83" fill="#FFCBAF"></path>
                <path d="M40.9405255,2.69992671 L39.3730345,0.0242358541 C39.3730345,0.0242358541 38.794895,-0.16473272 39.0077184,0.512652661 C39.2205419,1.19003804 39.568462,1.82427312 39.568462,1.82427312 C39.568462,1.82427312 37.4994479,-0.230202147 37.271079,0.0807776322 C37.0427102,0.391385426 38.8959398,1.94851623 38.8959398,1.94851623 C38.8959398,1.94851623 36.1436699,0.691577629 35.9593463,1.04831161 C35.7750227,1.40467361 38.5709677,2.70736641 38.5709677,2.70736641 C38.5709677,2.70736641 36.0759365,2.17356739 36.0248589,2.57717153 C35.9737813,2.98077567 40.9116555,4.54162633 41.0456418,4.54385965 C41.179628,4.54571817 40.9405255,2.69992671 40.9405255,2.69992671" id="Fill-84" fill="#FFCBAF"></path>
                <path d="M42.3114145,19.2761926 C47.9672346,13.7821227 51.0295796,10.6023392 51.4984497,9.73684211 C51.9673197,8.87134503 48.4480116,6.52570656 40.9405255,2.69992671 L40.25155,4.21929825 L47.8039224,9.73684211 L40.7084339,15.2047227 L42.3114145,19.2761926 Z" id="Path-17" fill="#FFCBAF"></path>
                <path d="M37.2345679,15.8640356 C39.0431797,15.1426464 40.4341116,14.6716674 41.4073637,14.4510984 C42.0829389,15.6357462 42.5663033,17.6292027 42.8574569,20.4314678 L39.2805231,20.7634578 L37.2345679,15.8640356 Z" id="Path-16" fill="#ED6966"></path>
            </g>
            <path d="M161,37.8767978 C160.995205,37.6634185 159.099681,36.3659992 159.084189,36.1639271 C159.036608,35.4176466 158.9337,34.7304557 158.757761,34.1063667 C158.698746,33.8791269 158.626452,33.6628295 158.544199,33.4545567 C158.258344,32.7173949 157.851507,32.0969535 157.299714,31.6154822 L153.259248,31.8298857 L150.160708,30.074774 C150.151118,30.0827985 150.138209,30.087905 150.127881,30.0992123 C150.122348,30.102495 150.116816,30.1076015 150.110914,30.1112491 L150.130463,30 C149.566498,30.016049 149.063762,30.3490667 148.636638,30.7138177 C147.315434,31.8419925 146.398852,33.3611804 145.641612,34.9164787 C145.200104,35.8239792 144.765604,36.8015119 143.927218,37.3734414 C143.835007,37.4361786 143.731361,37.5025633 143.700009,37.6087058 C143.673821,37.6969756 143.704067,37.7910813 143.737263,37.8767978 C143.986602,38.5180301 142.161554,49.1348374 142,49.6856114 C143.368163,51.3441525 145.896914,52.5237375 149.586253,53.2243662 C152.522891,53.7820522 154.822073,54.0390031 156.4838,53.9952191 C156.573061,53.4922275 160.40965,44.3914853 161,37.8767978 Z" id="Fill-48" fill="#93B3F4"></path>
            <path d="M150.278107,30.9120968 C148.192173,30.5120268 146.559334,30.6104638 145.379591,31.2074077 C144.199848,31.8043516 142.24042,32.5866686 139.501308,33.5543587 L132.11338,28.4903343 L130.612074,30.2253437 C135.034669,35.3605787 137.995972,38.1383504 139.495982,38.558659 C140.995991,38.9789675 143.625351,38.6088124 147.38406,37.4481935 L150.278107,30.9120968 Z" id="Path-19" fill="#93B3F4" transform="translate(140.445090, 33.608305) rotate(-2.000000) translate(-140.445090, -33.608305) "></path>
            <path d="M158,32 C159.925275,32.0620907 161.401946,33.0154585 162.430014,34.8601034 C163.458082,36.7047482 164.696995,39.7376343 166.146752,43.9587616 L175.723147,42.0220732 C176.381274,42.6046845 176.806892,43.3421032 177,44.2343293 C174.802104,45.5726685 166.291625,48.3537085 164.453588,47.9626888 C163.228231,47.702009 161.149392,45.076241 158.217074,40.0853849 L158,32 Z" id="Path-20" fill="#93B3F4"></path>
            <polygon id="Path-21" fill="#6D89CF" points="151.355262 29 150 30.2063599 152.703773 33 154 31.694814"></polygon>
            <polygon id="Path-22" fill="#6D89CF" points="154 31.4978682 154.891323 33 158 31.2047411 157.129862 30"></polygon>
            <path d="M152,53.5708785 C153.142261,50.1310404 156.533249,44 160,44 C159.490809,45.9717464 158.400615,49.3050797 156.72942,54 C154.749802,53.9564184 153.173329,53.8133779 152,53.5708785 Z" id="Path-23" fill="#6D89CF"></path>
            <path d="M197,26.4764865 C193.057844,24.0663643 190.724588,22.5877053 190.000232,22.0405094 C189.275876,21.4933135 187.225442,17.4798104 183.848931,10 L181,11.267422 C182.435717,17.9786935 183.490877,22.1777068 184.165479,23.8644619 C184.840081,25.551217 188.364181,28.5963964 194.737778,33 L197,26.4764865 Z" id="Path-24" fill="#498C9E"></path>
            <path d="M219,27.4764865 C215.057844,25.0663643 212.724588,23.5877053 212.000232,23.0405094 C211.275876,22.4933135 209.225442,18.4798104 205.848931,11 L203,12.267422 C204.435717,18.9786935 205.490877,23.1777068 206.165479,24.8644619 C206.840081,26.551217 210.364181,29.5963964 216.737778,34 L219,27.4764865 Z" id="Path-24" fill="#498C9E" transform="translate(211.000000, 22.500000) scale(-1, 1) translate(-211.000000, -22.500000) "></path>
        </g>
    </g>
</svg>