<?xml version="1.0" encoding="UTF-8"?>
<svg width="176px" height="25px" viewBox="0 0 176 25" version="1.1" xmlns="http://www.w3.org/2000/svg" xmlns:xlink="http://www.w3.org/1999/xlink">
    <!-- Generator: Sketch 55.2 (78181) - https://sketchapp.com -->
    <title>SMARTCITY</title>
    <desc>Created with Sketch.</desc>
    <g id="Page-1" stroke="none" stroke-width="1" fill="none" fill-rule="evenodd">
        <g id="Artboard" transform="translate(-453.000000, -340.000000)" fill="#2554A4" fill-rule="nonzero" stroke="#2554A4">
            <path d="M458.187934,357.125977 C458.236762,357.555666 458.378363,357.943846 458.612739,358.290527 C458.847115,358.637209 459.15717,358.932616 459.542914,359.176758 C459.928659,359.4209 460.380314,359.608886 460.897895,359.740723 C461.415476,359.872559 461.986759,359.938477 462.611762,359.938477 C463.187937,359.938477 463.715275,359.872559 464.193793,359.740723 C464.672311,359.608886 465.084905,359.423341 465.431586,359.184082 C465.778268,358.944823 466.049261,358.659181 466.244575,358.327148 C466.439888,357.995116 466.537543,357.628908 466.537543,357.228516 C466.537543,356.896483 466.469185,356.593751 466.332465,356.320312 C466.195746,356.046874 465.980904,355.802735 465.687934,355.587891 C465.394964,355.373046 465.01655,355.180177 464.55268,355.009277 C464.088811,354.838378 463.534617,354.684571 462.890082,354.547852 L460.136176,353.961914 C456.308032,353.161129 454.393989,351.14943 454.393989,347.926758 C454.393989,346.930659 454.586858,346.027348 454.972602,345.216797 C455.358346,344.406246 455.902774,343.710452 456.605903,343.129395 C457.309031,342.548337 458.158632,342.101564 459.154731,341.789062 C460.15083,341.476561 461.259217,341.320312 462.479926,341.320312 C463.642041,341.320312 464.711367,341.476561 465.687934,341.789062 C466.664501,342.101564 467.50922,342.538571 468.222114,343.100098 C468.935008,343.661624 469.496526,344.333004 469.906684,345.114258 C470.316842,345.895512 470.536567,346.754878 470.565864,347.692383 L466.405707,347.692383 C466.356879,347.272459 466.225044,346.891603 466.0102,346.549805 C465.795355,346.208006 465.519479,345.91504 465.182563,345.670898 C464.845647,345.426757 464.450143,345.23877 463.996039,345.106934 C463.541936,344.975097 463.046335,344.90918 462.509223,344.90918 C461.95258,344.90918 461.449655,344.970214 461.000434,345.092285 C460.551213,345.214356 460.165475,345.390136 459.843207,345.619629 C459.52094,345.849122 459.271919,346.12744 459.096137,346.45459 C458.920355,346.78174 458.832465,347.145506 458.832465,347.545898 C458.832465,348.200199 459.103459,348.727537 459.645454,349.12793 C460.187448,349.528322 461.078553,349.86035 462.318793,350.124023 L464.867622,350.666016 C465.93208,350.890626 466.847598,351.176268 467.614204,351.522949 C468.380809,351.869631 469.010685,352.287107 469.503852,352.775391 C469.997019,353.263674 470.360784,353.830075 470.595161,354.474609 C470.829537,355.119144 470.946723,355.851558 470.946723,356.671875 C470.946723,357.736333 470.748971,358.693355 470.353461,359.542969 C469.957952,360.392582 469.38911,361.11279 468.646918,361.703613 C467.904727,362.294437 467.006299,362.748534 465.951606,363.065918 C464.896913,363.383302 463.705519,363.541992 462.377387,363.541992 C461.117615,363.541992 459.975049,363.393068 458.949653,363.095215 C457.924257,362.797362 457.04536,362.37012 456.312934,361.813477 C455.580508,361.256833 455.006784,360.583012 454.591743,359.791992 C454.176701,359.000973 453.949653,358.11231 453.91059,357.125977 L458.187934,357.125977 Z M473.565972,363 L473.565972,341.862305 L478.780816,341.862305 L484.625543,356.071289 L484.889214,356.071289 L490.748589,341.862305 L495.948785,341.862305 L495.948785,363 L491.847222,363 L491.847222,348.864258 L491.612847,348.864258 L486.236871,361.78418 L483.292535,361.78418 L477.90191,348.864258 L477.667535,348.864258 L477.667535,363 L473.565972,363 Z M511.502604,357.960938 L504.075846,357.960938 L502.44987,363 L498.011393,363 L505.35026,341.862305 L510.550456,341.862305 L517.889323,363 L513.099284,363 L511.502604,357.960938 Z M505.027995,354.547852 L510.565104,354.547852 L507.943034,346.256836 L507.679362,346.256836 L505.027995,354.547852 Z M524.361111,351.94043 L528.242947,351.94043 C529.366,351.94043 530.235131,351.657229 530.850369,351.09082 C531.465606,350.524411 531.77322,349.728521 531.77322,348.703125 C531.77322,348.205076 531.690214,347.75342 531.524197,347.348145 C531.358181,346.942869 531.121367,346.598634 530.813748,346.31543 C530.506129,346.032225 530.130156,345.814942 529.685818,345.663574 C529.24148,345.512206 528.745879,345.436523 528.199002,345.436523 L524.361111,345.436523 L524.361111,351.94043 Z M524.361111,363 L519.937283,363 L519.937283,341.862305 L528.814236,341.862305 C529.976351,341.862305 531.021263,342.018553 531.949002,342.331055 C532.876741,342.643556 533.662866,343.092771 534.3074,343.678711 C534.951935,344.264651 535.447535,344.975093 535.794217,345.810059 C536.140898,346.645024 536.314236,347.589838 536.314236,348.644531 C536.314236,349.318363 536.228788,349.965329 536.057888,350.585449 C535.886989,351.20557 535.637968,351.776853 535.310818,352.299316 C534.983668,352.82178 534.58084,353.283201 534.102322,353.683594 C533.623804,354.083986 533.081817,354.406249 532.476345,354.650391 L536.92947,363 L531.919705,363 L527.979275,355.338867 L524.361111,355.338867 L524.361111,363 Z M544.338759,363 L544.338759,345.641602 L537.995985,345.641602 L537.995985,341.862305 L555.10536,341.862305 L555.10536,345.641602 L548.762587,345.641602 L548.762587,363 L544.338759,363 Z M572.619249,363.541992 C571.086038,363.541992 569.706658,363.285647 568.481066,362.772949 C567.255473,362.260251 566.215445,361.525395 565.360948,360.568359 C564.506452,359.611323 563.84972,358.444343 563.390734,357.067383 C562.931747,355.690423 562.702257,354.142587 562.702257,352.423828 C562.702257,350.70507 562.931747,349.159675 563.390734,347.787598 C563.84972,346.41552 564.506452,345.250981 565.360948,344.293945 C566.215445,343.336909 567.255473,342.602053 568.481066,342.089355 C569.706658,341.576658 571.086038,341.320312 572.619249,341.320312 C573.869255,341.320312 575.036236,341.518064 576.120226,341.913574 C577.204215,342.309084 578.151472,342.858395 578.962023,343.561523 C579.772573,344.264652 580.426864,345.099605 580.924913,346.066406 C581.422963,347.033208 581.711046,348.092768 581.789171,349.245117 L577.48253,349.245117 C577.375108,348.639645 577.179797,348.087893 576.896593,347.589844 C576.613388,347.091794 576.259388,346.666994 575.834581,346.31543 C575.409774,345.963865 574.923939,345.692872 574.377062,345.502441 C573.830184,345.312011 573.244252,345.216797 572.619249,345.216797 C571.789167,345.216797 571.042104,345.382811 570.378038,345.714844 C569.713972,346.046877 569.147572,346.525388 568.678819,347.150391 C568.210067,347.775394 567.851184,348.532222 567.602159,349.420898 C567.353135,350.309575 567.228624,351.310541 567.228624,352.423828 C567.228624,353.537115 567.353135,354.540523 567.602159,355.434082 C567.851184,356.327641 568.210067,357.08447 568.678819,357.70459 C569.147572,358.32471 569.713972,358.803221 570.378038,359.140137 C571.042104,359.477052 571.79405,359.645508 572.633898,359.645508 C573.268666,359.645508 573.859481,359.555177 574.406359,359.374512 C574.953236,359.193847 575.43663,358.937502 575.856554,358.605469 C576.276478,358.273436 576.628037,357.873049 576.911241,357.404297 C577.194446,356.935545 577.389756,356.408206 577.497179,355.822266 L581.803819,355.822266 C581.715928,356.964849 581.425404,358.009761 580.932237,358.957031 C580.439071,359.904302 579.789663,360.717282 578.983995,361.395996 C578.178327,362.07471 577.233512,362.602049 576.149523,362.978027 C575.065533,363.354006 573.888787,363.541992 572.619249,363.541992 Z M584.32053,363 L584.32053,341.862305 L588.744358,341.862305 L588.744358,363 L584.32053,363 Z M597.442708,363 L597.442708,345.641602 L591.099935,345.641602 L591.099935,341.862305 L608.20931,341.862305 L608.20931,345.641602 L601.866536,345.641602 L601.866536,363 L597.442708,363 Z M616.424262,363 L616.424262,355.22168 L609.056098,341.862305 L613.846137,341.862305 L618.50434,350.709961 L618.768012,350.709961 L623.411567,341.862305 L628.201606,341.862305 L620.84809,355.22168 L620.84809,363 L616.424262,363 Z" id="SMARTCITY"></path>
        </g>
    </g>
</svg>