<?xml version="1.0" encoding="UTF-8"?>
<svg width="85px" height="19px" viewBox="0 0 85 19" version="1.1" xmlns="http://www.w3.org/2000/svg" xmlns:xlink="http://www.w3.org/1999/xlink">
    <!-- Generator: Sketch 55.2 (78181) - https://sketchapp.com -->
    <title>SMART</title>
    <desc>Created with Sketch.</desc>
    <g id="Page-1" stroke="none" stroke-width="1" fill="none" fill-rule="evenodd">
        <g id="Artboard" transform="translate(-498.000000, -345.000000)" fill="#0091FF" fill-rule="nonzero">
            <path d="M498.076172,358.40625 L501.029297,358.40625 C501.123047,359.164066 501.517575,359.767576 502.212891,360.216797 C502.908207,360.666018 503.79101,360.890625 504.861328,360.890625 C505.861333,360.890625 506.683591,360.662112 507.328125,360.205078 C507.972659,359.748045 508.294922,359.164066 508.294922,358.453125 C508.294922,357.843747 508.050784,357.347658 507.5625,356.964844 C507.074216,356.582029 506.287115,356.265626 505.201172,356.015625 L503.009766,355.511719 C501.478508,355.167969 500.343754,354.607426 499.605469,353.830078 C498.867184,353.05273 498.498047,352.035163 498.498047,350.777344 C498.498047,349.238274 499.074213,348.001958 500.226562,347.068359 C501.378912,346.134761 502.900381,345.667969 504.791016,345.667969 C506.564462,345.667969 508.033197,346.128902 509.197266,347.050781 C510.361334,347.972661 510.978515,349.160149 511.048828,350.613281 L508.154297,350.613281 C508.052734,349.87109 507.697269,349.281252 507.087891,348.84375 C506.478513,348.406248 505.708989,348.1875 504.779297,348.1875 C503.802729,348.1875 503.019534,348.404295 502.429688,348.837891 C501.839841,349.271487 501.544922,349.847653 501.544922,350.566406 C501.544922,351.136722 501.775388,351.599608 502.236328,351.955078 C502.697268,352.310549 503.451167,352.609374 504.498047,352.851562 L506.443359,353.296875 C508.154305,353.679689 509.394527,354.249996 510.164062,355.007812 C510.933598,355.765629 511.318359,356.789056 511.318359,358.078125 C511.318359,359.726571 510.722662,361.029292 509.53125,361.986328 C508.339838,362.943364 506.720713,363.421875 504.673828,363.421875 C502.736318,363.421875 501.171881,362.968755 499.980469,362.0625 C498.789057,361.156245 498.154297,359.937508 498.076172,358.40625 Z M532.177734,363 L529.365234,363 L529.365234,351.105469 L529.201172,351.105469 L524.525391,362.34375 L522.369141,362.34375 L517.693359,351.105469 L517.529297,351.105469 L517.529297,363 L514.716797,363 L514.716797,346.089844 L518.255859,346.089844 L523.341797,358.40625 L523.552734,358.40625 L528.638672,346.089844 L532.177734,346.089844 L532.177734,363 Z M547.259766,363 L545.830078,358.675781 L539.607422,358.675781 L538.154297,363 L535.095703,363 L541.095703,346.089844 L544.494141,346.089844 L550.505859,363 L547.259766,363 Z M542.630859,349.3125 L540.310547,356.285156 L545.126953,356.285156 L542.830078,349.3125 L542.630859,349.3125 Z M556.435547,348.597656 L556.435547,354.257812 L559.927734,354.257812 C560.888677,354.257812 561.63281,354.011721 562.160156,353.519531 C562.687503,353.027341 562.951172,352.332036 562.951172,351.433594 C562.951172,350.550777 562.675784,349.857424 562.125,349.353516 C561.574216,348.849607 560.818364,348.597656 559.857422,348.597656 L556.435547,348.597656 Z M556.435547,356.660156 L556.435547,363 L553.412109,363 L553.412109,346.089844 L560.279297,346.089844 C562.052743,346.089844 563.458979,346.564448 564.498047,347.513672 C565.537115,348.462895 566.056641,349.749992 566.056641,351.375 C566.056641,352.500006 565.775393,353.494136 565.212891,354.357422 C564.650388,355.220707 563.869146,355.832029 562.869141,356.191406 L566.560547,363 L563.103516,363 L559.787109,356.660156 L556.435547,356.660156 Z M576.943359,363 L573.919922,363 L573.919922,348.703125 L568.716797,348.703125 L568.716797,346.089844 L582.158203,346.089844 L582.158203,348.703125 L576.943359,348.703125 L576.943359,363 Z" id="SMART"></path>
        </g>
    </g>
</svg>